<svg xmlns="http://www.w3.org/2000/svg" xmlns:xlink="http://www.w3.org/1999/xlink" xmlns:lucid="lucid" width="1360" height="1220"><g transform="translate(0 0)" lucid:page-tab-id=".Q4MUjXso07N"><path d="M0 0h1360v1220H0z" fill="#fff"/><path d="M340 68a8 8 0 0 1 8-8h684a8 8 0 0 1 8 8v1064a8 8 0 0 1-8 8H348a8 8 0 0 1-8-8z" stroke="#000" stroke-width="2" fill-opacity="0"/><use xlink:href="#a" transform="matrix(1,0,0,1,348,68) translate(183.97265625 18.5478515625)"/><use xlink:href="#b" transform="matrix(1,0,0,1,348,68) translate(256.5263671875 18.5478515625)"/><use xlink:href="#c" transform="matrix(1,0,0,1,348,68) translate(283.1044921875 18.5478515625)"/><use xlink:href="#b" transform="matrix(1,0,0,1,348,68) translate(417.005859375 18.5478515625)"/><use xlink:href="#d" transform="matrix(1,0,0,1,348,68) translate(443.583984375 18.5478515625)"/><path d="M119.75 549.75c0 10.9-8.84 19.75-19.75 19.75-10.9 0-19.75-8.84-19.75-19.75 0-10.9 8.84-19.75 19.75-19.75 10.9 0 19.75 8.84 19.75 19.75z" stroke="#000" stroke-width="2" fill="#fff"/><path d="M100 569.5v47.3a27.6 27.6 0 0 0 4.28 14.76L140 688m-40-63.2L60 688m0-98.75h80" stroke="#000" stroke-width="2" fill="none"/><path d="M60 538a8 8 0 0 1 8-8h64a8 8 0 0 1 8 8v164a8 8 0 0 1-8 8H68a8 8 0 0 1-8-8z" fill="none"/><use xlink:href="#e" transform="matrix(1,0,0,1,-20,688) translate(81.064453125 17.5478515625)"/><path d="M640 180c0 33.14-35.82 60-80 60s-80-26.86-80-60 35.82-60 80-60 80 26.86 80 60z" stroke="#000" stroke-width="2" fill="#fff"/><use xlink:href="#f" transform="matrix(1,0,0,1,504,144) translate(17.20292480468749 31.96212890625)"/><use xlink:href="#g" transform="matrix(1,0,0,1,504,144) translate(19.789941406249994 52.216875)"/><path d="M1219.75 809.75c0 10.9-8.84 19.75-19.75 19.75-10.9 0-19.75-8.84-19.75-19.75 0-10.9 8.84-19.75 19.75-19.75 10.9 0 19.75 8.84 19.75 19.75z" stroke="#000" stroke-width="2" fill="#fff"/><path d="M1200 829.5v47.3a27.6 27.6 0 0 0 4.28 14.76L1240 948m-40-63.2l-40 63.2m0-98.75h80" stroke="#000" stroke-width="2" fill="none"/><path d="M1160 798a8 8 0 0 1 8-8h64a8 8 0 0 1 8 8v164a8 8 0 0 1-8 8h-64a8 8 0 0 1-8-8z" fill="none"/><use xlink:href="#h" transform="matrix(1,0,0,1,1080,948) translate(38.2001953125 17.5478515625)"/><use xlink:href="#i" transform="matrix(1,0,0,1,1080,948) translate(105.234375 17.5478515625)"/><path d="M640 340c0 33.14-35.82 60-80 60s-80-26.86-80-60 35.82-60 80-60 80 26.86 80 60z" stroke="#000" stroke-width="2" fill="#fff"/><use xlink:href="#j" transform="matrix(1,0,0,1,504,304) translate(9.821958007812498 42.089501953125)"/><use xlink:href="#k" transform="matrix(1,0,0,1,504,304) translate(58.4644091796875 42.089501953125)"/><path d="M980 340c0 33.14-35.82 60-80 60s-80-26.86-80-60 35.82-60 80-60 80 26.86 80 60z" stroke="#000" stroke-width="2" fill="#fff"/><use xlink:href="#l" transform="matrix(1,0,0,1,844,304) translate(15.314770507812497 31.96212890625)"/><use xlink:href="#k" transform="matrix(1,0,0,1,844,304) translate(34.14318359375 52.216875)"/><path d="M640 560c0 33.14-35.82 60-80 60s-80-26.86-80-60 35.82-60 80-60 80 26.86 80 60z" stroke="#000" stroke-width="2" fill="#fff"/><use xlink:href="#f" transform="matrix(1,0,0,1,504,524) translate(17.20292480468749 21.834755859375)"/><use xlink:href="#m" transform="matrix(1,0,0,1,504,524) translate(27.1831689453125 42.089501953125)"/><use xlink:href="#n" transform="matrix(1,0,0,1,504,524) translate(11.097075195312499 62.344248046875)"/><path d="M640 720c0 33.14-35.82 60-80 60s-80-26.86-80-60 35.82-60 80-60 80 26.86 80 60z" stroke="#000" stroke-width="2" fill="#fff"/><use xlink:href="#o" transform="matrix(1,0,0,1,504,684) translate(17.603442382812496 21.834755859375)"/><use xlink:href="#m" transform="matrix(1,0,0,1,504,684) translate(27.1831689453125 42.089501953125)"/><use xlink:href="#n" transform="matrix(1,0,0,1,504,684) translate(11.097075195312499 62.344248046875)"/><path d="M980 620c0 33.14-35.82 60-80 60s-80-26.86-80-60 35.82-60 80-60 80 26.86 80 60z" stroke="#000" stroke-width="2" fill="#fff"/><use xlink:href="#p" transform="matrix(1,0,0,1,844,584) translate(2.015952148437492 31.96212890625)"/><use xlink:href="#m" transform="matrix(1,0,0,1,844,584) translate(52.350385742187505 31.96212890625)"/><use xlink:href="#n" transform="matrix(1,0,0,1,844,584) translate(11.097075195312499 52.216875)"/><path d="M980 780c0 33.14-35.82 60-80 60s-80-26.86-80-60 35.82-60 80-60 80 26.86 80 60z" stroke="#000" stroke-width="2" fill="#fff"/><use xlink:href="#q" transform="matrix(1,0,0,1,844,744) translate(29.6516650390625 21.834755859375)"/><use xlink:href="#m" transform="matrix(1,0,0,1,844,744) translate(27.1831689453125 42.089501953125)"/><use xlink:href="#n" transform="matrix(1,0,0,1,844,744) translate(11.097075195312499 62.344248046875)"/><path d="M640 880c0 33.14-35.82 60-80 60s-80-26.86-80-60 35.82-60 80-60 80 26.86 80 60z" stroke="#000" stroke-width="2" fill="#fff"/><use xlink:href="#r" transform="matrix(1,0,0,1,504,844) translate(3.021333007812494 31.96212890625)"/><use xlink:href="#m" transform="matrix(1,0,0,1,504,844) translate(51.3450048828125 31.96212890625)"/><use xlink:href="#s" transform="matrix(1,0,0,1,504,844) translate(6.679121093749998 52.216875)"/><path d="M640 1040c0 33.14-35.82 60-80 60s-80-26.86-80-60 35.82-60 80-60 80 26.86 80 60z" stroke="#000" stroke-width="2" fill="#fff"/><use xlink:href="#t" transform="matrix(1,0,0,1,504,1004) translate(23.0390380859375 31.96212890625)"/><use xlink:href="#u" transform="matrix(1,0,0,1,504,1004) translate(32.5574609375 52.216875)"/><path d="M642 340h19.47m19.46 0h38.93m19.46 0h38.93m19.47 0h19.46" stroke="#333" stroke-width="2" fill="none"/><path d="M642.03 340.98h-1.06l.03-.97v-.4l-.02-.58h1.05z" stroke="#333" stroke-width=".05" fill="#333"/><path d="M799.68 330L817 340l-17.32 10M102.2 620h175.9a12 12 0 0 0 12-12V192a12 12 0 0 1 12-12H463M102.22 620H98.2" stroke="#333" stroke-width="2" fill="none"/><path d="M477 180l-13 7.5v-15z" stroke="#333" stroke-width="2" fill="#333"/><path d="M102.2 620h175.9a12 12 0 0 0 12-12V352a12 12 0 0 1 12-12H463M102.22 620H98.2" stroke="#333" stroke-width="2" fill="none"/><path d="M477 340l-13 7.5v-15z" stroke="#333" stroke-width="2" fill="#333"/><path d="M980 1040c0 33.14-35.82 60-80 60s-80-26.86-80-60 35.82-60 80-60 80 26.86 80 60z" stroke="#000" stroke-width="2" fill="#fff"/><use xlink:href="#v" transform="matrix(1,0,0,1,844,1004) translate(31.564340820312495 31.96212890625)"/><use xlink:href="#w" transform="matrix(1,0,0,1,844,1004) translate(6.523818359374992 52.216875)"/><path d="M102.2 620h175.9a12 12 0 0 0 12-12v-36a12 12 0 0 1 12-12H463M102.22 620H98.2" stroke="#333" stroke-width="2" fill="none"/><path d="M477 560l-13 7.5v-15z" stroke="#333" stroke-width="2" fill="#333"/><path d="M102.2 620h175.9a12 12 0 0 1 12 12v76a12 12 0 0 0 12 12H463M102.22 620H98.2" stroke="#333" stroke-width="2" fill="none"/><path d="M477 720l-13 7.5v-15z" stroke="#333" stroke-width="2" fill="#333"/><path d="M102.2 620h175.9a12 12 0 0 1 12 12v236a12 12 0 0 0 12 12H463M102.22 620H98.2" stroke="#333" stroke-width="2" fill="none"/><path d="M477 880l-13 7.5v-15z" stroke="#333" stroke-width="2" fill="#333"/><path d="M596.93 664.7l18.42-3.7m18.43-3.7l36.85-7.43m18.42-3.7l36.85-7.43m18.42-3.7l36.85-7.42m18.43-3.7L818 620.2M616.06 671.06l-18.95-6.4 15-13.2" stroke="#333" stroke-width="2" fill="none"/><path d="M819 620v.4l.02.6-.83.16-.4-1.9 1.23-.26z" stroke="#333" stroke-width=".05" fill="#333"/><path d="M617.53 764.4l22.28 1.72m22.28 1.73l44.55 3.45m22.27 1.72l44.55 3.45m22.28 1.73l22.27 1.72M634.2 775.72l-16.5-11.3 18.05-8.64" stroke="#333" stroke-width="2" fill="none"/><path d="M819.03 779.02l-.03.97v.4l.02.58-1.12-.1.15-1.93z" stroke="#333" stroke-width=".05" fill="#333"/><path d="M1186.3 889.46L981.8 1039.4" stroke="#333" stroke-width="2" fill="none"/><path d="M1197.57 881.18l-6.04 13.73-8.87-12.08z" stroke="#333" stroke-width="2" fill="#333"/><path d="M982.4 1040.18l-1.44 1.06.04-1.23v-.4l-.03-.78.28-.2z" stroke="#333" stroke-width=".05" fill="#333"/><path d="M642 1040h19.47m19.46 0h38.93m19.46 0h38.93m19.47 0h19.46" stroke="#333" stroke-width="2" fill="none"/><path d="M642.03 1040.97h-1.06l.03-.96v-.4l-.02-.57h1.05z" stroke="#333" stroke-width=".05" fill="#333"/><path d="M799.68 1030l17.32 10-17.32 10" stroke="#333" stroke-width="2" fill="none"/><path d="M690 348a8 8 0 0 1 8-8h64a8 8 0 0 1 8 8v44a8 8 0 0 1-8 8h-64a8 8 0 0 1-8-8z" fill="none"/><g><use xlink:href="#x" transform="matrix(1,0,0,1,690,340) translate(-14.95361328125 36.5478515625)"/></g><path d="M670 648a8 8 0 0 1 8-8h104a8 8 0 0 1 8 8v44a8 8 0 0 1-8 8H678a8 8 0 0 1-8-8z" fill="none"/><g><use xlink:href="#y" transform="matrix(1,0,0,1,670,640) translate(6.75146484375 36.5478515625)"/></g><path d="M670 788a8 8 0 0 1 8-8h104a8 8 0 0 1 8 8v44a8 8 0 0 1-8 8H678a8 8 0 0 1-8-8z" fill="none"/><g><use xlink:href="#y" transform="matrix(1,0,0,1,670,780) translate(6.75146484375 36.5478515625)"/></g><path d="M680 1048a8 8 0 0 1 8-8h64a8 8 0 0 1 8 8v44a8 8 0 0 1-8 8h-64a8 8 0 0 1-8-8z" fill="none"/><g><use xlink:href="#x" transform="matrix(1,0,0,1,680,1040) translate(-14.95361328125 36.5478515625)"/></g><path d="M1080 1010h136l24 24v96h-160z" stroke="#000" stroke-width="2" fill="#fff"/><path d="M1216 1010.95V1034h23.05" stroke="#000" stroke-width="2" fill="#fff"/><g><use xlink:href="#z" transform="matrix(1,0,0,1,1092,1024.4) translate(18.81201171875 41.4802734375)"/><use xlink:href="#A" transform="matrix(1,0,0,1,1092,1024.4) translate(95.67236328125 41.4802734375)"/><use xlink:href="#B" transform="matrix(1,0,0,1,1092,1024.4) translate(15.03271484375 67.6154296875)"/><use xlink:href="#C" transform="matrix(1,0,0,1,1092,1024.4) translate(55.44482421875 67.6154296875)"/></g><path d="M112.84 636.18l1.84 1.58 3.47 3.25 3.42 3.48 3.38 3.73 3.34 4.03 3.3 4.35 3.32 4.74 3.3 5.18 3.32 5.7 3.33 6.35 3.37 7.1 3.4 8.07 3.47 9.26 3.57 10.87 3.68 13.1 3.9 16.52 4.38 22.78 6.8 46.58 10.17 73.8 3.8 19.82 3.27 13.82 3 10.65 2.82 8.62 2.68 7.2 2.6 6.15 1.96 4.17 2.55 4.98 2.66 4.7 2.78 4.45 2.9 4.24 3.03 4.04 3.16 3.87 3.3 3.72 3.47 3.6 3.64 3.46 3.83 3.35 4.06 3.26 4.3 3.18 4.6 3.1 4.9 3 5.3 2.97 5.74 2.88 6.24 2.83 6.87 2.78 7.6 2.7 8.53 2.64 9.67 2.55 11.16 2.45 13.2 2.3 16.1 2.15 20.83 1.87 30.7 1.45 79.14.4" stroke="#333" stroke-width="2" stroke-linejoin="round" fill="none"/><path d="M101.6 627.86l14.9 1.7-8.92 12.06z" stroke="#333" stroke-width="2" fill="#333"/><path d="M479.03 1039.03l-.03.96v.4l.02.57h-1.05v-1.95z" stroke="#333" stroke-width=".05" fill="#333"/><path d="M160 1040h136l24 24v96H160z" stroke="#000" stroke-width="2" fill="#fff"/><path d="M296 1040.95V1064h23.05" stroke="#000" stroke-width="2" fill="#fff"/><g><use xlink:href="#z" transform="matrix(1,0,0,1,172,1054.4) translate(18.81201171875 41.4802734375)"/><use xlink:href="#A" transform="matrix(1,0,0,1,172,1054.4) translate(95.67236328125 41.4802734375)"/><use xlink:href="#B" transform="matrix(1,0,0,1,172,1054.4) translate(15.03271484375 67.6154296875)"/><use xlink:href="#C" transform="matrix(1,0,0,1,172,1054.4) translate(55.44482421875 67.6154296875)"/></g><path d="M120 310h136l24 24v96H120z" stroke="#000" stroke-width="2" fill="#fff"/><path d="M256 310.95V334h23.05" stroke="#000" stroke-width="2" fill="#fff"/><g><use xlink:href="#z" transform="matrix(1,0,0,1,132,324.4) translate(18.81201171875 41.4802734375)"/><use xlink:href="#A" transform="matrix(1,0,0,1,132,324.4) translate(95.67236328125 41.4802734375)"/><use xlink:href="#B" transform="matrix(1,0,0,1,132,324.4) translate(26.357421875 67.6154296875)"/><use xlink:href="#D" transform="matrix(1,0,0,1,132,324.4) translate(66.76953125 67.6154296875)"/></g><defs><path d="M657 26c-323 0-524-166-541-416h195c15 169 171 246 346 246 202 0 356-106 356-265 5-203-294-238-475-293-239-73-380-191-380-389 0-252 224-419 512-419 294 0 499 171 508 396H992c-17-145-151-228-328-228-193 0-321 102-321 242 0 156 175 211 284 241l149 41c160 44 422 134 422 412 0 244-197 432-541 432" id="E"/><path d="M158 0v-1118h180V0H158zm91-1301c-68 0-125-53-125-119s57-119 125-119c69 0 126 53 126 119s-57 119-126 119" id="F"/><path d="M538 24C308 24 148-78 108-271l171-41c32 123 123 178 257 178 156 0 256-77 256-169 0-77-54-128-164-154l-186-44c-203-48-300-148-300-305 0-192 176-326 414-326 230 0 351 112 402 269l-163 42c-31-80-94-158-238-158-133 0-233 69-233 162 0 83 57 129 188 160l169 40c203 48 298 149 298 302 0 196-179 339-441 339" id="G"/><path d="M598-1118v154H368v674c0 100 37 144 132 144 23 0 62-6 92-12L629-6c-37 13-88 20-134 20-193 0-307-107-307-290v-688H20v-154h168v-266h180v266h230" id="H"/><path d="M628 24c-324 0-524-230-524-574 0-343 198-582 503-582 237 0 487 146 487 559v75H286c9 234 145 362 343 362 132 0 231-58 273-172l174 48C1024-91 857 24 628 24zM287-650h624c-17-190-120-322-304-322-192 0-309 151-320 322" id="I"/><path d="M158 0v-1118h175l1 205c55-151 181-225 313-225 147 0 245 90 285 228 53-141 190-228 352-228 194 0 352 125 352 384V0h-181v-749c0-161-105-225-225-225-151 0-243 103-243 244V0H807v-767c0-124-93-207-219-207-131 0-250 92-250 270V0H158" id="J"/><path d="M471 26C259 26 90-98 90-318c0-256 228-303 435-329 202-27 287-16 287-108 0-139-79-219-234-219-161 0-248 86-283 164l-173-57c86-203 278-265 451-265 150 0 419 46 419 395V0H815v-152h-12C765-73 660 26 471 26zm31-159c199 0 310-134 310-271v-155c-30 35-226 55-295 64-131 17-246 59-246 186 0 116 97 176 231 176" id="K"/><g id="a"><use transform="matrix(0.0087890625,0,0,0.0087890625,0,0)" xlink:href="#E"/><use transform="matrix(0.0087890625,0,0,0.0087890625,11.548828125,0)" xlink:href="#F"/><use transform="matrix(0.0087890625,0,0,0.0087890625,15.908203125,0)" xlink:href="#G"/><use transform="matrix(0.0087890625,0,0,0.0087890625,25.4091796875,0)" xlink:href="#H"/><use transform="matrix(0.0087890625,0,0,0.0087890625,31.1220703125,0)" xlink:href="#I"/><use transform="matrix(0.0087890625,0,0,0.0087890625,41.6162109375,0)" xlink:href="#J"/><use transform="matrix(0.0087890625,0,0,0.0087890625,57.3837890625,0)" xlink:href="#K"/></g><path d="M577 24c-279 0-473-224-473-580 0-354 195-576 474-576 218 0 287 134 324 193h14v-551h180V0H922v-173h-20C865-111 790 24 577 24zm27-161c203 0 314-172 314-421 0-247-108-413-314-413-212 0-317 181-317 413 0 235 108 421 317 421" id="L"/><g id="b"><use transform="matrix(0.0087890625,0,0,0.0087890625,0,0)" xlink:href="#L"/><use transform="matrix(0.0087890625,0,0,0.0087890625,11.021484375,0)" xlink:href="#I"/></g><path d="M180 0v-1490h270l367 940c28 72 75 218 110 339 35-117 81-264 110-339l362-940h271V0h-187c2-448-5-837 7-1287-157 497-311 829-483 1287H842C666-458 514-784 354-1284c12 438 5 843 7 1284H180" id="M"/><path d="M613 24c-304 0-509-231-509-576 0-350 205-580 509-580 305 0 511 230 511 580 0 345-206 576-511 576zm0-161c226 0 329-195 329-415 0-222-103-419-329-419-223 0-326 196-326 419 0 220 103 415 326 415" id="N"/><path d="M338-670V0H158v-1118h173l1 207c72-158 192-221 342-221 226 0 378 139 378 422V0H872v-695c0-172-96-275-252-275-161 0-282 109-282 300" id="O"/><path d="M158 0v-1118h174v172h12c41-113 157-188 290-188 26 0 70 2 91 3v181c-11-2-60-10-108-10-161 0-279 109-279 260V0H158" id="P"/><g id="c"><use transform="matrix(0.0087890625,0,0,0.0087890625,0,0)" xlink:href="#M"/><use transform="matrix(0.0087890625,0,0,0.0087890625,16.259765625,0)" xlink:href="#N"/><use transform="matrix(0.0087890625,0,0,0.0087890625,27.052734375,0)" xlink:href="#O"/><use transform="matrix(0.0087890625,0,0,0.0087890625,37.6875,0)" xlink:href="#F"/><use transform="matrix(0.0087890625,0,0,0.0087890625,42.046875,0)" xlink:href="#H"/><use transform="matrix(0.0087890625,0,0,0.0087890625,47.759765625,0)" xlink:href="#N"/><use transform="matrix(0.0087890625,0,0,0.0087890625,58.552734375,0)" xlink:href="#P"/><use transform="matrix(0.0087890625,0,0,0.0087890625,65.3291015625,0)" xlink:href="#K"/><use transform="matrix(0.0087890625,0,0,0.0087890625,75.4365234375,0)" xlink:href="#J"/><use transform="matrix(0.0087890625,0,0,0.0087890625,91.2041015625,0)" xlink:href="#I"/><use transform="matrix(0.0087890625,0,0,0.0087890625,101.6982421875,0)" xlink:href="#O"/><use transform="matrix(0.0087890625,0,0,0.0087890625,112.3330078125,0)" xlink:href="#H"/><use transform="matrix(0.0087890625,0,0,0.0087890625,118.0458984375,0)" xlink:href="#N"/></g><path d="M370-1490V0H180v-1490h190" id="Q"/><g id="d"><use transform="matrix(0.0087890625,0,0,0.0087890625,0,0)" xlink:href="#Q"/><use transform="matrix(0.0087890625,0,0,0.0087890625,4.833984375,0)" xlink:href="#L"/><use transform="matrix(0.0087890625,0,0,0.0087890625,15.85546875,0)" xlink:href="#N"/><use transform="matrix(0.0087890625,0,0,0.0087890625,26.6484375,0)" xlink:href="#G"/><use transform="matrix(0.0087890625,0,0,0.0087890625,36.1494140625,0)" xlink:href="#N"/><use transform="matrix(0.0087890625,0,0,0.0087890625,46.9423828125,0)" xlink:href="#G"/></g><path d="M783 20c-382 0-661-292-661-764 0-473 279-766 661-766 302 0 548 182 601 489h-190c-42-204-217-313-411-313-268 0-476 208-476 590 0 381 209 588 476 588 195 0 369-110 411-313h190c-52 303-296 489-601 489" id="R"/><path d="M537 14c-226 0-379-139-379-422v-710h180v695c0 172 97 275 253 275 160 0 281-109 281-300v-670h181V0H879v-209C806-46 684 14 537 14" id="S"/><g id="e"><use transform="matrix(0.0087890625,0,0,0.0087890625,0,0)" xlink:href="#R"/><use transform="matrix(0.0087890625,0,0,0.0087890625,13.1484375,0)" xlink:href="#S"/><use transform="matrix(0.0087890625,0,0,0.0087890625,23.7919921875,0)" xlink:href="#F"/><use transform="matrix(0.0087890625,0,0,0.0087890625,28.1513671875,0)" xlink:href="#L"/><use transform="matrix(0.0087890625,0,0,0.0087890625,39.1728515625,0)" xlink:href="#K"/><use transform="matrix(0.0087890625,0,0,0.0087890625,49.2802734375,0)" xlink:href="#L"/><use transform="matrix(0.0087890625,0,0,0.0087890625,60.3017578125,0)" xlink:href="#N"/><use transform="matrix(0.0087890625,0,0,0.0087890625,71.0947265625,0)" xlink:href="#P"/></g><g id="f"><use transform="matrix(0.008173828125000001,0,0,0.008173828125000001,0,0)" xlink:href="#R"/><use transform="matrix(0.008173828125000001,0,0,0.008173828125000001,12.228046875000002,0)" xlink:href="#K"/><use transform="matrix(0.008173828125000001,0,0,0.008173828125000001,21.627949218750004,0)" xlink:href="#L"/><use transform="matrix(0.008173828125000001,0,0,0.008173828125000001,31.877929687500007,0)" xlink:href="#K"/><use transform="matrix(0.008173828125000001,0,0,0.008173828125000001,41.27783203125001,0)" xlink:href="#G"/><use transform="matrix(0.008173828125000001,0,0,0.008173828125000001,50.11374023437501,0)" xlink:href="#H"/><use transform="matrix(0.008173828125000001,0,0,0.008173828125000001,55.59020507812501,0)" xlink:href="#P"/><use transform="matrix(0.008173828125000001,0,0,0.008173828125000001,61.892226562500014,0)" xlink:href="#K"/><use transform="matrix(0.008173828125000001,0,0,0.008173828125000001,71.29212890625001,0)" xlink:href="#P"/></g><g id="g"><use transform="matrix(0.008173828125000001,0,0,0.008173828125000001,0,0)" xlink:href="#R"/><use transform="matrix(0.008173828125000001,0,0,0.008173828125000001,12.228046875000002,0)" xlink:href="#S"/><use transform="matrix(0.008173828125000001,0,0,0.008173828125000001,22.126552734375004,0)" xlink:href="#F"/><use transform="matrix(0.008173828125000001,0,0,0.008173828125000001,26.180771484375004,0)" xlink:href="#L"/><use transform="matrix(0.008173828125000001,0,0,0.008173828125000001,36.430751953125004,0)" xlink:href="#K"/><use transform="matrix(0.008173828125000001,0,0,0.008173828125000001,45.830654296875004,0)" xlink:href="#L"/><use transform="matrix(0.008173828125000001,0,0,0.008173828125000001,56.08063476562501,0)" xlink:href="#N"/><use transform="matrix(0.008173828125000001,0,0,0.008173828125000001,66.11809570312501,0)" xlink:href="#P"/></g><path d="M180 0v-1490h510c348 0 508 209 508 474 0 266-160 477-507 477H370V0H180zm190-706h312c236 0 327-133 327-310 0-176-91-307-329-307H370v617" id="T"/><g id="h"><use transform="matrix(0.0087890625,0,0,0.0087890625,0,0)" xlink:href="#T"/><use transform="matrix(0.0087890625,0,0,0.0087890625,11.3994140625,0)" xlink:href="#I"/><use transform="matrix(0.0087890625,0,0,0.0087890625,21.8935546875,0)" xlink:href="#G"/><use transform="matrix(0.0087890625,0,0,0.0087890625,31.39453125,0)" xlink:href="#G"/><use transform="matrix(0.0087890625,0,0,0.0087890625,40.8955078125,0)" xlink:href="#N"/><use transform="matrix(0.0087890625,0,0,0.0087890625,51.8642578125,0)" xlink:href="#K"/></g><g id="i"><use transform="matrix(0.0087890625,0,0,0.0087890625,0,0)" xlink:href="#M"/><use transform="matrix(0.0087890625,0,0,0.0087890625,16.259765625,0)" xlink:href="#N"/><use transform="matrix(0.0087890625,0,0,0.0087890625,27.052734375,0)" xlink:href="#O"/><use transform="matrix(0.0087890625,0,0,0.0087890625,37.6875,0)" xlink:href="#F"/><use transform="matrix(0.0087890625,0,0,0.0087890625,42.046875,0)" xlink:href="#H"/><use transform="matrix(0.0087890625,0,0,0.0087890625,47.759765625,0)" xlink:href="#N"/><use transform="matrix(0.0087890625,0,0,0.0087890625,58.552734375,0)" xlink:href="#P"/><use transform="matrix(0.0087890625,0,0,0.0087890625,65.3291015625,0)" xlink:href="#K"/><use transform="matrix(0.0087890625,0,0,0.0087890625,75.4365234375,0)" xlink:href="#L"/><use transform="matrix(0.0087890625,0,0,0.0087890625,86.4580078125,0)" xlink:href="#K"/></g><path d="M180 0v-1490h901v168H370v510h643v168H370V0H180" id="U"/><path d="M126 0v-134l627-806v-11H146v-167h839v143L376-178v11h629V0H126" id="V"/><g id="j"><use transform="matrix(0.008173828125000001,0,0,0.008173828125000001,0,0)" xlink:href="#U"/><use transform="matrix(0.008173828125000001,0,0,0.008173828125000001,9.473466796875002,0)" xlink:href="#K"/><use transform="matrix(0.008173828125000001,0,0,0.008173828125000001,18.873369140625,0)" xlink:href="#V"/><use transform="matrix(0.008173828125000001,0,0,0.008173828125000001,27.872753906250004,0)" xlink:href="#I"/><use transform="matrix(0.008173828125000001,0,0,0.008173828125000001,37.6323046875,0)" xlink:href="#P"/></g><path d="M180 0v-1490h190v1322h690V0H180" id="W"/><path d="M611 442c-248 0-391-105-460-228l146-94c47 65 117 165 314 165 178 0 307-82 307-266v-224h-17C863-141 792-18 576-18c-268 0-472-195-472-546 0-346 197-568 476-568 216 0 288 133 326 193h17v-179h175V29c0 289-215 413-487 413zm-5-620c203 0 314-146 314-390 0-237-108-403-314-403-213 0-319 180-319 403 0 230 109 390 319 390" id="X"/><g id="k"><use transform="matrix(0.008173828125000001,0,0,0.008173828125000001,0,0)" xlink:href="#W"/><use transform="matrix(0.008173828125000001,0,0,0.008173828125000001,9.465292968750001,0)" xlink:href="#N"/><use transform="matrix(0.008173828125000001,0,0,0.008173828125000001,19.50275390625,0)" xlink:href="#X"/><use transform="matrix(0.008173828125000001,0,0,0.008173828125000001,29.76908203125,0)" xlink:href="#F"/><use transform="matrix(0.008173828125000001,0,0,0.008173828125000001,33.82330078125,0)" xlink:href="#O"/></g><path d="M52 0l541-1490h220L1361 0h-200l-149-416H398L254 0H52zm404-582h497c-103-290-145-390-251-756-108 377-145 460-246 756" id="Y"/><path d="M613 24c-304 0-509-231-509-576 0-350 205-580 509-580 216 0 392 114 453 309l-173 49c-33-115-133-197-280-197-223 0-326 196-326 419 0 220 103 415 326 415 150 0 252-85 285-206l172 49C1010-95 832 24 613 24" id="Z"/><g id="l"><use transform="matrix(0.008173828125000001,0,0,0.008173828125000001,0,0)" xlink:href="#Y"/><use transform="matrix(0.008173828125000001,0,0,0.008173828125000001,11.549619140625001,0)" xlink:href="#S"/><use transform="matrix(0.008173828125000001,0,0,0.008173828125000001,21.448125000000005,0)" xlink:href="#H"/><use transform="matrix(0.008173828125000001,0,0,0.008173828125000001,26.761113281250005,0)" xlink:href="#I"/><use transform="matrix(0.008173828125000001,0,0,0.008173828125000001,36.5206640625,0)" xlink:href="#O"/><use transform="matrix(0.008173828125000001,0,0,0.008173828125000001,46.41099609375,0)" xlink:href="#H"/><use transform="matrix(0.008173828125000001,0,0,0.008173828125000001,51.8874609375,0)" xlink:href="#F"/><use transform="matrix(0.008173828125000001,0,0,0.008173828125000001,55.9416796875,0)" xlink:href="#Z"/><use transform="matrix(0.008173828125000001,0,0,0.008173828125000001,65.66853515625,0)" xlink:href="#K"/><use transform="matrix(0.008173828125000001,0,0,0.008173828125000001,75.06843750000002,0)" xlink:href="#P"/></g><g id="m"><use transform="matrix(0.008173828125000001,0,0,0.008173828125000001,0,0)" xlink:href="#T"/><use transform="matrix(0.008173828125000001,0,0,0.008173828125000001,10.601455078125001,0)" xlink:href="#I"/><use transform="matrix(0.008173828125000001,0,0,0.008173828125000001,20.361005859375002,0)" xlink:href="#G"/><use transform="matrix(0.008173828125000001,0,0,0.008173828125000001,29.196914062500003,0)" xlink:href="#G"/><use transform="matrix(0.008173828125000001,0,0,0.008173828125000001,38.032822265625,0)" xlink:href="#N"/><use transform="matrix(0.008173828125000001,0,0,0.008173828125000001,48.233759765625,0)" xlink:href="#K"/></g><g id="n"><use transform="matrix(0.008173828125000001,0,0,0.008173828125000001,0,0)" xlink:href="#M"/><use transform="matrix(0.008173828125000001,0,0,0.008173828125000001,15.121582031250002,0)" xlink:href="#N"/><use transform="matrix(0.008173828125000001,0,0,0.008173828125000001,25.15904296875,0)" xlink:href="#O"/><use transform="matrix(0.008173828125000001,0,0,0.008173828125000001,35.049375,0)" xlink:href="#F"/><use transform="matrix(0.008173828125000001,0,0,0.008173828125000001,39.10359375,0)" xlink:href="#H"/><use transform="matrix(0.008173828125000001,0,0,0.008173828125000001,44.41658203125001,0)" xlink:href="#N"/><use transform="matrix(0.008173828125000001,0,0,0.008173828125000001,54.45404296875,0)" xlink:href="#P"/><use transform="matrix(0.008173828125000001,0,0,0.008173828125000001,60.756064453125006,0)" xlink:href="#K"/><use transform="matrix(0.008173828125000001,0,0,0.008173828125000001,70.155966796875,0)" xlink:href="#L"/><use transform="matrix(0.008173828125000001,0,0,0.008173828125000001,80.40594726562502,0)" xlink:href="#K"/></g><path d="M600 0L52-1490h200c166 485 304 806 458 1336 156-533 285-846 449-1336h202L819 0H600" id="aa"/><path d="M338-1490V0H158v-1490h180" id="ab"/><g id="o"><use transform="matrix(0.008173828125000001,0,0,0.008173828125000001,0,0)" xlink:href="#aa"/><use transform="matrix(0.008173828125000001,0,0,0.008173828125000001,11.549619140625001,0)" xlink:href="#F"/><use transform="matrix(0.008173828125000001,0,0,0.008173828125000001,15.603837890625002,0)" xlink:href="#G"/><use transform="matrix(0.008173828125000001,0,0,0.008173828125000001,24.439746093750003,0)" xlink:href="#S"/><use transform="matrix(0.008173828125000001,0,0,0.008173828125000001,34.338251953125,0)" xlink:href="#K"/><use transform="matrix(0.008173828125000001,0,0,0.008173828125000001,43.738154296875,0)" xlink:href="#ab"/><use transform="matrix(0.008173828125000001,0,0,0.008173828125000001,47.792373046875,0)" xlink:href="#F"/><use transform="matrix(0.008173828125000001,0,0,0.008173828125000001,51.846591796875,0)" xlink:href="#V"/><use transform="matrix(0.008173828125000001,0,0,0.008173828125000001,61.091191406250005,0)" xlink:href="#K"/><use transform="matrix(0.008173828125000001,0,0,0.008173828125000001,70.49109375,0)" xlink:href="#P"/></g><path d="M180 0v-1490h908v168H370v486h669v168H370v500h727V0H180" id="ac"/><g id="p"><use transform="matrix(0.008173828125000001,0,0,0.008173828125000001,0,0)" xlink:href="#ac"/><use transform="matrix(0.008173828125000001,0,0,0.008173828125000001,10.061982421875001,0)" xlink:href="#L"/><use transform="matrix(0.008173828125000001,0,0,0.008173828125000001,20.311962890625,0)" xlink:href="#F"/><use transform="matrix(0.008173828125000001,0,0,0.008173828125000001,24.366181640625,0)" xlink:href="#H"/><use transform="matrix(0.008173828125000001,0,0,0.008173828125000001,29.924384765625007,0)" xlink:href="#K"/><use transform="matrix(0.008173828125000001,0,0,0.008173828125000001,39.32428710937501,0)" xlink:href="#P"/></g><path d="M65 0l393-574-370-544h210c88 136 192 297 267 435 67-142 176-302 264-435h206L661-564 1053 0H844c-94-144-206-310-287-458C484-308 366-142 273 0H65" id="ad"/><g id="q"><use transform="matrix(0.008173828125000001,0,0,0.008173828125000001,0,0)" xlink:href="#ac"/><use transform="matrix(0.008173828125000001,0,0,0.008173828125000001,10.061982421875001,0)" xlink:href="#ad"/><use transform="matrix(0.008173828125000001,0,0,0.008173828125000001,18.824326171875,0)" xlink:href="#Z"/><use transform="matrix(0.008173828125000001,0,0,0.008173828125000001,28.387705078125002,0)" xlink:href="#ab"/><use transform="matrix(0.008173828125000001,0,0,0.008173828125000001,32.441923828125,0)" xlink:href="#S"/><use transform="matrix(0.008173828125000001,0,0,0.008173828125000001,42.3404296875,0)" xlink:href="#F"/><use transform="matrix(0.008173828125000001,0,0,0.008173828125000001,46.394648437499995,0)" xlink:href="#P"/></g><g id="r"><use transform="matrix(0.008173828125000001,0,0,0.008173828125000001,0,0)" xlink:href="#W"/><use transform="matrix(0.008173828125000001,0,0,0.008173828125000001,9.465292968750001,0)" xlink:href="#F"/><use transform="matrix(0.008173828125000001,0,0,0.008173828125000001,13.519511718750001,0)" xlink:href="#G"/><use transform="matrix(0.008173828125000001,0,0,0.008173828125000001,22.355419921875004,0)" xlink:href="#H"/><use transform="matrix(0.008173828125000001,0,0,0.008173828125000001,27.913623046875006,0)" xlink:href="#K"/><use transform="matrix(0.008173828125000001,0,0,0.008173828125000001,37.31352539062501,0)" xlink:href="#P"/></g><g id="s"><use transform="matrix(0.008173828125000001,0,0,0.008173828125000001,0,0)" xlink:href="#M"/><use transform="matrix(0.008173828125000001,0,0,0.008173828125000001,15.121582031250002,0)" xlink:href="#N"/><use transform="matrix(0.008173828125000001,0,0,0.008173828125000001,25.15904296875,0)" xlink:href="#O"/><use transform="matrix(0.008173828125000001,0,0,0.008173828125000001,35.049375,0)" xlink:href="#F"/><use transform="matrix(0.008173828125000001,0,0,0.008173828125000001,39.10359375,0)" xlink:href="#H"/><use transform="matrix(0.008173828125000001,0,0,0.008173828125000001,44.41658203125001,0)" xlink:href="#N"/><use transform="matrix(0.008173828125000001,0,0,0.008173828125000001,54.45404296875,0)" xlink:href="#P"/><use transform="matrix(0.008173828125000001,0,0,0.008173828125000001,60.756064453125006,0)" xlink:href="#K"/><use transform="matrix(0.008173828125000001,0,0,0.008173828125000001,70.155966796875,0)" xlink:href="#L"/><use transform="matrix(0.008173828125000001,0,0,0.008173828125000001,80.40594726562502,0)" xlink:href="#K"/><use transform="matrix(0.008173828125000001,0,0,0.008173828125000001,89.805849609375,0)" xlink:href="#G"/></g><path d="M180 0v-1490h510c348 0 508 194 508 460 0 198-88 351-276 417L1256 0h-220L726-579c-117 2-238 0-356 1V0H180zm190-747h312c235 0 327-108 327-283 0-177-92-293-329-293H370v576" id="ae"/><path d="M677 24c-213 0-288-135-325-197h-20V0H158v-1490h180v551h14c37-59 106-193 324-193 279 0 474 222 474 576 0 356-194 580-473 580zm-27-161c209 0 317-186 317-421 0-232-105-413-317-413-206 0-314 166-314 413 0 249 111 421 314 421" id="af"/><g id="t"><use transform="matrix(0.008173828125000001,0,0,0.008173828125000001,0,0)" xlink:href="#ae"/><use transform="matrix(0.008173828125000001,0,0,0.008173828125000001,10.527890625000001,0)" xlink:href="#I"/><use transform="matrix(0.008173828125000001,0,0,0.008173828125000001,20.287441406250004,0)" xlink:href="#Z"/><use transform="matrix(0.008173828125000001,0,0,0.008173828125000001,29.850820312500005,0)" xlink:href="#I"/><use transform="matrix(0.008173828125000001,0,0,0.008173828125000001,39.610371093750004,0)" xlink:href="#af"/><use transform="matrix(0.008173828125000001,0,0,0.008173828125000001,49.86035156250001,0)" xlink:href="#I"/><use transform="matrix(0.008173828125000001,0,0,0.008173828125000001,59.619902343750006,0)" xlink:href="#P"/></g><g id="u"><use transform="matrix(0.008173828125000001,0,0,0.008173828125000001,0,0)" xlink:href="#Y"/><use transform="matrix(0.008173828125000001,0,0,0.008173828125000001,11.549619140625001,0)" xlink:href="#ab"/><use transform="matrix(0.008173828125000001,0,0,0.008173828125000001,15.603837890625002,0)" xlink:href="#I"/><use transform="matrix(0.008173828125000001,0,0,0.008173828125000001,25.363388671875,0)" xlink:href="#P"/><use transform="matrix(0.008173828125000001,0,0,0.008173828125000001,31.92697265625,0)" xlink:href="#H"/><use transform="matrix(0.008173828125000001,0,0,0.008173828125000001,37.48517578125,0)" xlink:href="#K"/></g><path d="M481 0L54-1118h197c107 314 236 620 325 951 87-331 217-637 324-951h197L670 0H481" id="ag"/><g id="v"><use transform="matrix(0.008173828125000001,0,0,0.008173828125000001,0,0)" xlink:href="#ac"/><use transform="matrix(0.008173828125000001,0,0,0.008173828125000001,10.061982421875001,0)" xlink:href="#O"/><use transform="matrix(0.008173828125000001,0,0,0.008173828125000001,19.707099609375,0)" xlink:href="#ag"/><use transform="matrix(0.008173828125000001,0,0,0.008173828125000001,29.115175781250002,0)" xlink:href="#F"/><use transform="matrix(0.008173828125000001,0,0,0.008173828125000001,33.169394531250006,0)" xlink:href="#K"/><use transform="matrix(0.008173828125000001,0,0,0.008173828125000001,42.569296875000006,0)" xlink:href="#P"/></g><path d="M678-1118v154H420V0H240v-964H20v-154h220v-149c0-194 155-293 318-293 85 0 141 18 168 30l-50 154c-19-6-47-17-97-17-111 0-159 58-159 166v109h258" id="ah"/><path d="M502 418V313h118c73 0 98-17 98-66s-25-65-98-65h-82l21-161C285-4 104-228 104-552c0-350 205-580 509-580 216 0 392 114 453 309l-173 49c-33-115-133-197-280-197-223 0-326 196-326 419 0 220 103 415 326 415 150 0 252-85 285-206l172 49C1015-110 859 5 663 22v64c130 5 189 54 189 162 0 118-71 170-231 170H502" id="ai"/><path d="M613 24c-304 0-509-231-509-576 0-350 205-580 509-580 305 0 511 230 511 580 0 345-206 576-511 576zm0-161c226 0 329-195 329-415 0-222-103-419-329-419-223 0-326 196-326 419 0 220 103 415 326 415zm131-1176c-99 0-192-83-243-83-35 0-51 40-53 79H322c4-120 55-208 162-208 104 0 174 85 241 85 33 0 49-23 56-81h123c-4 126-62 208-160 208" id="aj"/><g id="w"><use transform="matrix(0.008173828125000001,0,0,0.008173828125000001,0,0)" xlink:href="#Q"/><use transform="matrix(0.008173828125000001,0,0,0.008173828125000001,4.495605468750001,0)" xlink:href="#O"/><use transform="matrix(0.008173828125000001,0,0,0.008173828125000001,14.3859375,0)" xlink:href="#ah"/><use transform="matrix(0.008173828125000001,0,0,0.008173828125000001,20.09126953125,0)" xlink:href="#N"/><use transform="matrix(0.008173828125000001,0,0,0.008173828125000001,30.12873046875,0)" xlink:href="#P"/><use transform="matrix(0.008173828125000001,0,0,0.008173828125000001,36.692314453125,0)" xlink:href="#J"/><use transform="matrix(0.008173828125000001,0,0,0.008173828125000001,51.356162109375006,0)" xlink:href="#K"/><use transform="matrix(0.008173828125000001,0,0,0.008173828125000001,60.756064453125006,0)" xlink:href="#ai"/><use transform="matrix(0.008173828125000001,0,0,0.008173828125000001,70.31944335937501,0)" xlink:href="#aj"/><use transform="matrix(0.008173828125000001,0,0,0.008173828125000001,80.35690429687502,0)" xlink:href="#I"/><use transform="matrix(0.008173828125000001,0,0,0.008173828125000001,90.11645507812501,0)" xlink:href="#G"/></g><path d="M174-520v-126l944-476v196L406-588v12l712 338v194" id="ak"/><path d="M1181-520L237-44v-194l712-338v-12L237-926v-196l944 476v126" id="al"/><g id="x"><use transform="matrix(0.0087890625,0,0,0.0087890625,0,0)" xlink:href="#ak"/><use transform="matrix(0.0087890625,0,0,0.0087890625,11.9091796875,0)" xlink:href="#ak"/><use transform="matrix(0.0087890625,0,0,0.0087890625,23.818359375,0)" xlink:href="#Q"/><use transform="matrix(0.0087890625,0,0,0.0087890625,28.65234375,0)" xlink:href="#O"/><use transform="matrix(0.0087890625,0,0,0.0087890625,39.287109375,0)" xlink:href="#Z"/><use transform="matrix(0.0087890625,0,0,0.0087890625,49.5703125,0)" xlink:href="#ab"/><use transform="matrix(0.0087890625,0,0,0.0087890625,53.9296875,0)" xlink:href="#S"/><use transform="matrix(0.0087890625,0,0,0.0087890625,64.5732421875,0)" xlink:href="#L"/><use transform="matrix(0.0087890625,0,0,0.0087890625,75.5947265625,0)" xlink:href="#I"/><use transform="matrix(0.0087890625,0,0,0.0087890625,86.0888671875,0)" xlink:href="#al"/><use transform="matrix(0.0087890625,0,0,0.0087890625,97.998046875,0)" xlink:href="#al"/></g><g id="y"><use transform="matrix(0.0087890625,0,0,0.0087890625,0,0)" xlink:href="#ak"/><use transform="matrix(0.0087890625,0,0,0.0087890625,11.9091796875,0)" xlink:href="#ak"/><use transform="matrix(0.0087890625,0,0,0.0087890625,23.818359375,0)" xlink:href="#ac"/><use transform="matrix(0.0087890625,0,0,0.0087890625,34.6376953125,0)" xlink:href="#ad"/><use transform="matrix(0.0087890625,0,0,0.0087890625,44.8154296875,0)" xlink:href="#H"/><use transform="matrix(0.0087890625,0,0,0.0087890625,50.5283203125,0)" xlink:href="#I"/><use transform="matrix(0.0087890625,0,0,0.0087890625,61.0224609375,0)" xlink:href="#O"/><use transform="matrix(0.0087890625,0,0,0.0087890625,71.6572265625,0)" xlink:href="#L"/><use transform="matrix(0.0087890625,0,0,0.0087890625,82.6787109375,0)" xlink:href="#al"/><use transform="matrix(0.0087890625,0,0,0.0087890625,94.587890625,0)" xlink:href="#al"/></g><path d="M180 0v-1490h224l606 953c40 63 108 177 176 312-27-437-7-821-13-1265h190V0h-226C860-448 622-778 356-1262c27 476 11 792 15 1262H180" id="am"/><path d="M471 26C259 26 90-98 90-318c0-256 228-303 435-329 202-27 287-16 287-108 0-139-79-219-234-219-161 0-248 86-283 164l-173-57c86-203 278-265 451-265 150 0 419 46 419 395V0H815v-152h-12C765-73 660 26 471 26zm31-159c199 0 310-134 310-271v-155c-30 35-226 55-295 64-131 17-246 59-246 186 0 116 97 176 231 176zm187-1180c-99 0-192-83-243-83-35 0-51 40-53 79H267c4-120 55-208 162-208 104 0 174 85 241 85 33 0 49-23 56-81h123c-4 126-62 208-160 208" id="an"/><g id="z"><use transform="matrix(0.0087890625,0,0,0.0087890625,0,0)" xlink:href="#am"/><use transform="matrix(0.0087890625,0,0,0.0087890625,13.5615234375,0)" xlink:href="#N"/><use transform="matrix(0.0087890625,0,0,0.0087890625,24.3544921875,0)" xlink:href="#H"/><use transform="matrix(0.0087890625,0,0,0.0087890625,30.3310546875,0)" xlink:href="#K"/><use transform="matrix(0.0087890625,0,0,0.0087890625,40.4384765625,0)" xlink:href="#ai"/><use transform="matrix(0.0087890625,0,0,0.0087890625,50.8974609375,0)" xlink:href="#an"/><use transform="matrix(0.0087890625,0,0,0.0087890625,61.0048828125,0)" xlink:href="#N"/></g><g id="A"><use transform="matrix(0.0087890625,0,0,0.0087890625,0,0)" xlink:href="#L"/><use transform="matrix(0.0087890625,0,0,0.0087890625,11.021484375,0)" xlink:href="#I"/></g><g id="B"><use transform="matrix(0.0087890625,0,0,0.0087890625,0,0)" xlink:href="#Y"/><use transform="matrix(0.0087890625,0,0,0.0087890625,12.0673828125,0)" xlink:href="#H"/><use transform="matrix(0.0087890625,0,0,0.0087890625,17.7802734375,0)" xlink:href="#N"/><use transform="matrix(0.0087890625,0,0,0.0087890625,28.5732421875,0)" xlink:href="#P"/></g><g id="C"><use transform="matrix(0.0087890625,0,0,0.0087890625,0,0)" xlink:href="#T"/><use transform="matrix(0.0087890625,0,0,0.0087890625,11.49609375,0)" xlink:href="#K"/><use transform="matrix(0.0087890625,0,0,0.0087890625,21.603515625,0)" xlink:href="#G"/><use transform="matrix(0.0087890625,0,0,0.0087890625,31.1044921875,0)" xlink:href="#G"/><use transform="matrix(0.0087890625,0,0,0.0087890625,40.60546875,0)" xlink:href="#F"/><use transform="matrix(0.0087890625,0,0,0.0087890625,44.96484375,0)" xlink:href="#ag"/><use transform="matrix(0.0087890625,0,0,0.0087890625,54.7294921875,0)" xlink:href="#N"/></g><g id="D"><use transform="matrix(0.0087890625,0,0,0.0087890625,0,0)" xlink:href="#Y"/><use transform="matrix(0.0087890625,0,0,0.0087890625,12.0673828125,0)" xlink:href="#H"/><use transform="matrix(0.0087890625,0,0,0.0087890625,17.9560546875,0)" xlink:href="#F"/><use transform="matrix(0.0087890625,0,0,0.0087890625,22.3154296875,0)" xlink:href="#ag"/><use transform="matrix(0.0087890625,0,0,0.0087890625,32.080078125,0)" xlink:href="#N"/></g></defs></g></svg>