<svg xmlns="http://www.w3.org/2000/svg" xmlns:xlink="http://www.w3.org/1999/xlink" xmlns:lucid="lucid" width="1356" height="1349"><g transform="translate(-219 -340)" lucid:page-tab-id="0_0"><path d="M0 0h2000v2000H0z" fill="#fff"/><path d="M860 466a6 6 0 0 1 6-6h362a6 6 0 0 1 6 6v343a6 6 0 0 1-6 6H866a6 6 0 0 1-6-6z" stroke="#000" stroke-width="2" fill="#e8e2c8"/><path d="M860 535.15h374m-374 183.5h374" stroke="#000" stroke-width="2" fill="none"/><use xlink:href="#a" transform="matrix(1,0,0,1,868,468) translate(100.16514756944444 21.95095486111111)"/><use xlink:href="#b" transform="matrix(1,0,0,1,868,468) translate(94.84288194444444 54.21657986111111)"/><use xlink:href="#c" transform="matrix(1,0,0,1,872,543.1536458333334) translate(0 29.49696180555555)"/><use xlink:href="#d" transform="matrix(1,0,0,1,872,543.1536458333334) translate(26.671006944444443 29.49696180555555)"/><use xlink:href="#e" transform="matrix(1,0,0,1,872,543.1536458333334) translate(80.01302083333333 29.49696180555555)"/><use xlink:href="#c" transform="matrix(1,0,0,1,872,543.1536458333334) translate(0 59.70529513888888)"/><use xlink:href="#f" transform="matrix(1,0,0,1,872,543.1536458333334) translate(26.671006944444443 59.70529513888888)"/><use xlink:href="#e" transform="matrix(1,0,0,1,872,543.1536458333334) translate(106.68402777777779 59.70529513888888)"/><use xlink:href="#c" transform="matrix(1,0,0,1,872,543.1536458333334) translate(0 89.9136284722222)"/><use xlink:href="#g" transform="matrix(1,0,0,1,872,543.1536458333334) translate(26.671006944444443 89.9136284722222)"/><use xlink:href="#e" transform="matrix(1,0,0,1,872,543.1536458333334) translate(200.03255208333337 89.9136284722222)"/><use xlink:href="#c" transform="matrix(1,0,0,1,872,543.1536458333334) translate(0 120.12196180555554)"/><use xlink:href="#h" transform="matrix(1,0,0,1,872,543.1536458333334) translate(26.671006944444443 120.12196180555554)"/><use xlink:href="#i" transform="matrix(1,0,0,1,872,543.1536458333334) translate(0 150.33029513888886)"/><use xlink:href="#j" transform="matrix(1,0,0,1,872,726.6605902777778) translate(0 32.450954861111114)"/><use xlink:href="#k" transform="matrix(1,0,0,1,872,726.6605902777778) translate(20.95269097222222 32.450954861111114)"/><use xlink:href="#l" transform="matrix(1,0,0,1,872,726.6605902777778) translate(188.7912326388889 32.450954861111114)"/><use xlink:href="#m" transform="matrix(1,0,0,1,872,726.6605902777778) translate(0 64.71657986111111)"/><use xlink:href="#n" transform="matrix(1,0,0,1,872,726.6605902777778) translate(20.95269097222222 64.71657986111111)"/><path d="M920 406a6 6 0 0 1 6-6h228a6 6 0 0 1 6 6v48a6 6 0 0 1-6 6H926a6 6 0 0 1-6-6z" fill="none"/><use xlink:href="#o" transform="matrix(1,0,0,1,920,400) translate(86.47677951388889 38.083767361111114)"/><path d="M220 406a6 6 0 0 1 6-6h362a6 6 0 0 1 6 6v428a6 6 0 0 1-6 6H226a6 6 0 0 1-6-6z" stroke="#000" stroke-width="2" fill="#fff7a1"/><path d="M220 442.9h374M220 686.8h374" stroke="#000" stroke-width="2" fill="none"/><use xlink:href="#p" transform="matrix(1,0,0,1,228,408) translate(96.35655381944443 21.58376736111111)"/><use xlink:href="#c" transform="matrix(1,0,0,1,232,450.8880208333333) translate(0 29.28862847222222)"/><use xlink:href="#q" transform="matrix(1,0,0,1,232,450.8880208333333) translate(26.671006944444443 29.28862847222222)"/><use xlink:href="#r" transform="matrix(1,0,0,1,232,450.8880208333333) translate(160.02604166666669 29.28862847222222)"/><use xlink:href="#c" transform="matrix(1,0,0,1,232,450.8880208333333) translate(0 59.49696180555555)"/><use xlink:href="#s" transform="matrix(1,0,0,1,232,450.8880208333333) translate(26.671006944444443 59.49696180555555)"/><use xlink:href="#t" transform="matrix(1,0,0,1,232,450.8880208333333) translate(293.38107638888897 59.49696180555555)"/><use xlink:href="#c" transform="matrix(1,0,0,1,232,450.8880208333333) translate(0 89.70529513888889)"/><use xlink:href="#u" transform="matrix(1,0,0,1,232,450.8880208333333) translate(26.671006944444443 89.70529513888889)"/><use xlink:href="#t" transform="matrix(1,0,0,1,232,450.8880208333333) translate(293.38107638888897 89.70529513888889)"/><use xlink:href="#c" transform="matrix(1,0,0,1,232,450.8880208333333) translate(0 119.91362847222223)"/><use xlink:href="#v" transform="matrix(1,0,0,1,232,450.8880208333333) translate(26.671006944444443 119.91362847222223)"/><use xlink:href="#w" transform="matrix(1,0,0,1,232,450.8880208333333) translate(160.02604166666669 119.91362847222223)"/><use xlink:href="#c" transform="matrix(1,0,0,1,232,450.8880208333333) translate(0 150.12196180555554)"/><use xlink:href="#x" transform="matrix(1,0,0,1,232,450.8880208333333) translate(26.671006944444443 150.12196180555554)"/><use xlink:href="#y" transform="matrix(1,0,0,1,232,450.8880208333333) translate(133.35503472222223 150.12196180555554)"/><use xlink:href="#c" transform="matrix(1,0,0,1,232,450.8880208333333) translate(0 180.33029513888886)"/><use xlink:href="#z" transform="matrix(1,0,0,1,232,450.8880208333333) translate(26.671006944444443 180.33029513888886)"/><use xlink:href="#A" transform="matrix(1,0,0,1,232,450.8880208333333) translate(0 210.53862847222223)"/><use xlink:href="#B" transform="matrix(1,0,0,1,232,694.8116319444445) translate(0 29.60112847222223)"/><use xlink:href="#C" transform="matrix(1,0,0,1,232,694.8116319444445) translate(26.671006944444443 29.60112847222223)"/><use xlink:href="#e" transform="matrix(1,0,0,1,232,694.8116319444445) translate(200.03255208333337 29.60112847222223)"/><use xlink:href="#B" transform="matrix(1,0,0,1,232,694.8116319444445) translate(0 59.809461805555564)"/><use xlink:href="#D" transform="matrix(1,0,0,1,232,694.8116319444445) translate(26.671006944444443 59.809461805555564)"/><use xlink:href="#y" transform="matrix(1,0,0,1,232,694.8116319444445) translate(200.03255208333337 59.809461805555564)"/><use xlink:href="#B" transform="matrix(1,0,0,1,232,694.8116319444445) translate(0 90.01779513888889)"/><use xlink:href="#E" transform="matrix(1,0,0,1,232,694.8116319444445) translate(26.671006944444443 90.01779513888889)"/><use xlink:href="#A" transform="matrix(1,0,0,1,232,694.8116319444445) translate(0 120.22612847222223)"/><path d="M287 346a6 6 0 0 1 6-6h228a6 6 0 0 1 6 6v48a6 6 0 0 1-6 6H293a6 6 0 0 1-6-6z" fill="none"/><use xlink:href="#F" transform="matrix(1,0,0,1,287.00086805555554,340) translate(89.82421875 38.083767361111114)"/><path d="M840.5 619.47v1.95h-80.96v-1.95zm-244.5 1.5v-1.95h98.47V621z" stroke="#5e5e5e" stroke-width=".05" fill="#5e5e5e"/><path d="M596.03 620.98H595V619h1.03z" fill="#5e5e5e"/><path stroke="#5e5e5e" stroke-width=".05" fill="#5e5e5e"/><path d="M855.76 620.44l-14.26 4.64v-9.27z" fill="#5e5e5e"/><path d="M858.92 620.44l-18.4 5.98v-11.95zm-16.45 3.3l10.14-3.3-10.13-3.3z" stroke="#5e5e5e" stroke-width=".05" fill="#5e5e5e"/><use xlink:href="#G" transform="matrix(1,0,0,1,694.4650582218819,606.7774610553274) translate(0 21.52777777777778)"/><path d="M1180 1026a6 6 0 0 1 6-6h362a6 6 0 0 1 6 6v160a6 6 0 0 1-6 6h-362a6 6 0 0 1-6-6z" stroke="#000" stroke-width="2" fill="#ffdda6"/><path d="M1180 1062.9h374m-374 64.38h374" stroke="#000" stroke-width="2" fill="none"/><g><use xlink:href="#H" transform="matrix(1,0,0,1,1188,1028) translate(77.44921875 21.58376736111111)"/></g><g><use xlink:href="#m" transform="matrix(1,0,0,1,1192,1135.2760416666665) translate(0 32.583767361111114)"/><use xlink:href="#I" transform="matrix(1,0,0,1,1192,1135.2760416666665) translate(20.95269097222222 32.583767361111114)"/><use xlink:href="#J" transform="matrix(1,0,0,1,1192,1135.2760416666665) translate(188.7912326388889 32.583767361111114)"/></g><path d="M1367.98 1018h-1.95v-10.5h1.95zm0-21h-1.95v-21h1.95zm0-31.5h-1.95v-21h1.95zm-5.9-48.9l1.08.26 1 .42.94.58.84.7.7.84.58.93.42 1 .25 1.08.08 1.06V934h-1.95v-10.46l-.07-.83-.18-.75-.3-.73-.42-.67-.5-.6-.6-.5-.68-.43-.73-.3-.76-.18-.84-.06h-10.23v-1.96h10.3zm-21.6 1.88h-20.55v-1.96h20.54zm-169.88 0h-4.67v-1.96h4.67zm-14.93 0h-20.54v-1.96h20.54zm-30.8 0h-20.54v-1.96h20.54zm-30.8 0h-20.54v-1.96h20.54zm-46.1-7.02l.07.83.18.75.3.73.42.67.5.6.6.5.68.43.73.3.76.18.84.06h10.23v1.96h-10.3l-1.06-.1-1.06-.24-1-.42-.94-.58-.83-.7-.7-.84-.6-.93-.4-1-.26-1.08-.07-1.06v-8.6h1.95zm261.7 7h-11v-1.94h11zm-261.7-24.07h-1.94v-17.12h1.95zm0-25.68h-1.94v-17.1h1.95zm0-25.66h-1.94v-8.56h1.95z" stroke="#5e5e5e" stroke-width=".05" fill="#5e5e5e"/><path d="M1367.98 1019h-1.95v-1.03h1.95z" fill="#5e5e5e"/><path stroke="#5e5e5e" stroke-width=".05" fill="#5e5e5e"/><path d="M1051.64 833.5h-9.27l4.63-14.26z" fill="#5e5e5e"/><path d="M1052.98 834.48h-11.96l5.98-18.4zm-9.27-1.95h6.6l-3.3-10.14z" stroke="#5e5e5e" stroke-width=".05" fill="#5e5e5e"/><g><use xlink:href="#K" transform="matrix(1,0,0,1,1170.6036889882566,904.0559895833334) translate(0 21.52777777777778)"/></g><path d="M560 1426a6 6 0 0 1 6-6h362a6 6 0 0 1 6 6v256a6 6 0 0 1-6 6H566a6 6 0 0 1-6-6z" stroke="#000" stroke-width="2" fill="#ffd9d9"/><path d="M560 1462.9h374m-374 64.38h374" stroke="#000" stroke-width="2" fill="none"/><g><use xlink:href="#L" transform="matrix(1,0,0,1,568,1428) translate(105.70985243055556 21.58376736111111)"/></g><g><use xlink:href="#j" transform="matrix(1,0,0,1,572,1535.2760416666665) translate(0 32.685329861111114)"/><use xlink:href="#M" transform="matrix(1,0,0,1,572,1535.2760416666665) translate(20.95269097222222 32.685329861111114)"/><use xlink:href="#m" transform="matrix(1,0,0,1,572,1535.2760416666665) translate(0 64.95095486111111)"/><use xlink:href="#N" transform="matrix(1,0,0,1,572,1535.2760416666665) translate(20.95269097222222 64.95095486111111)"/><use xlink:href="#m" transform="matrix(1,0,0,1,572,1535.2760416666665) translate(0 97.21657986111111)"/><use xlink:href="#O" transform="matrix(1,0,0,1,572,1535.2760416666665) translate(20.95269097222222 97.21657986111111)"/><use xlink:href="#m" transform="matrix(1,0,0,1,572,1535.2760416666665) translate(0 129.48220486111111)"/><use xlink:href="#P" transform="matrix(1,0,0,1,572,1535.2760416666665) translate(20.95269097222222 129.48220486111111)"/></g><path d="M560 1022a6 6 0 0 1 6-6h362a6 6 0 0 1 6 6v160a6 6 0 0 1-6 6H566a6 6 0 0 1-6-6z" stroke="#000" stroke-width="2" fill="#ffdda6"/><path d="M560 1058.9h374m-374 64.38h374" stroke="#000" stroke-width="2" fill="none"/><g><use xlink:href="#Q" transform="matrix(1,0,0,1,568,1024) translate(62.480685763888886 21.58376736111111)"/></g><g><use xlink:href="#m" transform="matrix(1,0,0,1,572,1131.2760416666665) translate(0 32.583767361111114)"/><use xlink:href="#n" transform="matrix(1,0,0,1,572,1131.2760416666665) translate(20.95269097222222 32.583767361111114)"/></g><path d="M747.98 1014h-1.95v-10.28h1.95zm0-20.56h-1.95V972.9h1.95zm0-30.83h-1.95v-20.54h1.95zm14.62-46.13h-9.56l-.82.07-.77.18-.73.3-.67.42-.6.5-.5.6-.42.68-.3.73-.2.76-.05.84v10.24h-1.95v-10.32l.08-1.05.26-1.06.42-1 .58-.94.7-.83.84-.72.93-.57 1-.42 1.08-.25 1.06-.08h9.64zm28.8 0h-19.2v-1.95h19.2zm172.8 0H945v-1.95h19.2zm28.8 0h-19.2v-1.95H993zm28.8 0h-19.2v-1.95h19.2zm26.18-6.93l-.1 1.05-.24 1.06-.42 1-.57.94-.72.83-.83.72-.93.57-1 .42-1.08.25-1.06.08h-9.64v-1.96h9.56l.83-.06.75-.18.73-.3.67-.42.6-.5.5-.6.42-.68.3-.73.2-.76.06-.84V897h1.95zm-112.58 6.94h-15.3v-1.96h15.3zm112.58-31.98h-1.95v-25h1.95zm0-37.5h-1.95v-12.5h1.95z" stroke="#5e5e5e" stroke-width=".05" fill="#5e5e5e"/><path d="M747.98 1015h-1.95v-1.03h1.95z" fill="#5e5e5e"/><path stroke="#5e5e5e" stroke-width=".05" fill="#5e5e5e"/><path d="M1051.64 833.5h-9.27l4.63-14.26z" fill="#5e5e5e"/><path d="M1052.98 834.48h-11.96l5.98-18.4zm-9.27-1.95h6.6l-3.3-10.14z" stroke="#5e5e5e" stroke-width=".05" fill="#5e5e5e"/><g><use xlink:href="#K" transform="matrix(1,0,0,1,792.0260698002088,902.0559895833334) translate(0 21.52777777777778)"/></g><path d="M1200 1426a6 6 0 0 1 6-6h362a6 6 0 0 1 6 6v256a6 6 0 0 1-6 6h-362a6 6 0 0 1-6-6z" stroke="#000" stroke-width="2" fill="#ffd9d9"/><path d="M1200 1462.9h374m-374 64.38h374" stroke="#000" stroke-width="2" fill="none"/><g><use xlink:href="#R" transform="matrix(1,0,0,1,1208,1428) translate(120.67838541666667 21.58376736111111)"/></g><g><use xlink:href="#j" transform="matrix(1,0,0,1,1212,1535.2760416666665) translate(0 32.685329861111114)"/><use xlink:href="#S" transform="matrix(1,0,0,1,1212,1535.2760416666665) translate(20.95269097222222 32.685329861111114)"/><use xlink:href="#m" transform="matrix(1,0,0,1,1212,1535.2760416666665) translate(0 64.95095486111111)"/><use xlink:href="#T" transform="matrix(1,0,0,1,1212,1535.2760416666665) translate(20.95269097222222 64.95095486111111)"/><use xlink:href="#m" transform="matrix(1,0,0,1,1212,1535.2760416666665) translate(0 97.21657986111111)"/><use xlink:href="#O" transform="matrix(1,0,0,1,1212,1535.2760416666665) translate(20.95269097222222 97.21657986111111)"/><use xlink:href="#m" transform="matrix(1,0,0,1,1212,1535.2760416666665) translate(0 129.48220486111111)"/><use xlink:href="#P" transform="matrix(1,0,0,1,1212,1535.2760416666665) translate(20.95269097222222 129.48220486111111)"/></g><path d="M747.98 1418h-1.95v-100.56h1.95zm0-127.44h-1.95v-83.06h1.95z" stroke="#5e5e5e" stroke-width=".05" fill="#5e5e5e"/><path d="M747.98 1419h-1.95v-1.03h1.95z" fill="#5e5e5e"/><path stroke="#5e5e5e" stroke-width=".05" fill="#5e5e5e"/><path d="M751.64 1206.5h-9.27l4.63-14.26z" fill="#5e5e5e"/><path d="M752.98 1207.48h-11.96l5.98-18.4zm-9.27-1.95h6.6l-3.3-10.14z" stroke="#5e5e5e" stroke-width=".05" fill="#5e5e5e"/><g><use xlink:href="#U" transform="matrix(1,0,0,1,702.8927951388889,1290.5559895833333) translate(0 21.52777777777778)"/></g><path d="M1387.98 1418h-1.95v-98.56h1.95zm0-125.44h-1.95v-81.06h1.95z" stroke="#5e5e5e" stroke-width=".05" fill="#5e5e5e"/><path d="M1387.98 1419h-1.95v-1.03h1.95z" fill="#5e5e5e"/><path stroke="#5e5e5e" stroke-width=".05" fill="#5e5e5e"/><path d="M1391.64 1210.5h-9.27l4.63-14.26z" fill="#5e5e5e"/><path d="M1392.98 1211.48h-11.96l5.98-18.4zm-9.27-1.95h6.6l-3.3-10.14z" stroke="#5e5e5e" stroke-width=".05" fill="#5e5e5e"/><g><use xlink:href="#U" transform="matrix(1,0,0,1,1342.8927951388887,1292.5559868209155) translate(0 21.52777777777778)"/></g><defs><path d="M166-471v-247l1019-454v289L492-601v13l693 282v287" id="V"/><path d="M440-1490V0H135v-1490h305" id="W"/><path d="M428-647V0H128v-1118h283l4 231c63-156 176-245 348-245 232 0 384 159 384 421V0H847v-659c0-139-76-222-202-222-128 0-217 86-217 234" id="X"/><path d="M683-1118v229H474v562c0 71 29 104 102 104 23 0 73-7 95-13l43 225C647 9 580 16 520 16 296 16 174-96 174-301v-588H20v-229h154v-266h300v266h209" id="Y"/><path d="M633 22C291 22 81-200 81-553c0-345 210-579 537-579 292 0 525 185 525 567v84H378c7 183 109 277 260 277 105 0 184-46 216-132l272 51C1071-99 893 22 633 22zM380-669h474c-15-146-94-237-233-237-143 0-229 99-241 237" id="Z"/><path d="M128 0v-1118h290v195h12c54-169 184-238 367-200v268c-27-8-86-15-130-15-138 0-239 95-239 234V0H128" id="aa"/><path d="M750-1118v229H516V0H217v-889H20v-229h197v-86c0-238 156-356 363-356 94 0 178 20 215 31l-54 226c-25-7-61-15-100-15-123-3-131 84-125 200h234" id="ab"/><path d="M440 22C227 22 68-92 68-313c0-250 202-322 422-343 195-21 271-24 271-105 0-95-63-149-175-149-116 0-187 57-211 129l-275-46c57-194 237-305 487-305 240 0 474 108 474 379V0H777v-155h-10C713-51 605 22 440 22zm85-211c140 0 238-93 238-211v-121c-37 26-156 42-222 51-111 16-185 59-185 149 0 87 70 132 169 132" id="ac"/><path d="M628 22C291 22 81-210 81-554c0-346 210-578 547-578 265 0 455 142 497 372l-279 52c-25-116-99-188-215-188-160 0-244 139-244 341 0 200 84 341 244 341 116 0 193-74 217-195l279 51C1085-123 896 22 628 22" id="ad"/><path d="M1224-471L205-19v-287l694-281v-14L205-883v-289l1019 454v247" id="ae"/><g id="a"><use transform="matrix(0.010850694444444444,0,0,0.010850694444444444,0,0)" xlink:href="#V"/><use transform="matrix(0.010850694444444444,0,0,0.010850694444444444,15.082465277777777,0)" xlink:href="#V"/><use transform="matrix(0.010850694444444444,0,0,0.010850694444444444,30.164930555555554,0)" xlink:href="#W"/><use transform="matrix(0.010850694444444444,0,0,0.010850694444444444,36.40407986111111,0)" xlink:href="#X"/><use transform="matrix(0.010850694444444444,0,0,0.010850694444444444,50.23871527777778,0)" xlink:href="#Y"/><use transform="matrix(0.010850694444444444,0,0,0.010850694444444444,58.15972222222222,0)" xlink:href="#Z"/><use transform="matrix(0.010850694444444444,0,0,0.010850694444444444,71.39756944444444,0)" xlink:href="#aa"/><use transform="matrix(0.010850694444444444,0,0,0.010850694444444444,80.88107638888889,0)" xlink:href="#ab"/><use transform="matrix(0.010850694444444444,0,0,0.010850694444444444,89.29036458333334,0)" xlink:href="#ac"/><use transform="matrix(0.010850694444444444,0,0,0.010850694444444444,102.1918402777778,0)" xlink:href="#ad"/><use transform="matrix(0.010850694444444444,0,0,0.010850694444444444,115.26692708333334,0)" xlink:href="#Z"/><use transform="matrix(0.010850694444444444,0,0,0.010850694444444444,128.50477430555557,0)" xlink:href="#ae"/><use transform="matrix(0.010850694444444444,0,0,0.010850694444444444,143.58723958333334,0)" xlink:href="#ae"/></g><path d="M681 22C323 22 94-145 85-462h297c10 151 131 226 296 226 163 0 271-77 271-190 0-102-95-149-257-189l-164-41c-252-61-403-188-403-405 0-269 236-449 560-449 330 0 546 183 551 445H941c-11-119-106-188-259-188-156 0-244 72-244 172-3 156 226 185 373 221 250 61 445 186 445 436 0 271-213 446-575 446" id="af"/><path d="M572 22C302 22 117-98 78-306l279-48c29 105 101 156 224 156 114 0 185-48 185-115 0-118-228-130-337-155-215-49-322-150-322-317 0-215 187-347 470-347 265 0 424 116 466 298l-266 47c-24-76-87-130-196-130-98 0-174 46-174 113 0 56 38 95 144 117l201 40c216 44 320 143 320 302 0 220-207 367-500 367" id="ag"/><path d="M628 22C291 22 81-210 81-554c0-346 210-578 547-578 336 0 547 232 547 578 0 344-211 576-547 576zm0-236c160 0 242-146 242-341 0-197-82-341-242-341S387-753 387-555c0 195 81 341 241 341" id="ah"/><path d="M49 0l509-1490h400L1480 0h-339l-115-346H497L386 0H49zm524-585h374c-75-213-124-402-192-666-66 268-110 453-182 666" id="ai"/><path d="M537 19C279 19 81-185 81-557c0-382 206-575 454-575 190 0 278 113 318 202h10v-560h300V0H868v-179h-15C812-89 719 19 537 19zm92-241c153 0 240-134 240-336 0-203-86-334-240-334-158 0-240 138-240 334 0 197 84 336 240 336" id="aj"/><path d="M128 418v-1536h295v188h14c41-89 129-202 319-202 248 0 453 193 453 575 0 372-197 576-455 576-183 0-275-108-317-198h-9v597H128zm534-640c156 0 240-139 240-336 0-196-83-334-240-334-154 0-241 131-241 334 0 202 88 336 241 336" id="ak"/><g id="b"><use transform="matrix(0.010850694444444444,0,0,0.010850694444444444,0,0)" xlink:href="#W"/><use transform="matrix(0.010850694444444444,0,0,0.010850694444444444,6.239149305555555,0)" xlink:href="#af"/><use transform="matrix(0.010850694444444444,0,0,0.010850694444444444,20.789930555555557,0)" xlink:href="#Z"/><use transform="matrix(0.010850694444444444,0,0,0.010850694444444444,34.02777777777778,0)" xlink:href="#X"/><use transform="matrix(0.010850694444444444,0,0,0.010850694444444444,47.86241319444444,0)" xlink:href="#ag"/><use transform="matrix(0.010850694444444444,0,0,0.010850694444444444,60.30815972222222,0)" xlink:href="#ah"/><use transform="matrix(0.010850694444444444,0,0,0.010850694444444444,73.93663194444444,0)" xlink:href="#aa"/><use transform="matrix(0.010850694444444444,0,0,0.010850694444444444,82.10720486111111,0)" xlink:href="#ai"/><use transform="matrix(0.010850694444444444,0,0,0.010850694444444444,98.1879340277778,0)" xlink:href="#aj"/><use transform="matrix(0.010850694444444444,0,0,0.010850694444444444,112.19618055555556,0)" xlink:href="#ac"/><use transform="matrix(0.010850694444444444,0,0,0.010850694444444444,125.09765625,0)" xlink:href="#ak"/><use transform="matrix(0.010850694444444444,0,0,0.010850694444444444,139.10590277777777,0)" xlink:href="#Y"/><use transform="matrix(0.010850694444444444,0,0,0.010850694444444444,147.02690972222223,0)" xlink:href="#Z"/><use transform="matrix(0.010850694444444444,0,0,0.010850694444444444,160.26475694444446,0)" xlink:href="#aa"/></g><path d="M334-464v-160h560v160H334" id="al"/><use transform="matrix(0.010850694444444444,0,0,0.010850694444444444,0,0)" xlink:href="#al" id="c"/><path d="M745-142h380V0H143v-142h422v-798H246v-142h499v940zM545-1292v-192h200v192H545" id="am"/><path d="M865-914c-3-187-2-380-2-570h180v1261c0 76 1 155 6 223H877c-8-49-9-116-10-174h-5C801-44 708 26 530 26c-135 0-234-46-297-139s-95-232-95-419c0-377 131-566 392-566 176 0 271 63 335 184zm-286-51c-222 0-255 197-255 427 0 229 31 425 253 425 237 0 286-195 286-441 0-238-52-411-284-411" id="an"/><path d="M496 0v-299h235V0H496zm0-783v-299h235v299H496" id="ao"/><g id="d"><use transform="matrix(0.010850694444444444,0,0,0.010850694444444444,0,0)" xlink:href="#am"/><use transform="matrix(0.010850694444444444,0,0,0.010850694444444444,13.335503472222221,0)" xlink:href="#an"/><use transform="matrix(0.010850694444444444,0,0,0.010850694444444444,26.671006944444443,0)" xlink:href="#ao"/></g><path d="M614-1226c-167 1-283 53-283 213 0 183 186 193 334 234 230 63 463 120 463 409 0 286-219 387-518 390C309 23 131-98 79-338l185-37c34 165 149 248 351 246 184-2 324-58 324-238 0-203-207-221-372-266-210-57-422-111-422-377 0-267 201-356 470-360 279-5 430 101 480 324l-188 33c-28-141-121-215-293-213" id="ap"/><path d="M682 16c-209 0-323-80-324-285v-671H190v-142h170l58-282h120v282h432v142H538v652c2 114 60 155 182 155 106 0 209-16 297-34v137C921-4 806 16 682 16" id="aq"/><path d="M839-1102c70 0 148 7 206 17v167c-112-18-268-36-363 15-129 69-208 203-208 395V0H294c-10-367 32-789-52-1082h171c21 75 41 161 48 250h5c67-152 152-270 373-270" id="ar"/><path d="M706-1102c241 0 344 136 343 381V0H868v-695c1-168-57-273-220-268-190 6-283 138-283 336V0H185c-3-360 6-732-6-1082h170c4 54 7 126 8 185h3c63-121 164-204 346-205" id="as"/><path d="M1048-32c-2 300-135 456-433 456-222-1-358-88-400-267l184-25c22 99 100 157 222 156 184-2 248-125 248-315 0-64 3-133-2-194C807-100 706-13 524-12c-306 0-381-228-381-537 0-318 85-550 400-550 164 0 271 83 325 202h3c1-60 3-134 12-185h171c-13 339-4 702-6 1050zM585-145c210-8 284-178 284-406 0-192-52-331-177-392-33-16-69-22-104-22-223 2-259 184-259 414 0 229 31 415 256 406" id="at"/><g id="e"><use transform="matrix(0.010850694444444444,0,0,0.010850694444444444,0,0)" xlink:href="#ap"/><use transform="matrix(0.010850694444444444,0,0,0.010850694444444444,13.335503472222221,0)" xlink:href="#aq"/><use transform="matrix(0.010850694444444444,0,0,0.010850694444444444,26.671006944444443,0)" xlink:href="#ar"/><use transform="matrix(0.010850694444444444,0,0,0.010850694444444444,40.006510416666664,0)" xlink:href="#am"/><use transform="matrix(0.010850694444444444,0,0,0.010850694444444444,53.342013888888886,0)" xlink:href="#as"/><use transform="matrix(0.010850694444444444,0,0,0.010850694444444444,66.67751736111111,0)" xlink:href="#at"/></g><path d="M698-1104c312 3 392 244 392 558 0 315-82 566-392 566-169 0-277-65-331-184h-5c8 188 2 394 4 589H185V-858c0-76-1-156-6-224h175c6 52 9 120 10 178h4c58-122 150-202 330-200zm-49 991c225 0 255-203 255-433 0-225-32-419-253-419-236 0-285 192-285 441 0 237 53 411 283 411" id="au"/><path d="M615-1102c343 0 484 203 482 560-1 347-147 562-488 562-336 0-475-219-479-562-4-349 156-560 485-560zm-8 989c240 0 301-180 301-429 0-245-55-427-290-427-236 0-299 181-299 427 0 243 61 429 288 429" id="av"/><g id="f"><use transform="matrix(0.010850694444444444,0,0,0.010850694444444444,0,0)" xlink:href="#aq"/><use transform="matrix(0.010850694444444444,0,0,0.010850694444444444,13.335503472222221,0)" xlink:href="#am"/><use transform="matrix(0.010850694444444444,0,0,0.010850694444444444,26.671006944444443,0)" xlink:href="#au"/><use transform="matrix(0.010850694444444444,0,0,0.010850694444444444,40.006510416666664,0)" xlink:href="#av"/><use transform="matrix(0.010850694444444444,0,0,0.010850694444444444,53.342013888888886,0)" xlink:href="#ao"/></g><path d="M736-142h380V0H134v-142h422v-1200H267v-142h469v1342" id="aw"/><path d="M631 20c-350 0-501-215-501-562 0-355 162-560 502-560 250 0 399 118 446 323l-192 14c-23-124-109-196-262-196-242 0-305 171-305 415 1 245 61 427 304 427 151 0 248-77 267-215l190 12C1039-107 883 20 631 20" id="ax"/><path d="M1000-272c3 95 12 159 101 161 21 0 41-3 59-7V-6c-44 10-86 16-139 16-141 2-191-84-197-217h-6C748-76 648 20 446 20c-207 0-318-120-318-322 0-266 194-348 454-354l236-4c12-191-40-305-222-305-140 0-220 47-232 172l-188-17c33-204 181-292 423-292 255 0 401 118 401 364v466zm-683-27c0 109 63 184 175 182 166-3 259-96 306-217 24-65 20-120 20-200-232 7-501-28-501 235" id="ay"/><path d="M147 0v-137l681-806H187v-139h844v137L349-139h719V0H147" id="az"/><g id="g"><use transform="matrix(0.010850694444444444,0,0,0.010850694444444444,0,0)" xlink:href="#aw"/><use transform="matrix(0.010850694444444444,0,0,0.010850694444444444,13.335503472222221,0)" xlink:href="#av"/><use transform="matrix(0.010850694444444444,0,0,0.010850694444444444,26.671006944444443,0)" xlink:href="#ax"/><use transform="matrix(0.010850694444444444,0,0,0.010850694444444444,40.006510416666664,0)" xlink:href="#ay"/><use transform="matrix(0.010850694444444444,0,0,0.010850694444444444,53.342013888888886,0)" xlink:href="#aw"/><use transform="matrix(0.010850694444444444,0,0,0.010850694444444444,66.67751736111111,0)" xlink:href="#am"/><use transform="matrix(0.010850694444444444,0,0,0.010850694444444444,80.01302083333334,0)" xlink:href="#az"/><use transform="matrix(0.010850694444444444,0,0,0.010850694444444444,93.34852430555557,0)" xlink:href="#ay"/><use transform="matrix(0.010850694444444444,0,0,0.010850694444444444,106.6840277777778,0)" xlink:href="#ax"/><use transform="matrix(0.010850694444444444,0,0,0.010850694444444444,120.01953125000003,0)" xlink:href="#ay"/><use transform="matrix(0.010850694444444444,0,0,0.010850694444444444,133.35503472222226,0)" xlink:href="#av"/><use transform="matrix(0.010850694444444444,0,0,0.010850694444444444,146.69053819444449,0)" xlink:href="#ao"/></g><path d="M650-1214c-281 0-336 244-336 533 0 295 60 546 347 546 188 0 263-142 322-282l159 65C1058-155 935 20 659 20c-401 0-546-295-546-701 0-407 135-689 536-689 264 0 391 146 466 335l-168 65c-47-129-127-244-297-244" id="aA"/><path d="M365-904c58-129 161-200 334-200 130 0 228 46 293 138s98 233 98 420c0 189-34 331-102 425S824 20 698 20c-170 0-275-64-336-184 0 55-3 116-9 164H179c5-68 6-147 6-223v-1261h180c-2 193 4 394-4 580h4zm283 791c221 0 256-197 256-427 0-229-34-425-254-425-236 0-285 195-285 441 0 237 53 411 283 411" id="aB"/><g id="h"><use transform="matrix(0.010850694444444444,0,0,0.010850694444444444,0,0)" xlink:href="#an"/><use transform="matrix(0.010850694444444444,0,0,0.010850694444444444,13.335503472222221,0)" xlink:href="#ay"/><use transform="matrix(0.010850694444444444,0,0,0.010850694444444444,26.671006944444443,0)" xlink:href="#aq"/><use transform="matrix(0.010850694444444444,0,0,0.010850694444444444,40.006510416666664,0)" xlink:href="#ay"/><use transform="matrix(0.010850694444444444,0,0,0.010850694444444444,53.342013888888886,0)" xlink:href="#aA"/><use transform="matrix(0.010850694444444444,0,0,0.010850694444444444,66.67751736111111,0)" xlink:href="#ay"/><use transform="matrix(0.010850694444444444,0,0,0.010850694444444444,80.01302083333334,0)" xlink:href="#aw"/><use transform="matrix(0.010850694444444444,0,0,0.010850694444444444,93.34852430555557,0)" xlink:href="#am"/><use transform="matrix(0.010850694444444444,0,0,0.010850694444444444,106.6840277777778,0)" xlink:href="#aB"/><use transform="matrix(0.010850694444444444,0,0,0.010850694444444444,120.01953125000003,0)" xlink:href="#ar"/><use transform="matrix(0.010850694444444444,0,0,0.010850694444444444,133.35503472222226,0)" xlink:href="#ay"/><use transform="matrix(0.010850694444444444,0,0,0.010850694444444444,146.69053819444449,0)" xlink:href="#ax"/><use transform="matrix(0.010850694444444444,0,0,0.010850694444444444,160.0260416666667,0)" xlink:href="#ay"/><use transform="matrix(0.010850694444444444,0,0,0.010850694444444444,173.36154513888894,0)" xlink:href="#av"/><use transform="matrix(0.010850694444444444,0,0,0.010850694444444444,186.69704861111117,0)" xlink:href="#ao"/></g><path d="M237 0v-1349h191v1193h672V0H237" id="aC"/><path d="M473-1349c438-1 655 221 652 661C1122-268 945-8 532 0H162v-1349h311zm42 1193c308-4 416-205 418-532 2-330-131-509-459-505H353v1037h162" id="aD"/><path d="M617-1102c355 0 481 238 477 599H322c5 222 84 388 301 388 144 0 244-59 284-166l158 45C1002-72 854 20 623 20c-342 0-490-220-490-568 0-346 151-554 484-554zm291 461c-18-192-90-328-289-328-194 0-287 128-295 328h584" id="aE"/><g id="i"><use transform="matrix(0.010850694444444444,0,0,0.010850694444444444,0,0)" xlink:href="#aC"/><use transform="matrix(0.010850694444444444,0,0,0.010850694444444444,13.335503472222221,0)" xlink:href="#av"/><use transform="matrix(0.010850694444444444,0,0,0.010850694444444444,26.671006944444443,0)" xlink:href="#ax"/><use transform="matrix(0.010850694444444444,0,0,0.010850694444444444,40.006510416666664,0)" xlink:href="#ay"/><use transform="matrix(0.010850694444444444,0,0,0.010850694444444444,53.342013888888886,0)" xlink:href="#aw"/><use transform="matrix(0.010850694444444444,0,0,0.010850694444444444,66.67751736111111,0)" xlink:href="#aD"/><use transform="matrix(0.010850694444444444,0,0,0.010850694444444444,80.01302083333334,0)" xlink:href="#ay"/><use transform="matrix(0.010850694444444444,0,0,0.010850694444444444,93.34852430555557,0)" xlink:href="#aq"/><use transform="matrix(0.010850694444444444,0,0,0.010850694444444444,106.6840277777778,0)" xlink:href="#aE"/></g><path d="M593-100v-404H195v-159h398v-403h169v403h398v159H762v404H593" id="aF"/><use transform="matrix(0.010850694444444444,0,0,0.010850694444444444,0,0)" xlink:href="#aF" id="j"/><path d="M611 442c-248 0-391-105-460-228l146-94c47 65 117 165 314 165 178 0 307-82 307-266v-224h-17C863-141 792-18 576-18c-268 0-472-195-472-546 0-346 197-568 476-568 216 0 288 133 326 193h17v-179h175V29c0 289-215 413-487 413zm-5-620c203 0 314-146 314-390 0-237-108-403-314-403-213 0-319 180-319 403 0 230 109 390 319 390" id="aG"/><path d="M628 24c-324 0-524-230-524-574 0-343 198-582 503-582 237 0 487 146 487 559v75H286c9 234 145 362 343 362 132 0 231-58 273-172l174 48C1024-91 857 24 628 24zM287-650h624c-17-190-120-322-304-322-192 0-309 151-320 322" id="aH"/><path d="M598-1118v154H368v674c0 100 37 144 132 144 23 0 62-6 92-12L629-6c-37 13-88 20-134 20-193 0-307-107-307-290v-688H20v-154h168v-266h180v266h230" id="aI"/><path d="M645 0H180v-1490h484c435 0 692 280 692 742 0 466-257 748-711 748zM370-168h263c363 0 539-218 539-580 0-358-176-574-521-574H370v1154" id="aJ"/><path d="M338-1490V0H158v-1490h180" id="aK"/><path d="M471 26C259 26 90-98 90-318c0-256 228-303 435-329 202-27 287-16 287-108 0-139-79-219-234-219-161 0-248 86-283 164l-173-57c86-203 278-265 451-265 150 0 419 46 419 395V0H815v-152h-12C765-73 660 26 471 26zm31-159c199 0 310-134 310-271v-155c-30 35-226 55-295 64-131 17-246 59-246 186 0 116 97 176 231 176" id="aL"/><path d="M789 20c-398 0-667-293-667-764 0-473 273-766 655-766 315 0 558 198 612 487h-196c-61-191-204-311-415-311-262 0-471 207-471 590 0 380 208 588 482 588 249 0 420-165 425-427H828v-166h572v163c0 370-256 606-611 606" id="aM"/><path d="M158 0v-1118h174v172h12c41-113 157-188 290-188 26 0 70 2 91 3v181c-11-2-60-10-108-10-161 0-279 109-279 260V0H158" id="aN"/><path d="M537 14c-226 0-379-139-379-422v-710h180v695c0 172 97 275 253 275 160 0 281-109 281-300v-670h181V0H879v-209C806-46 684 14 537 14" id="aO"/><path d="M218-607c0-325 108-727 258-974h175c-155 315-250 682-250 974 0 265 78 531 250 886H476C306-10 218-315 218-607" id="aP"/><path d="M96 279C273-86 346-350 346-607c0-292-95-659-250-974h175c150 246 258 650 258 974 0 297-91 602-258 886H96" id="aQ"/><path d="M295 13c-75 0-135-60-135-135s60-135 135-135 135 60 135 135S370 13 295 13zm0-809c-75 0-135-60-135-135s60-135 135-135 135 60 135 135-60 135-135 135" id="aR"/><g id="k"><use transform="matrix(0.010850694444444444,0,0,0.010850694444444444,0,0)" xlink:href="#aG"/><use transform="matrix(0.010850694444444444,0,0,0.010850694444444444,13.628472222222221,0)" xlink:href="#aH"/><use transform="matrix(0.010850694444444444,0,0,0.010850694444444444,26.58420138888889,0)" xlink:href="#aI"/><use transform="matrix(0.010850694444444444,0,0,0.010850694444444444,33.854166666666664,0)" xlink:href="#aJ"/><use transform="matrix(0.010850694444444444,0,0,0.010850694444444444,49.89149305555556,0)" xlink:href="#aH"/><use transform="matrix(0.010850694444444444,0,0,0.010850694444444444,62.84722222222222,0)" xlink:href="#aK"/><use transform="matrix(0.010850694444444444,0,0,0.010850694444444444,68.5546875,0)" xlink:href="#aI"/><use transform="matrix(0.010850694444444444,0,0,0.010850694444444444,75.93315972222221,0)" xlink:href="#aL"/><use transform="matrix(0.010850694444444444,0,0,0.010850694444444444,88.41145833333333,0)" xlink:href="#aM"/><use transform="matrix(0.010850694444444444,0,0,0.010850694444444444,104.99131944444444,0)" xlink:href="#aN"/><use transform="matrix(0.010850694444444444,0,0,0.010850694444444444,113.3572048611111,0)" xlink:href="#aL"/><use transform="matrix(0.010850694444444444,0,0,0.010850694444444444,125.83550347222224,0)" xlink:href="#aO"/><use transform="matrix(0.010850694444444444,0,0,0.010850694444444444,138.97569444444446,0)" xlink:href="#aP"/><use transform="matrix(0.010850694444444444,0,0,0.010850694444444444,147.08116319444446,0)" xlink:href="#aQ"/><use transform="matrix(0.010850694444444444,0,0,0.010850694444444444,155.18663194444446,0)" xlink:href="#aR"/></g><path d="M678-1118v154H420V0H240v-964H20v-154h220v-149c0-194 155-293 318-293 85 0 141 18 168 30l-50 154c-19-6-47-17-97-17-111 0-159 58-159 166v109h258" id="aS"/><path d="M613 24c-304 0-509-231-509-576 0-350 205-580 509-580 305 0 511 230 511 580 0 345-206 576-511 576zm0-161c226 0 329-195 329-415 0-222-103-419-329-419-223 0-326 196-326 419 0 220 103 415 326 415" id="aT"/><g id="l"><use transform="matrix(0.010850694444444444,0,0,0.010850694444444444,0,0)" xlink:href="#aS"/><use transform="matrix(0.010850694444444444,0,0,0.010850694444444444,8.22482638888889,0)" xlink:href="#aK"/><use transform="matrix(0.010850694444444444,0,0,0.010850694444444444,13.606770833333332,0)" xlink:href="#aT"/><use transform="matrix(0.010850694444444444,0,0,0.010850694444444444,27.1484375,0)" xlink:href="#aL"/><use transform="matrix(0.010850694444444444,0,0,0.010850694444444444,39.626736111111114,0)" xlink:href="#aI"/></g><use transform="matrix(0.010850694444444444,0,0,0.010850694444444444,0,0)" xlink:href="#aF" id="m"/><path d="M98-1322v-168h1126v168H757V0H567v-1322H98" id="aU"/><path d="M158 0v-1118h175l1 205c55-151 181-225 313-225 147 0 245 90 285 228 53-141 190-228 352-228 194 0 352 125 352 384V0h-181v-749c0-161-105-225-225-225-151 0-243 103-243 244V0H807v-767c0-124-93-207-219-207-131 0-250 92-250 270V0H158" id="aV"/><path d="M158 418v-1536h174v179h20c37-59 106-193 324-193 279 0 474 222 474 576 0 356-194 580-473 580-213 0-288-135-325-197h-14v591H158zm492-555c209 0 317-186 317-421 0-232-105-413-317-413-206 0-314 166-314 413 0 249 111 421 314 421" id="aW"/><path d="M158 0v-1118h180V0H158zm91-1301c-68 0-125-53-125-119s57-119 125-119c69 0 126 53 126 119s-57 119-126 119" id="aX"/><path d="M338-670V0H158v-1118h173l1 207c72-158 192-221 342-221 226 0 378 139 378 422V0H872v-695c0-172-96-275-252-275-161 0-282 109-282 300" id="aY"/><g id="n"><use transform="matrix(0.010850694444444444,0,0,0.010850694444444444,0,0)" xlink:href="#aG"/><use transform="matrix(0.010850694444444444,0,0,0.010850694444444444,13.628472222222221,0)" xlink:href="#aH"/><use transform="matrix(0.010850694444444444,0,0,0.010850694444444444,26.58420138888889,0)" xlink:href="#aI"/><use transform="matrix(0.010850694444444444,0,0,0.010850694444444444,33.854166666666664,0)" xlink:href="#aJ"/><use transform="matrix(0.010850694444444444,0,0,0.010850694444444444,49.89149305555556,0)" xlink:href="#aH"/><use transform="matrix(0.010850694444444444,0,0,0.010850694444444444,62.84722222222222,0)" xlink:href="#aK"/><use transform="matrix(0.010850694444444444,0,0,0.010850694444444444,68.5546875,0)" xlink:href="#aI"/><use transform="matrix(0.010850694444444444,0,0,0.010850694444444444,75.93315972222221,0)" xlink:href="#aL"/><use transform="matrix(0.010850694444444444,0,0,0.010850694444444444,86.8923611111111,0)" xlink:href="#aU"/><use transform="matrix(0.010850694444444444,0,0,0.010850694444444444,99.50086805555556,0)" xlink:href="#aH"/><use transform="matrix(0.010850694444444444,0,0,0.010850694444444444,112.45659722222221,0)" xlink:href="#aV"/><use transform="matrix(0.010850694444444444,0,0,0.010850694444444444,131.92274305555554,0)" xlink:href="#aW"/><use transform="matrix(0.010850694444444444,0,0,0.010850694444444444,145.52951388888889,0)" xlink:href="#aT"/><use transform="matrix(0.010850694444444444,0,0,0.010850694444444444,158.85416666666666,0)" xlink:href="#aP"/><use transform="matrix(0.010850694444444444,0,0,0.010850694444444444,166.95963541666666,0)" xlink:href="#aQ"/><use transform="matrix(0.010850694444444444,0,0,0.010850694444444444,175.06510416666666,0)" xlink:href="#aR"/><use transform="matrix(0.010850694444444444,0,0,0.010850694444444444,181.46701388888889,0)" xlink:href="#aX"/><use transform="matrix(0.010850694444444444,0,0,0.010850694444444444,186.84895833333331,0)" xlink:href="#aY"/><use transform="matrix(0.010850694444444444,0,0,0.010850694444444444,199.97829861111111,0)" xlink:href="#aI"/></g><g id="o"><use transform="matrix(0.010850694444444444,0,0,0.010850694444444444,0,0)" xlink:href="#aU"/><use transform="matrix(0.010850694444444444,0,0,0.010850694444444444,12.71701388888889,0)" xlink:href="#aL"/><use transform="matrix(0.010850694444444444,0,0,0.010850694444444444,25.1953125,0)" xlink:href="#aN"/><use transform="matrix(0.010850694444444444,0,0,0.010850694444444444,33.19227430555556,0)" xlink:href="#aG"/><use transform="matrix(0.010850694444444444,0,0,0.010850694444444444,46.82074652777778,0)" xlink:href="#aH"/><use transform="matrix(0.010850694444444444,0,0,0.010850694444444444,59.77647569444444,0)" xlink:href="#aI"/></g><path d="M135 0v-1490h468l242 684c30 94 76 293 111 455 34-161 80-360 110-455l238-684h470V0h-307c0-447-3-765 11-1227-122 503-246 788-395 1227H826C676-435 552-717 427-1215c15 453 11 775 11 1215H135" id="aZ"/><path d="M128 0v-1118h300V0H128zm150-1264c-91 0-165-68-165-154 0-85 74-154 165-154 90 0 165 69 165 154 0 86-75 154-165 154" id="ba"/><path d="M128 0v-1118h278l12 217c60-163 185-234 319-234 143 0 236 81 288 251 63-172 205-251 359-251 205 0 357 138 357 381V0h-301v-697c0-126-76-187-177-187-114 0-184 79-184 196V0H789v-705c0-109-72-179-174-179-106 0-187 74-187 208V0H128" id="bb"/><g id="p"><use transform="matrix(0.010850694444444444,0,0,0.010850694444444444,0,0)" xlink:href="#aZ"/><use transform="matrix(0.010850694444444444,0,0,0.010850694444444444,20.703125,0)" xlink:href="#ah"/><use transform="matrix(0.010850694444444444,0,0,0.010850694444444444,34.33159722222222,0)" xlink:href="#X"/><use transform="matrix(0.010850694444444444,0,0,0.010850694444444444,48.166232638888886,0)" xlink:href="#ba"/><use transform="matrix(0.010850694444444444,0,0,0.010850694444444444,54.18836805555556,0)" xlink:href="#Y"/><use transform="matrix(0.010850694444444444,0,0,0.010850694444444444,62.109375,0)" xlink:href="#ah"/><use transform="matrix(0.010850694444444444,0,0,0.010850694444444444,75.73784722222223,0)" xlink:href="#aa"/><use transform="matrix(0.010850694444444444,0,0,0.010850694444444444,84.48350694444446,0)" xlink:href="#ac"/><use transform="matrix(0.010850694444444444,0,0,0.010850694444444444,97.3849826388889,0)" xlink:href="#bb"/><use transform="matrix(0.010850694444444444,0,0,0.010850694444444444,117.66493055555557,0)" xlink:href="#Z"/><use transform="matrix(0.010850694444444444,0,0,0.010850694444444444,130.9027777777778,0)" xlink:href="#X"/><use transform="matrix(0.010850694444444444,0,0,0.010850694444444444,144.73741319444446,0)" xlink:href="#Y"/><use transform="matrix(0.010850694444444444,0,0,0.010850694444444444,152.6584201388889,0)" xlink:href="#ah"/></g><path d="M873-819c-18-114-119-146-250-146-163 0-245 50-245 151 0 151 170 148 294 185 182 54 388 94 388 320 0 240-189 325-439 329-245 4-410-69-454-268l159-31c24 133 136 168 295 165 144-2 270-31 270-171 0-164-195-160-331-202-167-52-350-87-350-299 0-218 173-315 413-313 220 2 373 77 412 260" id="bc"/><path d="M528 20c-247 0-343-132-343-381v-721h180v686c-4 177 45 284 224 277 194-8 279-136 279-336v-627h181c3 360-6 732 6 1082H885c-4-54-7-126-8-185h-3C809-64 714 20 528 20" id="bd"/><g id="q"><use transform="matrix(0.010850694444444444,0,0,0.010850694444444444,0,0)" xlink:href="#bc"/><use transform="matrix(0.010850694444444444,0,0,0.010850694444444444,13.335503472222221,0)" xlink:href="#am"/><use transform="matrix(0.010850694444444444,0,0,0.010850694444444444,26.671006944444443,0)" xlink:href="#aq"/><use transform="matrix(0.010850694444444444,0,0,0.010850694444444444,40.006510416666664,0)" xlink:href="#bd"/><use transform="matrix(0.010850694444444444,0,0,0.010850694444444444,53.342013888888886,0)" xlink:href="#ay"/><use transform="matrix(0.010850694444444444,0,0,0.010850694444444444,66.67751736111111,0)" xlink:href="#ax"/><use transform="matrix(0.010850694444444444,0,0,0.010850694444444444,80.01302083333334,0)" xlink:href="#ay"/><use transform="matrix(0.010850694444444444,0,0,0.010850694444444444,93.34852430555557,0)" xlink:href="#av"/><use transform="matrix(0.010850694444444444,0,0,0.010850694444444444,106.6840277777778,0)" xlink:href="#ao"/></g><g id="r"><use transform="matrix(0.010850694444444444,0,0,0.010850694444444444,0,0)" xlink:href="#ap"/><use transform="matrix(0.010850694444444444,0,0,0.010850694444444444,13.335503472222221,0)" xlink:href="#am"/><use transform="matrix(0.010850694444444444,0,0,0.010850694444444444,26.671006944444443,0)" xlink:href="#aq"/><use transform="matrix(0.010850694444444444,0,0,0.010850694444444444,40.006510416666664,0)" xlink:href="#bd"/><use transform="matrix(0.010850694444444444,0,0,0.010850694444444444,53.342013888888886,0)" xlink:href="#ay"/><use transform="matrix(0.010850694444444444,0,0,0.010850694444444444,66.67751736111111,0)" xlink:href="#ax"/><use transform="matrix(0.010850694444444444,0,0,0.010850694444444444,80.01302083333334,0)" xlink:href="#ay"/><use transform="matrix(0.010850694444444444,0,0,0.010850694444444444,93.34852430555557,0)" xlink:href="#av"/></g><path d="M713 0H515L10-1349h201C345-955 498-579 615-168c116-411 269-787 402-1181h201" id="be"/><path d="M655-135c108 0 195-33 260-74v-336H622v-160h479v572C981-54 839 20 639 20c-388 0-526-306-526-701 0-406 129-689 529-689 261 0 392 137 461 331l-171 56c-47-131-122-231-288-231-281 0-330 245-330 533 0 179 28 314 84 407s142 139 257 139" id="bf"/><g id="s"><use transform="matrix(0.010850694444444444,0,0,0.010850694444444444,0,0)" xlink:href="#an"/><use transform="matrix(0.010850694444444444,0,0,0.010850694444444444,13.335503472222221,0)" xlink:href="#aE"/><use transform="matrix(0.010850694444444444,0,0,0.010850694444444444,26.671006944444443,0)" xlink:href="#aw"/><use transform="matrix(0.010850694444444444,0,0,0.010850694444444444,40.006510416666664,0)" xlink:href="#aq"/><use transform="matrix(0.010850694444444444,0,0,0.010850694444444444,53.342013888888886,0)" xlink:href="#ay"/><use transform="matrix(0.010850694444444444,0,0,0.010850694444444444,66.67751736111111,0)" xlink:href="#be"/><use transform="matrix(0.010850694444444444,0,0,0.010850694444444444,80.01302083333334,0)" xlink:href="#ay"/><use transform="matrix(0.010850694444444444,0,0,0.010850694444444444,93.34852430555557,0)" xlink:href="#ar"/><use transform="matrix(0.010850694444444444,0,0,0.010850694444444444,106.6840277777778,0)" xlink:href="#am"/><use transform="matrix(0.010850694444444444,0,0,0.010850694444444444,120.01953125000003,0)" xlink:href="#ay"/><use transform="matrix(0.010850694444444444,0,0,0.010850694444444444,133.35503472222226,0)" xlink:href="#ax"/><use transform="matrix(0.010850694444444444,0,0,0.010850694444444444,146.69053819444449,0)" xlink:href="#ay"/><use transform="matrix(0.010850694444444444,0,0,0.010850694444444444,160.0260416666667,0)" xlink:href="#av"/><use transform="matrix(0.010850694444444444,0,0,0.010850694444444444,173.36154513888894,0)" xlink:href="#bf"/><use transform="matrix(0.010850694444444444,0,0,0.010850694444444444,186.69704861111117,0)" xlink:href="#ar"/><use transform="matrix(0.010850694444444444,0,0,0.010850694444444444,200.0325520833334,0)" xlink:href="#ay"/><use transform="matrix(0.010850694444444444,0,0,0.010850694444444444,213.36805555555563,0)" xlink:href="#bd"/><use transform="matrix(0.010850694444444444,0,0,0.010850694444444444,226.70355902777786,0)" xlink:href="#bc"/><use transform="matrix(0.010850694444444444,0,0,0.010850694444444444,240.03906250000006,0)" xlink:href="#ao"/></g><path d="M202-1349h823v156H709v1037h316V0H202v-156h316v-1037H202v-156" id="bg"/><g id="t"><use transform="matrix(0.010850694444444444,0,0,0.010850694444444444,0,0)" xlink:href="#bg"/><use transform="matrix(0.010850694444444444,0,0,0.010850694444444444,13.335503472222221,0)" xlink:href="#as"/><use transform="matrix(0.010850694444444444,0,0,0.010850694444444444,26.671006944444443,0)" xlink:href="#aq"/></g><path d="M904-1102c199 0 220 177 220 381V0H956v-686c-3-114 0-215-60-264-70-33-125-4-158 71-26 56-39 140-39 252V0H531v-686c-3-114-1-215-61-264-78-41-136 24-157 84-24 69-39 159-39 259V0H105c-3-360 6-732-6-1082h149c6 50 3 123 8 175 36-100 83-195 216-195 135 0 166 79 196 196 42-105 93-196 236-196" id="bh"/><path d="M622-1349c296 4 497 117 497 404 0 282-193 424-485 431H353V0H162v-1349h460zm-15 684c195-3 320-88 320-277 0-184-129-255-328-254H353v531h254" id="bi"/><g id="u"><use transform="matrix(0.010850694444444444,0,0,0.010850694444444444,0,0)" xlink:href="#aq"/><use transform="matrix(0.010850694444444444,0,0,0.010850694444444444,13.335503472222221,0)" xlink:href="#aE"/><use transform="matrix(0.010850694444444444,0,0,0.010850694444444444,26.671006944444443,0)" xlink:href="#bh"/><use transform="matrix(0.010850694444444444,0,0,0.010850694444444444,40.006510416666664,0)" xlink:href="#au"/><use transform="matrix(0.010850694444444444,0,0,0.010850694444444444,53.342013888888886,0)" xlink:href="#av"/><use transform="matrix(0.010850694444444444,0,0,0.010850694444444444,66.67751736111111,0)" xlink:href="#bi"/><use transform="matrix(0.010850694444444444,0,0,0.010850694444444444,80.01302083333334,0)" xlink:href="#ay"/><use transform="matrix(0.010850694444444444,0,0,0.010850694444444444,93.34852430555557,0)" xlink:href="#ar"/><use transform="matrix(0.010850694444444444,0,0,0.010850694444444444,106.6840277777778,0)" xlink:href="#ay"/><use transform="matrix(0.010850694444444444,0,0,0.010850694444444444,120.01953125000003,0)" xlink:href="#an"/><use transform="matrix(0.010850694444444444,0,0,0.010850694444444444,133.35503472222226,0)" xlink:href="#av"/><use transform="matrix(0.010850694444444444,0,0,0.010850694444444444,146.69053819444449,0)" xlink:href="#ap"/><use transform="matrix(0.010850694444444444,0,0,0.010850694444444444,160.0260416666667,0)" xlink:href="#aE"/><use transform="matrix(0.010850694444444444,0,0,0.010850694444444444,173.36154513888894,0)" xlink:href="#at"/><use transform="matrix(0.010850694444444444,0,0,0.010850694444444444,186.69704861111117,0)" xlink:href="#bd"/><use transform="matrix(0.010850694444444444,0,0,0.010850694444444444,200.0325520833334,0)" xlink:href="#as"/><use transform="matrix(0.010850694444444444,0,0,0.010850694444444444,213.36805555555563,0)" xlink:href="#an"/><use transform="matrix(0.010850694444444444,0,0,0.010850694444444444,226.70355902777786,0)" xlink:href="#av"/><use transform="matrix(0.010850694444444444,0,0,0.010850694444444444,240.03906250000006,0)" xlink:href="#ao"/></g><path d="M875 0v-623H353V0H162v-1349h191v566h522v-566h191V0H875" id="bj"/><g id="v"><use transform="matrix(0.010850694444444444,0,0,0.010850694444444444,0,0)" xlink:href="#an"/><use transform="matrix(0.010850694444444444,0,0,0.010850694444444444,13.335503472222221,0)" xlink:href="#ay"/><use transform="matrix(0.010850694444444444,0,0,0.010850694444444444,26.671006944444443,0)" xlink:href="#aq"/><use transform="matrix(0.010850694444444444,0,0,0.010850694444444444,40.006510416666664,0)" xlink:href="#ay"/><use transform="matrix(0.010850694444444444,0,0,0.010850694444444444,53.342013888888886,0)" xlink:href="#bj"/><use transform="matrix(0.010850694444444444,0,0,0.010850694444444444,66.67751736111111,0)" xlink:href="#av"/><use transform="matrix(0.010850694444444444,0,0,0.010850694444444444,80.01302083333334,0)" xlink:href="#ar"/><use transform="matrix(0.010850694444444444,0,0,0.010850694444444444,93.34852430555557,0)" xlink:href="#ay"/><use transform="matrix(0.010850694444444444,0,0,0.010850694444444444,106.6840277777778,0)" xlink:href="#ao"/></g><path d="M709-1193V0H519v-1193H76v-156h1076v156H709" id="bk"/><g id="w"><use transform="matrix(0.010850694444444444,0,0,0.010850694444444444,0,0)" xlink:href="#aC"/><use transform="matrix(0.010850694444444444,0,0,0.010850694444444444,13.335503472222221,0)" xlink:href="#av"/><use transform="matrix(0.010850694444444444,0,0,0.010850694444444444,26.671006944444443,0)" xlink:href="#ax"/><use transform="matrix(0.010850694444444444,0,0,0.010850694444444444,40.006510416666664,0)" xlink:href="#ay"/><use transform="matrix(0.010850694444444444,0,0,0.010850694444444444,53.342013888888886,0)" xlink:href="#aw"/><use transform="matrix(0.010850694444444444,0,0,0.010850694444444444,66.67751736111111,0)" xlink:href="#aD"/><use transform="matrix(0.010850694444444444,0,0,0.010850694444444444,80.01302083333334,0)" xlink:href="#ay"/><use transform="matrix(0.010850694444444444,0,0,0.010850694444444444,93.34852430555557,0)" xlink:href="#aq"/><use transform="matrix(0.010850694444444444,0,0,0.010850694444444444,106.6840277777778,0)" xlink:href="#aE"/><use transform="matrix(0.010850694444444444,0,0,0.010850694444444444,120.01953125000003,0)" xlink:href="#bk"/><use transform="matrix(0.010850694444444444,0,0,0.010850694444444444,133.35503472222226,0)" xlink:href="#am"/><use transform="matrix(0.010850694444444444,0,0,0.010850694444444444,146.69053819444449,0)" xlink:href="#bh"/><use transform="matrix(0.010850694444444444,0,0,0.010850694444444444,160.0260416666667,0)" xlink:href="#aE"/></g><g id="x"><use transform="matrix(0.010850694444444444,0,0,0.010850694444444444,0,0)" xlink:href="#bc"/><use transform="matrix(0.010850694444444444,0,0,0.010850694444444444,13.335503472222221,0)" xlink:href="#aE"/><use transform="matrix(0.010850694444444444,0,0,0.010850694444444444,26.671006944444443,0)" xlink:href="#as"/><use transform="matrix(0.010850694444444444,0,0,0.010850694444444444,40.006510416666664,0)" xlink:href="#bc"/><use transform="matrix(0.010850694444444444,0,0,0.010850694444444444,53.342013888888886,0)" xlink:href="#av"/><use transform="matrix(0.010850694444444444,0,0,0.010850694444444444,66.67751736111111,0)" xlink:href="#ar"/><use transform="matrix(0.010850694444444444,0,0,0.010850694444444444,80.01302083333334,0)" xlink:href="#ao"/></g><g id="y"><use transform="matrix(0.010850694444444444,0,0,0.010850694444444444,0,0)" xlink:href="#ap"/><use transform="matrix(0.010850694444444444,0,0,0.010850694444444444,13.335503472222221,0)" xlink:href="#aE"/><use transform="matrix(0.010850694444444444,0,0,0.010850694444444444,26.671006944444443,0)" xlink:href="#as"/><use transform="matrix(0.010850694444444444,0,0,0.010850694444444444,40.006510416666664,0)" xlink:href="#bc"/><use transform="matrix(0.010850694444444444,0,0,0.010850694444444444,53.342013888888886,0)" xlink:href="#av"/><use transform="matrix(0.010850694444444444,0,0,0.010850694444444444,66.67751736111111,0)" xlink:href="#ar"/></g><g id="z"><use transform="matrix(0.010850694444444444,0,0,0.010850694444444444,0,0)" xlink:href="#ar"/><use transform="matrix(0.010850694444444444,0,0,0.010850694444444444,13.335503472222221,0)" xlink:href="#aE"/><use transform="matrix(0.010850694444444444,0,0,0.010850694444444444,26.671006944444443,0)" xlink:href="#bc"/><use transform="matrix(0.010850694444444444,0,0,0.010850694444444444,40.006510416666664,0)" xlink:href="#bd"/><use transform="matrix(0.010850694444444444,0,0,0.010850694444444444,53.342013888888886,0)" xlink:href="#aw"/><use transform="matrix(0.010850694444444444,0,0,0.010850694444444444,66.67751736111111,0)" xlink:href="#aq"/><use transform="matrix(0.010850694444444444,0,0,0.010850694444444444,80.01302083333334,0)" xlink:href="#ay"/><use transform="matrix(0.010850694444444444,0,0,0.010850694444444444,93.34852430555557,0)" xlink:href="#an"/><use transform="matrix(0.010850694444444444,0,0,0.010850694444444444,106.6840277777778,0)" xlink:href="#av"/><use transform="matrix(0.010850694444444444,0,0,0.010850694444444444,120.01953125000003,0)" xlink:href="#ao"/></g><path d="M1121-976c0 225-142 341-344 379L1177 0H957L591-575H353V0H162v-1349h482c281 3 477 100 477 373zM633-726c181-1 296-73 296-247 0-149-101-223-304-223H353v470h280" id="bl"/><path d="M1034 0L896-382H333L196 0H0l510-1349h217L1228 0h-194zM847-531c-77-225-157-447-231-674-69 231-154 451-232 674h463" id="bm"/><g id="A"><use transform="matrix(0.010850694444444444,0,0,0.010850694444444444,0,0)" xlink:href="#bl"/><use transform="matrix(0.010850694444444444,0,0,0.010850694444444444,13.335503472222221,0)" xlink:href="#aE"/><use transform="matrix(0.010850694444444444,0,0,0.010850694444444444,26.671006944444443,0)" xlink:href="#bc"/><use transform="matrix(0.010850694444444444,0,0,0.010850694444444444,40.006510416666664,0)" xlink:href="#bd"/><use transform="matrix(0.010850694444444444,0,0,0.010850694444444444,53.342013888888886,0)" xlink:href="#aw"/><use transform="matrix(0.010850694444444444,0,0,0.010850694444444444,66.67751736111111,0)" xlink:href="#aq"/><use transform="matrix(0.010850694444444444,0,0,0.010850694444444444,80.01302083333334,0)" xlink:href="#ay"/><use transform="matrix(0.010850694444444444,0,0,0.010850694444444444,93.34852430555557,0)" xlink:href="#an"/><use transform="matrix(0.010850694444444444,0,0,0.010850694444444444,106.6840277777778,0)" xlink:href="#av"/><use transform="matrix(0.010850694444444444,0,0,0.010850694444444444,120.01953125000003,0)" xlink:href="#bm"/><use transform="matrix(0.010850694444444444,0,0,0.010850694444444444,133.35503472222226,0)" xlink:href="#as"/><use transform="matrix(0.010850694444444444,0,0,0.010850694444444444,146.69053819444449,0)" xlink:href="#ay"/><use transform="matrix(0.010850694444444444,0,0,0.010850694444444444,160.0260416666667,0)" xlink:href="#aw"/><use transform="matrix(0.010850694444444444,0,0,0.010850694444444444,173.36154513888894,0)" xlink:href="#am"/><use transform="matrix(0.010850694444444444,0,0,0.010850694444444444,186.69704861111117,0)" xlink:href="#bc"/><use transform="matrix(0.010850694444444444,0,0,0.010850694444444444,200.0325520833334,0)" xlink:href="#aE"/></g><path d="M687-608v428H540v-428H116v-146h424v-428h147v428h424v146H687" id="bn"/><use transform="matrix(0.010850694444444444,0,0,0.010850694444444444,0,0)" xlink:href="#bn" id="B"/><path d="M891-1484c-201 251-362 514-362 954 0 441 161 704 362 955H701C500 176 342-90 342-532c0-440 159-704 359-952h190" id="bo"/><path d="M528-1484c201 248 357 511 357 952 0 442-156 709-357 957H336C537 174 700-89 700-530c0-440-163-703-364-954h192" id="bp"/><g id="C"><use transform="matrix(0.010850694444444444,0,0,0.010850694444444444,0,0)" xlink:href="#at"/><use transform="matrix(0.010850694444444444,0,0,0.010850694444444444,13.335503472222221,0)" xlink:href="#aE"/><use transform="matrix(0.010850694444444444,0,0,0.010850694444444444,26.671006944444443,0)" xlink:href="#aq"/><use transform="matrix(0.010850694444444444,0,0,0.010850694444444444,40.006510416666664,0)" xlink:href="#bl"/><use transform="matrix(0.010850694444444444,0,0,0.010850694444444444,53.342013888888886,0)" xlink:href="#aE"/><use transform="matrix(0.010850694444444444,0,0,0.010850694444444444,66.67751736111111,0)" xlink:href="#bc"/><use transform="matrix(0.010850694444444444,0,0,0.010850694444444444,80.01302083333334,0)" xlink:href="#bd"/><use transform="matrix(0.010850694444444444,0,0,0.010850694444444444,93.34852430555557,0)" xlink:href="#bh"/><use transform="matrix(0.010850694444444444,0,0,0.010850694444444444,106.6840277777778,0)" xlink:href="#av"/><use transform="matrix(0.010850694444444444,0,0,0.010850694444444444,120.01953125000003,0)" xlink:href="#bo"/><use transform="matrix(0.010850694444444444,0,0,0.010850694444444444,133.35503472222226,0)" xlink:href="#bp"/><use transform="matrix(0.010850694444444444,0,0,0.010850694444444444,146.69053819444449,0)" xlink:href="#ao"/></g><g id="D"><use transform="matrix(0.010850694444444444,0,0,0.010850694444444444,0,0)" xlink:href="#at"/><use transform="matrix(0.010850694444444444,0,0,0.010850694444444444,13.335503472222221,0)" xlink:href="#aE"/><use transform="matrix(0.010850694444444444,0,0,0.010850694444444444,26.671006944444443,0)" xlink:href="#aq"/><use transform="matrix(0.010850694444444444,0,0,0.010850694444444444,40.006510416666664,0)" xlink:href="#ap"/><use transform="matrix(0.010850694444444444,0,0,0.010850694444444444,53.342013888888886,0)" xlink:href="#aE"/><use transform="matrix(0.010850694444444444,0,0,0.010850694444444444,66.67751736111111,0)" xlink:href="#as"/><use transform="matrix(0.010850694444444444,0,0,0.010850694444444444,80.01302083333334,0)" xlink:href="#bc"/><use transform="matrix(0.010850694444444444,0,0,0.010850694444444444,93.34852430555557,0)" xlink:href="#av"/><use transform="matrix(0.010850694444444444,0,0,0.010850694444444444,106.6840277777778,0)" xlink:href="#ar"/><use transform="matrix(0.010850694444444444,0,0,0.010850694444444444,120.01953125000003,0)" xlink:href="#bo"/><use transform="matrix(0.010850694444444444,0,0,0.010850694444444444,133.35503472222226,0)" xlink:href="#bp"/><use transform="matrix(0.010850694444444444,0,0,0.010850694444444444,146.69053819444449,0)" xlink:href="#ao"/></g><g id="E"><use transform="matrix(0.010850694444444444,0,0,0.010850694444444444,0,0)" xlink:href="#at"/><use transform="matrix(0.010850694444444444,0,0,0.010850694444444444,13.335503472222221,0)" xlink:href="#aE"/><use transform="matrix(0.010850694444444444,0,0,0.010850694444444444,26.671006944444443,0)" xlink:href="#aq"/><use transform="matrix(0.010850694444444444,0,0,0.010850694444444444,40.006510416666664,0)" xlink:href="#bl"/><use transform="matrix(0.010850694444444444,0,0,0.010850694444444444,53.342013888888886,0)" xlink:href="#aE"/><use transform="matrix(0.010850694444444444,0,0,0.010850694444444444,66.67751736111111,0)" xlink:href="#bc"/><use transform="matrix(0.010850694444444444,0,0,0.010850694444444444,80.01302083333334,0)" xlink:href="#bd"/><use transform="matrix(0.010850694444444444,0,0,0.010850694444444444,93.34852430555557,0)" xlink:href="#aw"/><use transform="matrix(0.010850694444444444,0,0,0.010850694444444444,106.6840277777778,0)" xlink:href="#aq"/><use transform="matrix(0.010850694444444444,0,0,0.010850694444444444,120.01953125000003,0)" xlink:href="#ay"/><use transform="matrix(0.010850694444444444,0,0,0.010850694444444444,133.35503472222226,0)" xlink:href="#an"/><use transform="matrix(0.010850694444444444,0,0,0.010850694444444444,146.69053819444449,0)" xlink:href="#av"/><use transform="matrix(0.010850694444444444,0,0,0.010850694444444444,160.0260416666667,0)" xlink:href="#bo"/><use transform="matrix(0.010850694444444444,0,0,0.010850694444444444,173.36154513888894,0)" xlink:href="#bp"/><use transform="matrix(0.010850694444444444,0,0,0.010850694444444444,186.69704861111117,0)" xlink:href="#ao"/></g><path d="M783 20c-382 0-661-292-661-764 0-473 279-766 661-766 302 0 548 182 601 489h-190c-42-204-217-313-411-313-268 0-476 208-476 590 0 381 209 588 476 588 195 0 369-110 411-313h190c-52 303-296 489-601 489" id="bq"/><g id="F"><use transform="matrix(0.010850694444444444,0,0,0.010850694444444444,0,0)" xlink:href="#bq"/><use transform="matrix(0.010850694444444444,0,0,0.010850694444444444,16.23263888888889,0)" xlink:href="#aK"/><use transform="matrix(0.010850694444444444,0,0,0.010850694444444444,21.614583333333336,0)" xlink:href="#aX"/><use transform="matrix(0.010850694444444444,0,0,0.010850694444444444,26.99652777777778,0)" xlink:href="#aH"/><use transform="matrix(0.010850694444444444,0,0,0.010850694444444444,39.95225694444444,0)" xlink:href="#aY"/><use transform="matrix(0.010850694444444444,0,0,0.010850694444444444,53.08159722222222,0)" xlink:href="#aI"/></g><path fill="#333" d="M683-1118v229H474v562c0 71 29 104 102 104 23 0 73-7 95-13l43 225C647 9 580 16 520 16 296 16 174-96 174-301v-588H20v-229h154v-266h300v266h209" id="br"/><path fill="#333" d="M440 22C227 22 68-92 68-313c0-250 202-322 422-343 195-21 271-24 271-105 0-95-63-149-175-149-116 0-187 57-211 129l-275-46c57-194 237-305 487-305 240 0 474 108 474 379V0H777v-155h-10C713-51 605 22 440 22zm85-211c140 0 238-93 238-211v-121c-37 26-156 42-222 51-111 16-185 59-185 149 0 87 70 132 169 132" id="bs"/><path fill="#333" d="M128 0v-1118h290v195h12c54-169 184-238 367-200v268c-27-8-86-15-130-15-138 0-239 95-239 234V0H128" id="bt"/><path fill="#333" d="M625 442c-280 0-454-114-503-274l258-72c28 63 97 128 243 128 153 0 246-69 246-216v-206h-23C805-108 717-16 536-16 284-16 81-191 81-561c0-378 208-571 456-571 188 0 280 113 321 202h13v-188h295V-9c0 303-226 451-541 451zm5-686c153 0 240-119 240-319 0-198-86-329-240-329-158 0-241 137-241 329 0 195 85 319 241 319" id="bu"/><path fill="#333" d="M633 22C291 22 81-200 81-553c0-345 210-579 537-579 292 0 525 185 525 567v84H378c7 183 109 277 260 277 105 0 184-46 216-132l272 51C1071-99 893 22 633 22zM380-669h474c-15-146-94-237-233-237-143 0-229 99-241 237" id="bv"/><g id="G"><use transform="matrix(0.010850694444444444,0,0,0.010850694444444444,0,0)" xlink:href="#br"/><use transform="matrix(0.010850694444444444,0,0,0.010850694444444444,8.246527777777779,0)" xlink:href="#bs"/><use transform="matrix(0.010850694444444444,0,0,0.010850694444444444,21.14800347222222,0)" xlink:href="#bt"/><use transform="matrix(0.010850694444444444,0,0,0.010850694444444444,29.654947916666664,0)" xlink:href="#bu"/><use transform="matrix(0.010850694444444444,0,0,0.010850694444444444,43.69574652777777,0)" xlink:href="#bv"/><use transform="matrix(0.010850694444444444,0,0,0.010850694444444444,56.933593749999986,0)" xlink:href="#br"/></g><path d="M795 20C377 20 94-272 94-743c0-483 302-767 694-767 335 0 593 206 635 500h-310c-42-142-154-229-320-229-230 0-389 177-389 493s154 495 393 495c212 0 340-120 345-311H818v-232h620v186c0 391-269 628-643 628" id="bw"/><g id="H"><use transform="matrix(0.010850694444444444,0,0,0.010850694444444444,0,0)" xlink:href="#bw"/><use transform="matrix(0.010850694444444444,0,0,0.010850694444444444,16.67751736111111,0)" xlink:href="#ba"/><use transform="matrix(0.010850694444444444,0,0,0.010850694444444444,22.69965277777778,0)" xlink:href="#aa"/><use transform="matrix(0.010850694444444444,0,0,0.010850694444444444,31.20659722222222,0)" xlink:href="#ah"/><use transform="matrix(0.010850694444444444,0,0,0.010850694444444444,44.83506944444444,0)" xlink:href="#ag"/><use transform="matrix(0.010850694444444444,0,0,0.010850694444444444,57.28081597222222,0)" xlink:href="#ad"/><use transform="matrix(0.010850694444444444,0,0,0.010850694444444444,70.35590277777777,0)" xlink:href="#ah"/><use transform="matrix(0.010850694444444444,0,0,0.010850694444444444,83.984375,0)" xlink:href="#ak"/><use transform="matrix(0.010850694444444444,0,0,0.010850694444444444,97.99262152777777,0)" xlink:href="#ba"/><use transform="matrix(0.010850694444444444,0,0,0.010850694444444444,104.01475694444444,0)" xlink:href="#ah"/><use transform="matrix(0.010850694444444444,0,0,0.010850694444444444,116.89453125,0)" xlink:href="#ai"/><use transform="matrix(0.010850694444444444,0,0,0.010850694444444444,132.97526041666666,0)" xlink:href="#aj"/><use transform="matrix(0.010850694444444444,0,0,0.010850694444444444,146.98350694444443,0)" xlink:href="#ac"/><use transform="matrix(0.010850694444444444,0,0,0.010850694444444444,159.88498263888889,0)" xlink:href="#ak"/><use transform="matrix(0.010850694444444444,0,0,0.010850694444444444,173.89322916666666,0)" xlink:href="#Y"/><use transform="matrix(0.010850694444444444,0,0,0.010850694444444444,181.81423611111111,0)" xlink:href="#Z"/><use transform="matrix(0.010850694444444444,0,0,0.010850694444444444,195.05208333333331,0)" xlink:href="#aa"/></g><g id="I"><use transform="matrix(0.010850694444444444,0,0,0.010850694444444444,0,0)" xlink:href="#aG"/><use transform="matrix(0.010850694444444444,0,0,0.010850694444444444,13.628472222222221,0)" xlink:href="#aH"/><use transform="matrix(0.010850694444444444,0,0,0.010850694444444444,26.58420138888889,0)" xlink:href="#aI"/><use transform="matrix(0.010850694444444444,0,0,0.010850694444444444,33.854166666666664,0)" xlink:href="#aJ"/><use transform="matrix(0.010850694444444444,0,0,0.010850694444444444,49.89149305555556,0)" xlink:href="#aH"/><use transform="matrix(0.010850694444444444,0,0,0.010850694444444444,62.84722222222222,0)" xlink:href="#aK"/><use transform="matrix(0.010850694444444444,0,0,0.010850694444444444,68.5546875,0)" xlink:href="#aI"/><use transform="matrix(0.010850694444444444,0,0,0.010850694444444444,75.93315972222221,0)" xlink:href="#aL"/><use transform="matrix(0.010850694444444444,0,0,0.010850694444444444,88.41145833333333,0)" xlink:href="#aM"/><use transform="matrix(0.010850694444444444,0,0,0.010850694444444444,104.99131944444444,0)" xlink:href="#aN"/><use transform="matrix(0.010850694444444444,0,0,0.010850694444444444,113.3572048611111,0)" xlink:href="#aL"/><use transform="matrix(0.010850694444444444,0,0,0.010850694444444444,125.83550347222224,0)" xlink:href="#aO"/><use transform="matrix(0.010850694444444444,0,0,0.010850694444444444,138.97569444444446,0)" xlink:href="#aP"/><use transform="matrix(0.010850694444444444,0,0,0.010850694444444444,147.08116319444446,0)" xlink:href="#aQ"/><use transform="matrix(0.010850694444444444,0,0,0.010850694444444444,155.18663194444446,0)" xlink:href="#aR"/></g><g id="J"><use transform="matrix(0.010850694444444444,0,0,0.010850694444444444,0,0)" xlink:href="#aS"/><use transform="matrix(0.010850694444444444,0,0,0.010850694444444444,8.22482638888889,0)" xlink:href="#aK"/><use transform="matrix(0.010850694444444444,0,0,0.010850694444444444,13.606770833333332,0)" xlink:href="#aT"/><use transform="matrix(0.010850694444444444,0,0,0.010850694444444444,27.1484375,0)" xlink:href="#aL"/><use transform="matrix(0.010850694444444444,0,0,0.010850694444444444,39.626736111111114,0)" xlink:href="#aI"/></g><path fill="#333" d="M128 0v-1118h300V0H128zm150-1264c-91 0-165-68-165-154 0-85 74-154 165-154 90 0 165 69 165 154 0 86-75 154-165 154" id="bx"/><path fill="#333" d="M128 0v-1118h278l12 217c60-163 185-234 319-234 143 0 236 81 288 251 63-172 205-251 359-251 205 0 357 138 357 381V0h-301v-697c0-126-76-187-177-187-114 0-184 79-184 196V0H789v-705c0-109-72-179-174-179-106 0-187 74-187 208V0H128" id="by"/><path fill="#333" d="M128 418v-1536h295v188h14c41-89 129-202 319-202 248 0 453 193 453 575 0 372-197 576-455 576-183 0-275-108-317-198h-9v597H128zm534-640c156 0 240-139 240-336 0-196-83-334-240-334-154 0-241 131-241 334 0 202 88 336 241 336" id="bz"/><path fill="#333" d="M428-1490V0H128v-1490h300" id="bA"/><path fill="#333" d="M428-647V0H128v-1118h283l4 231c63-156 176-245 348-245 232 0 384 159 384 421V0H847v-659c0-139-76-222-202-222-128 0-217 86-217 234" id="bB"/><g id="K"><use transform="matrix(0.010850694444444444,0,0,0.010850694444444444,0,0)" xlink:href="#bx"/><use transform="matrix(0.010850694444444444,0,0,0.010850694444444444,6.022135416666666,0)" xlink:href="#by"/><use transform="matrix(0.010850694444444444,0,0,0.010850694444444444,26.30208333333333,0)" xlink:href="#bz"/><use transform="matrix(0.010850694444444444,0,0,0.010850694444444444,40.31032986111111,0)" xlink:href="#bA"/><use transform="matrix(0.010850694444444444,0,0,0.010850694444444444,46.33246527777778,0)" xlink:href="#bv"/><use transform="matrix(0.010850694444444444,0,0,0.010850694444444444,59.570312499999986,0)" xlink:href="#by"/><use transform="matrix(0.010850694444444444,0,0,0.010850694444444444,79.85026041666666,0)" xlink:href="#bv"/><use transform="matrix(0.010850694444444444,0,0,0.010850694444444444,93.08810763888889,0)" xlink:href="#bB"/><use transform="matrix(0.010850694444444444,0,0,0.010850694444444444,106.92274305555556,0)" xlink:href="#br"/><use transform="matrix(0.010850694444444444,0,0,0.010850694444444444,115.16927083333333,0)" xlink:href="#bs"/></g><path d="M428-1490V0H128v-1490h300" id="bC"/><g id="L"><use transform="matrix(0.010850694444444444,0,0,0.010850694444444444,0,0)" xlink:href="#ai"/><use transform="matrix(0.010850694444444444,0,0,0.010850694444444444,16.080729166666664,0)" xlink:href="#ad"/><use transform="matrix(0.010850694444444444,0,0,0.010850694444444444,29.15581597222222,0)" xlink:href="#Z"/><use transform="matrix(0.010850694444444444,0,0,0.010850694444444444,42.39366319444444,0)" xlink:href="#bC"/><use transform="matrix(0.010850694444444444,0,0,0.010850694444444444,48.41579861111111,0)" xlink:href="#Z"/><use transform="matrix(0.010850694444444444,0,0,0.010850694444444444,61.65364583333333,0)" xlink:href="#aa"/><use transform="matrix(0.010850694444444444,0,0,0.010850694444444444,70.16059027777777,0)" xlink:href="#ah"/><use transform="matrix(0.010850694444444444,0,0,0.010850694444444444,83.7890625,0)" xlink:href="#bb"/><use transform="matrix(0.010850694444444444,0,0,0.010850694444444444,104.06901041666666,0)" xlink:href="#Z"/><use transform="matrix(0.010850694444444444,0,0,0.010850694444444444,117.30685763888889,0)" xlink:href="#Y"/><use transform="matrix(0.010850694444444444,0,0,0.010850694444444444,125.44487847222221,0)" xlink:href="#aa"/><use transform="matrix(0.010850694444444444,0,0,0.010850694444444444,133.95182291666666,0)" xlink:href="#ah"/></g><path d="M52 0l541-1490h220L1361 0h-200l-149-416H398L254 0H52zm404-582h497c-103-290-145-390-251-756-108 377-145 460-246 756" id="bD"/><path d="M613 24c-304 0-509-231-509-576 0-350 205-580 509-580 216 0 392 114 453 309l-173 49c-33-115-133-197-280-197-223 0-326 196-326 419 0 220 103 415 326 415 150 0 252-85 285-206l172 49C1010-95 832 24 613 24" id="bE"/><path d="M57 0l534-763-501-727h220c122 187 296 416 391 605 94-191 272-419 396-605h215L811-770 1340 0h-219C986-204 811-426 699-640 588-430 407-202 273 0H57" id="bF"/><g id="M"><use transform="matrix(0.010850694444444444,0,0,0.010850694444444444,0,0)" xlink:href="#aG"/><use transform="matrix(0.010850694444444444,0,0,0.010850694444444444,13.628472222222221,0)" xlink:href="#aH"/><use transform="matrix(0.010850694444444444,0,0,0.010850694444444444,26.58420138888889,0)" xlink:href="#aI"/><use transform="matrix(0.010850694444444444,0,0,0.010850694444444444,33.854166666666664,0)" xlink:href="#bD"/><use transform="matrix(0.010850694444444444,0,0,0.010850694444444444,49.186197916666664,0)" xlink:href="#bE"/><use transform="matrix(0.010850694444444444,0,0,0.010850694444444444,61.881510416666664,0)" xlink:href="#aH"/><use transform="matrix(0.010850694444444444,0,0,0.010850694444444444,74.83723958333333,0)" xlink:href="#aK"/><use transform="matrix(0.010850694444444444,0,0,0.010850694444444444,80.21918402777777,0)" xlink:href="#aH"/><use transform="matrix(0.010850694444444444,0,0,0.010850694444444444,93.17491319444444,0)" xlink:href="#aN"/><use transform="matrix(0.010850694444444444,0,0,0.010850694444444444,101.54079861111111,0)" xlink:href="#aL"/><use transform="matrix(0.010850694444444444,0,0,0.010850694444444444,114.01909722222224,0)" xlink:href="#bE"/><use transform="matrix(0.010850694444444444,0,0,0.010850694444444444,126.9314236111111,0)" xlink:href="#aL"/><use transform="matrix(0.010850694444444444,0,0,0.010850694444444444,139.40972222222223,0)" xlink:href="#aT"/><use transform="matrix(0.010850694444444444,0,0,0.010850694444444444,152.10503472222223,0)" xlink:href="#bF"/><use transform="matrix(0.010850694444444444,0,0,0.010850694444444444,167.26345486111111,0)" xlink:href="#aP"/><use transform="matrix(0.010850694444444444,0,0,0.010850694444444444,175.36892361111111,0)" xlink:href="#aQ"/></g><path d="M600 0v-610L52-1490h220l295 481c50 82 90 150 130 243 40-96 80-164 128-243l294-481h219L790-610V0H600" id="bG"/><g id="N"><use transform="matrix(0.010850694444444444,0,0,0.010850694444444444,0,0)" xlink:href="#aG"/><use transform="matrix(0.010850694444444444,0,0,0.010850694444444444,13.628472222222221,0)" xlink:href="#aH"/><use transform="matrix(0.010850694444444444,0,0,0.010850694444444444,26.58420138888889,0)" xlink:href="#aI"/><use transform="matrix(0.010850694444444444,0,0,0.010850694444444444,33.854166666666664,0)" xlink:href="#bD"/><use transform="matrix(0.010850694444444444,0,0,0.010850694444444444,49.186197916666664,0)" xlink:href="#bE"/><use transform="matrix(0.010850694444444444,0,0,0.010850694444444444,61.881510416666664,0)" xlink:href="#aH"/><use transform="matrix(0.010850694444444444,0,0,0.010850694444444444,74.83723958333333,0)" xlink:href="#aK"/><use transform="matrix(0.010850694444444444,0,0,0.010850694444444444,80.21918402777777,0)" xlink:href="#aH"/><use transform="matrix(0.010850694444444444,0,0,0.010850694444444444,93.17491319444444,0)" xlink:href="#aN"/><use transform="matrix(0.010850694444444444,0,0,0.010850694444444444,101.54079861111111,0)" xlink:href="#aL"/><use transform="matrix(0.010850694444444444,0,0,0.010850694444444444,114.01909722222224,0)" xlink:href="#bE"/><use transform="matrix(0.010850694444444444,0,0,0.010850694444444444,126.9314236111111,0)" xlink:href="#aL"/><use transform="matrix(0.010850694444444444,0,0,0.010850694444444444,139.40972222222223,0)" xlink:href="#aT"/><use transform="matrix(0.010850694444444444,0,0,0.010850694444444444,150.84635416666666,0)" xlink:href="#bG"/><use transform="matrix(0.010850694444444444,0,0,0.010850694444444444,165.92881944444443,0)" xlink:href="#aP"/><use transform="matrix(0.010850694444444444,0,0,0.010850694444444444,174.03428819444443,0)" xlink:href="#aQ"/></g><path d="M577 24c-279 0-473-224-473-580 0-354 195-576 474-576 218 0 287 134 324 193h14v-551h180V0H922v-173h-20C865-111 790 24 577 24zm27-161c203 0 314-172 314-421 0-247-108-413-314-413-212 0-317 181-317 413 0 235 108 421 317 421" id="bH"/><path d="M538 24C308 24 148-78 108-271l171-41c32 123 123 178 257 178 156 0 256-77 256-169 0-77-54-128-164-154l-186-44c-203-48-300-148-300-305 0-192 176-326 414-326 230 0 351 112 402 269l-163 42c-31-80-94-158-238-158-133 0-233 69-233 162 0 83 57 129 188 160l169 40c203 48 298 149 298 302 0 196-179 339-441 339" id="bI"/><path d="M180 0v-1490h528c311 0 458 177 458 395 0 191-114 278-244 313v14c139 9 302 137 302 371 0 225-148 397-499 397H180zm190-168h350c232 0 321-102 321-231 0-149-120-277-311-277H370v508zm0-668h328c160 0 286-101 286-255 0-129-87-231-280-231H370v486" id="bJ"/><g id="O"><use transform="matrix(0.010850694444444444,0,0,0.010850694444444444,0,0)" xlink:href="#aK"/><use transform="matrix(0.010850694444444444,0,0,0.010850694444444444,5.381944444444445,0)" xlink:href="#aH"/><use transform="matrix(0.010850694444444444,0,0,0.010850694444444444,18.33767361111111,0)" xlink:href="#aN"/><use transform="matrix(0.010850694444444444,0,0,0.010850694444444444,27.05078125,0)" xlink:href="#aJ"/><use transform="matrix(0.010850694444444444,0,0,0.010850694444444444,43.088107638888886,0)" xlink:href="#aL"/><use transform="matrix(0.010850694444444444,0,0,0.010850694444444444,55.56640625,0)" xlink:href="#bH"/><use transform="matrix(0.010850694444444444,0,0,0.010850694444444444,69.17317708333333,0)" xlink:href="#aT"/><use transform="matrix(0.010850694444444444,0,0,0.010850694444444444,82.4978298611111,0)" xlink:href="#bI"/><use transform="matrix(0.010850694444444444,0,0,0.010850694444444444,94.22743055555556,0)" xlink:href="#bJ"/><use transform="matrix(0.010850694444444444,0,0,0.010850694444444444,108.76736111111111,0)" xlink:href="#aN"/><use transform="matrix(0.010850694444444444,0,0,0.010850694444444444,117.13324652777777,0)" xlink:href="#aO"/><use transform="matrix(0.010850694444444444,0,0,0.010850694444444444,130.2734375,0)" xlink:href="#aI"/><use transform="matrix(0.010850694444444444,0,0,0.010850694444444444,137.32638888888889,0)" xlink:href="#aT"/><use transform="matrix(0.010850694444444444,0,0,0.010850694444444444,150.65104166666666,0)" xlink:href="#bI"/></g><path d="M677 24c-213 0-288-135-325-197h-20V0H158v-1490h180v551h14c37-59 106-193 324-193 279 0 474 222 474 576 0 356-194 580-473 580zm-27-161c209 0 317-186 317-421 0-232-105-413-317-413-206 0-314 166-314 413 0 249 111 421 314 421" id="bK"/><g id="P"><use transform="matrix(0.010850694444444444,0,0,0.010850694444444444,0,0)" xlink:href="#bE"/><use transform="matrix(0.010850694444444444,0,0,0.010850694444444444,12.91232638888889,0)" xlink:href="#aL"/><use transform="matrix(0.010850694444444444,0,0,0.010850694444444444,25.390625,0)" xlink:href="#aK"/><use transform="matrix(0.010850694444444444,0,0,0.010850694444444444,30.772569444444443,0)" xlink:href="#aX"/><use transform="matrix(0.010850694444444444,0,0,0.010850694444444444,36.154513888888886,0)" xlink:href="#bK"/><use transform="matrix(0.010850694444444444,0,0,0.010850694444444444,49.76128472222221,0)" xlink:href="#aN"/><use transform="matrix(0.010850694444444444,0,0,0.010850694444444444,58.12717013888888,0)" xlink:href="#aL"/><use transform="matrix(0.010850694444444444,0,0,0.010850694444444444,70.60546874999999,0)" xlink:href="#aN"/><use transform="matrix(0.010850694444444444,0,0,0.010850694444444444,78.97135416666666,0)" xlink:href="#aP"/><use transform="matrix(0.010850694444444444,0,0,0.010850694444444444,87.07682291666666,0)" xlink:href="#aQ"/></g><g id="Q"><use transform="matrix(0.010850694444444444,0,0,0.010850694444444444,0,0)" xlink:href="#ai"/><use transform="matrix(0.010850694444444444,0,0,0.010850694444444444,16.080729166666664,0)" xlink:href="#ad"/><use transform="matrix(0.010850694444444444,0,0,0.010850694444444444,29.15581597222222,0)" xlink:href="#Z"/><use transform="matrix(0.010850694444444444,0,0,0.010850694444444444,42.39366319444444,0)" xlink:href="#bC"/><use transform="matrix(0.010850694444444444,0,0,0.010850694444444444,48.41579861111111,0)" xlink:href="#Z"/><use transform="matrix(0.010850694444444444,0,0,0.010850694444444444,61.65364583333333,0)" xlink:href="#aa"/><use transform="matrix(0.010850694444444444,0,0,0.010850694444444444,70.16059027777777,0)" xlink:href="#ah"/><use transform="matrix(0.010850694444444444,0,0,0.010850694444444444,83.7890625,0)" xlink:href="#bb"/><use transform="matrix(0.010850694444444444,0,0,0.010850694444444444,104.06901041666666,0)" xlink:href="#Z"/><use transform="matrix(0.010850694444444444,0,0,0.010850694444444444,117.30685763888889,0)" xlink:href="#Y"/><use transform="matrix(0.010850694444444444,0,0,0.010850694444444444,125.44487847222221,0)" xlink:href="#aa"/><use transform="matrix(0.010850694444444444,0,0,0.010850694444444444,133.95182291666666,0)" xlink:href="#ah"/><use transform="matrix(0.010850694444444444,0,0,0.010850694444444444,146.83159722222223,0)" xlink:href="#ai"/><use transform="matrix(0.010850694444444444,0,0,0.010850694444444444,162.91232638888889,0)" xlink:href="#aj"/><use transform="matrix(0.010850694444444444,0,0,0.010850694444444444,176.92057291666666,0)" xlink:href="#ac"/><use transform="matrix(0.010850694444444444,0,0,0.010850694444444444,189.82204861111111,0)" xlink:href="#ak"/><use transform="matrix(0.010850694444444444,0,0,0.010850694444444444,203.83029513888889,0)" xlink:href="#Y"/><use transform="matrix(0.010850694444444444,0,0,0.010850694444444444,211.75130208333331,0)" xlink:href="#Z"/><use transform="matrix(0.010850694444444444,0,0,0.010850694444444444,224.9891493055556,0)" xlink:href="#aa"/></g><g id="R"><use transform="matrix(0.010850694444444444,0,0,0.010850694444444444,0,0)" xlink:href="#bw"/><use transform="matrix(0.010850694444444444,0,0,0.010850694444444444,16.67751736111111,0)" xlink:href="#ba"/><use transform="matrix(0.010850694444444444,0,0,0.010850694444444444,22.69965277777778,0)" xlink:href="#aa"/><use transform="matrix(0.010850694444444444,0,0,0.010850694444444444,31.20659722222222,0)" xlink:href="#ah"/><use transform="matrix(0.010850694444444444,0,0,0.010850694444444444,44.83506944444444,0)" xlink:href="#ag"/><use transform="matrix(0.010850694444444444,0,0,0.010850694444444444,57.28081597222222,0)" xlink:href="#ad"/><use transform="matrix(0.010850694444444444,0,0,0.010850694444444444,70.35590277777777,0)" xlink:href="#ah"/><use transform="matrix(0.010850694444444444,0,0,0.010850694444444444,83.984375,0)" xlink:href="#ak"/><use transform="matrix(0.010850694444444444,0,0,0.010850694444444444,97.99262152777777,0)" xlink:href="#ba"/><use transform="matrix(0.010850694444444444,0,0,0.010850694444444444,104.01475694444444,0)" xlink:href="#ah"/></g><g id="S"><use transform="matrix(0.010850694444444444,0,0,0.010850694444444444,0,0)" xlink:href="#aG"/><use transform="matrix(0.010850694444444444,0,0,0.010850694444444444,13.628472222222221,0)" xlink:href="#aH"/><use transform="matrix(0.010850694444444444,0,0,0.010850694444444444,26.58420138888889,0)" xlink:href="#aI"/><use transform="matrix(0.010850694444444444,0,0,0.010850694444444444,33.854166666666664,0)" xlink:href="#bD"/><use transform="matrix(0.010850694444444444,0,0,0.010850694444444444,49.186197916666664,0)" xlink:href="#aY"/><use transform="matrix(0.010850694444444444,0,0,0.010850694444444444,62.31553819444444,0)" xlink:href="#aG"/><use transform="matrix(0.010850694444444444,0,0,0.010850694444444444,75.94401041666666,0)" xlink:href="#aO"/><use transform="matrix(0.010850694444444444,0,0,0.010850694444444444,89.08420138888889,0)" xlink:href="#aK"/><use transform="matrix(0.010850694444444444,0,0,0.010850694444444444,94.46614583333333,0)" xlink:href="#aT"/><use transform="matrix(0.010850694444444444,0,0,0.010850694444444444,107.16145833333333,0)" xlink:href="#bF"/><use transform="matrix(0.010850694444444444,0,0,0.010850694444444444,122.31987847222221,0)" xlink:href="#aP"/><use transform="matrix(0.010850694444444444,0,0,0.010850694444444444,130.42534722222223,0)" xlink:href="#aQ"/></g><g id="T"><use transform="matrix(0.010850694444444444,0,0,0.010850694444444444,0,0)" xlink:href="#aG"/><use transform="matrix(0.010850694444444444,0,0,0.010850694444444444,13.628472222222221,0)" xlink:href="#aH"/><use transform="matrix(0.010850694444444444,0,0,0.010850694444444444,26.58420138888889,0)" xlink:href="#aI"/><use transform="matrix(0.010850694444444444,0,0,0.010850694444444444,33.854166666666664,0)" xlink:href="#bD"/><use transform="matrix(0.010850694444444444,0,0,0.010850694444444444,49.186197916666664,0)" xlink:href="#aY"/><use transform="matrix(0.010850694444444444,0,0,0.010850694444444444,62.31553819444444,0)" xlink:href="#aG"/><use transform="matrix(0.010850694444444444,0,0,0.010850694444444444,75.94401041666666,0)" xlink:href="#aO"/><use transform="matrix(0.010850694444444444,0,0,0.010850694444444444,89.08420138888889,0)" xlink:href="#aK"/><use transform="matrix(0.010850694444444444,0,0,0.010850694444444444,94.46614583333333,0)" xlink:href="#aT"/><use transform="matrix(0.010850694444444444,0,0,0.010850694444444444,105.90277777777777,0)" xlink:href="#bG"/><use transform="matrix(0.010850694444444444,0,0,0.010850694444444444,120.98524305555556,0)" xlink:href="#aP"/><use transform="matrix(0.010850694444444444,0,0,0.010850694444444444,129.09071180555554,0)" xlink:href="#aQ"/></g><path fill="#333" d="M537 19C279 19 81-185 81-557c0-382 206-575 454-575 190 0 278 113 318 202h10v-560h300V0H868v-179h-15C812-89 719 19 537 19zm92-241c153 0 240-134 240-336 0-203-86-334-240-334-158 0-240 138-240 334 0 197 84 336 240 336" id="bL"/><g id="U"><use transform="matrix(0.010850694444444444,0,0,0.010850694444444444,0,0)" xlink:href="#bs"/><use transform="matrix(0.010850694444444444,0,0,0.010850694444444444,12.901475694444445,0)" xlink:href="#bL"/><use transform="matrix(0.010850694444444444,0,0,0.010850694444444444,26.90972222222222,0)" xlink:href="#bs"/><use transform="matrix(0.010850694444444444,0,0,0.010850694444444444,39.811197916666664,0)" xlink:href="#bz"/><use transform="matrix(0.010850694444444444,0,0,0.010850694444444444,53.81944444444444,0)" xlink:href="#br"/><use transform="matrix(0.010850694444444444,0,0,0.010850694444444444,61.7404513888889,0)" xlink:href="#bv"/><use transform="matrix(0.010850694444444444,0,0,0.010850694444444444,74.97829861111111,0)" xlink:href="#bv"/></g></defs></g></svg>