<svg xmlns="http://www.w3.org/2000/svg" xmlns:xlink="http://www.w3.org/1999/xlink" xmlns:lucid="lucid" width="1601.23" height="1442"><g transform="translate(-319 -399)" lucid:page-tab-id=".Q4MUjXso07N"><path d="M0 0h2383v2255H0z" fill="#fff"/><path d="M580 408a8 8 0 0 1 8-8h1064a8 8 0 0 1 8 8v1424a8 8 0 0 1-8 8H588a8 8 0 0 1-8-8z" stroke="#000" stroke-width="2" fill-opacity="0"/><use xlink:href="#a" transform="matrix(1,0,0,1,588,408) translate(373.97265625 18.5478515625)"/><use xlink:href="#b" transform="matrix(1,0,0,1,588,408) translate(446.5263671875 18.5478515625)"/><use xlink:href="#c" transform="matrix(1,0,0,1,588,408) translate(473.1044921875 18.5478515625)"/><use xlink:href="#b" transform="matrix(1,0,0,1,588,408) translate(607.005859375 18.5478515625)"/><use xlink:href="#d" transform="matrix(1,0,0,1,588,408) translate(633.583984375 18.5478515625)"/><path d="M379.75 965.75c0 10.9-8.84 19.75-19.75 19.75-10.9 0-19.75-8.84-19.75-19.75 0-10.9 8.84-19.75 19.75-19.75 10.9 0 19.75 8.84 19.75 19.75z" stroke="#000" stroke-width="2" fill="#fff"/><path d="M360 985.5v47.3a27.6 27.6 0 0 0 4.28 14.76L400 1104m-40-63.2l-40 63.2m0-98.75h80" stroke="#000" stroke-width="2" fill="none"/><path d="M320 954a8 8 0 0 1 8-8h64a8 8 0 0 1 8 8v164a8 8 0 0 1-8 8h-64a8 8 0 0 1-8-8z" fill="none"/><use xlink:href="#e" transform="matrix(1,0,0,1,240,1104) translate(81.064453125 17.5478515625)"/><path d="M880 520c0 33.14-35.82 60-80 60s-80-26.86-80-60 35.82-60 80-60 80 26.86 80 60z" stroke="#000" stroke-width="2" fill="#fff"/><use xlink:href="#f" transform="matrix(1,0,0,1,744,484) translate(17.20292480468749 31.96212890625)"/><use xlink:href="#g" transform="matrix(1,0,0,1,744,484) translate(19.789941406249994 52.216875)"/><path d="M1857.75 1446.42c0 10.9-8.84 19.75-19.75 19.75-10.9 0-19.75-8.84-19.75-19.75 0-10.9 8.84-19.75 19.75-19.75 10.9 0 19.75 8.84 19.75 19.75z" stroke="#000" stroke-width="2" fill="#fff"/><path d="M1838 1466.17v47.3a27.6 27.6 0 0 0 4.28 14.76l35.72 56.44m-40-63.2l-40 63.2m0-98.75h80" stroke="#000" stroke-width="2" fill="none"/><path d="M1798 1434.67a8 8 0 0 1 8-8h64a8 8 0 0 1 8 8v164a8 8 0 0 1-8 8h-64a8 8 0 0 1-8-8z" fill="none"/><use xlink:href="#h" transform="matrix(1,0,0,1,1717.999982840129,1584.6716496260324) translate(38.2001953125 17.5478515625)"/><use xlink:href="#i" transform="matrix(1,0,0,1,1717.999982840129,1584.6716496260324) translate(105.234375 17.5478515625)"/><path d="M880 692c0 33.14-35.82 60-80 60s-80-26.86-80-60 35.82-60 80-60 80 26.86 80 60z" stroke="#000" stroke-width="2" fill="#fff"/><use xlink:href="#j" transform="matrix(1,0,0,1,744,656) translate(9.821958007812498 42.089501953125)"/><use xlink:href="#k" transform="matrix(1,0,0,1,744,656) translate(58.4644091796875 42.089501953125)"/><path d="M1220 680c0 33.14-35.82 60-80 60s-80-26.86-80-60 35.82-60 80-60 80 26.86 80 60z" stroke="#000" stroke-width="2" fill="#fff"/><use xlink:href="#l" transform="matrix(1,0,0,1,1084,644) translate(15.314770507812497 31.96212890625)"/><use xlink:href="#k" transform="matrix(1,0,0,1,1084,644) translate(34.14318359375 52.216875)"/><path d="M880 864c0 33.14-35.82 60-80 60s-80-26.86-80-60 35.82-60 80-60 80 26.86 80 60z" stroke="#000" stroke-width="2" fill="#fff"/><use xlink:href="#f" transform="matrix(1,0,0,1,744,828) translate(17.20292480468749 21.834755859375)"/><use xlink:href="#m" transform="matrix(1,0,0,1,744,828) translate(27.1831689453125 42.089501953125)"/><use xlink:href="#n" transform="matrix(1,0,0,1,744,828) translate(11.097075195312499 62.344248046875)"/><path d="M880 1036c0 33.14-35.82 60-80 60s-80-26.86-80-60 35.82-60 80-60 80 26.86 80 60z" stroke="#000" stroke-width="2" fill="#fff"/><use xlink:href="#o" transform="matrix(1,0,0,1,744,1000) translate(17.603442382812496 21.834755859375)"/><use xlink:href="#m" transform="matrix(1,0,0,1,744,1000) translate(27.1831689453125 42.089501953125)"/><use xlink:href="#n" transform="matrix(1,0,0,1,744,1000) translate(11.097075195312499 62.344248046875)"/><path d="M1240 980c0 33.14-35.82 60-80 60s-80-26.86-80-60 35.82-60 80-60 80 26.86 80 60z" stroke="#000" stroke-width="2" fill="#fff"/><use xlink:href="#p" transform="matrix(1,0,0,1,1104,944) translate(2.015952148437492 31.96212890625)"/><use xlink:href="#m" transform="matrix(1,0,0,1,1104,944) translate(52.350385742187505 31.96212890625)"/><use xlink:href="#n" transform="matrix(1,0,0,1,1104,944) translate(11.097075195312499 52.216875)"/><path d="M1240 1140c0 33.14-35.82 60-80 60s-80-26.86-80-60 35.82-60 80-60 80 26.86 80 60z" stroke="#000" stroke-width="2" fill="#fff"/><use xlink:href="#q" transform="matrix(1,0,0,1,1104,1104) translate(29.6516650390625 21.834755859375)"/><use xlink:href="#m" transform="matrix(1,0,0,1,1104,1104) translate(27.1831689453125 42.089501953125)"/><use xlink:href="#n" transform="matrix(1,0,0,1,1104,1104) translate(11.097075195312499 62.344248046875)"/><path d="M880 1208c0 33.14-35.82 60-80 60s-80-26.86-80-60 35.82-60 80-60 80 26.86 80 60z" stroke="#000" stroke-width="2" fill="#fff"/><use xlink:href="#r" transform="matrix(1,0,0,1,744,1172) translate(3.021333007812494 31.96212890625)"/><use xlink:href="#m" transform="matrix(1,0,0,1,744,1172) translate(51.3450048828125 31.96212890625)"/><use xlink:href="#s" transform="matrix(1,0,0,1,744,1172) translate(6.679121093749998 52.216875)"/><path d="M880 1552c0 33.14-35.82 60-80 60s-80-26.86-80-60 35.82-60 80-60 80 26.86 80 60z" stroke="#000" stroke-width="2" fill="#fff"/><use xlink:href="#t" transform="matrix(1,0,0,1,744,1516) translate(23.0390380859375 31.96212890625)"/><use xlink:href="#u" transform="matrix(1,0,0,1,744,1516) translate(32.5574609375 52.216875)"/><path d="M882 692h27.33m27.34 0H964l.94-.07.9-.22.88-.35.8-.5.72-.6.6-.72.5-.8.37-.88.23-.9.07-.95.07-.94.22-.9.35-.88.5-.8.6-.72.72-.6.8-.5.88-.37.9-.23.95-.07h27.06m27.06 0h27.06" stroke="#333" stroke-width="2" fill="none"/><path d="M882.03 692.98h-1.06l.03-.97v-.4l-.02-.58h1.05z" stroke="#333" stroke-width=".05" fill="#333"/><path d="M1039.68 670l17.32 10-17.32 10M362.2 1036h165.9a12 12 0 0 0 12-12V532a12 12 0 0 1 12-12H703M362.22 1036h-4.02" stroke="#333" stroke-width="2" fill="none"/><path d="M717 520l-13 7.5v-15z" stroke="#333" stroke-width="2" fill="#333"/><path d="M362.2 1036h165.9a12 12 0 0 0 12-12V704a12 12 0 0 1 12-12H703M362.22 1036h-4.02" stroke="#333" stroke-width="2" fill="none"/><path d="M717 692l-13 7.5v-15z" stroke="#333" stroke-width="2" fill="#333"/><path d="M1220 1553.33c0 33.13-35.82 60-80 60s-80-26.87-80-60c0-33.14 35.82-60 80-60s80 26.86 80 60z" stroke="#000" stroke-width="2" fill="#fff"/><use xlink:href="#v" transform="matrix(1,0,0,1,1084,1517.3283503739676) translate(31.564340820312495 31.96212890625)"/><use xlink:href="#w" transform="matrix(1,0,0,1,1084,1517.3283503739676) translate(6.523818359374992 52.216875)"/><path d="M362.2 1036h165.9a12 12 0 0 0 12-12V876a12 12 0 0 1 12-12H703M362.22 1036h-4.02" stroke="#333" stroke-width="2" fill="none"/><path d="M717 864l-13 7.5v-15z" stroke="#333" stroke-width="2" fill="#333"/><path d="M362.2 1036H703M362.22 1036h-4.02" stroke="#333" stroke-width="2" fill="none"/><path d="M717 1036l-13 7.5v-15z" stroke="#333" stroke-width="2" fill="#333"/><path d="M362.2 1036h165.9a12 12 0 0 1 12 12v148a12 12 0 0 0 12 12H703M362.22 1036h-4.02" stroke="#333" stroke-width="2" fill="none"/><path d="M717 1208l-13 7.5v-15z" stroke="#333" stroke-width="2" fill="#333"/><path d="M836.96 981.06l20.1-.1m20.08-.08l40.17-.17m20.1-.08l40.17-.18m20.08-.08l40.18-.18m20.08-.1l20.1-.08M854.5 990.98l-17.36-9.92 17.28-10.08" stroke="#333" stroke-width="2" fill="none"/><path d="M1079 980v.4l.02.58h-1.04v-1.95h1.05z" stroke="#333" stroke-width=".05" fill="#333"/><path d="M857.48 1080.73l18.38 4.9m18.38 4.93l36.75 9.84m18.37 4.92l36.76 9.83m18.38 4.92l36.77 9.84m18.38 4.92l18.38 4.92M871.8 1094.9l-14.15-14.13 19.32-5.18" stroke="#333" stroke-width="2" fill="none"/><path d="M1079.03 1139l-.03 1v.4l.03.62-1.27-.34.5-1.9z" stroke="#333" stroke-width=".05" fill="#333"/><path d="M1821.22 1517.62L1222 1553.27" stroke="#333" stroke-width="2" fill="none"/><path d="M1835.18 1516.8l-12.52 8.25-.9-14.97z" stroke="#333" stroke-width="2" fill="#333"/><path d="M1222.08 1554.24l-1.1.07.02-.96v-.4l-.02-.6 1-.05z" stroke="#333" stroke-width=".05" fill="#333"/><path d="M882 1552h29.1m29.12 0H969.44l.1.03.1.04.1.06.06.06.07.07.06.1.04.1.02.1v.2l.03.1.04.1.06.1.07.06.07.07.1.06.1.04.1.02h28.93m28.84 0h28.84" stroke="#333" stroke-width="2" fill="none"/><path d="M882.03 1552.97h-1.06l.03-.96v-.4l-.02-.57h1.05z" stroke="#333" stroke-width=".05" fill="#333"/><path d="M1039.68 1543.33l17.32 10-17.32 10" stroke="#333" stroke-width="2" fill="none"/><path d="M930 688a8 8 0 0 1 8-8h64a8 8 0 0 1 8 8v44a8 8 0 0 1-8 8h-64a8 8 0 0 1-8-8z" fill="none"/><use xlink:href="#x" transform="matrix(1,0,0,1,930,680) translate(-14.95361328125 36.5478515625)"/><path d="M910 932a8 8 0 0 1 8-8h104a8 8 0 0 1 8 8v44a8 8 0 0 1-8 8H918a8 8 0 0 1-8-8z" fill="none"/><use xlink:href="#y" transform="matrix(1,0,0,1,910,924) translate(6.75146484375 36.5478515625)"/><path d="M910 1048a8 8 0 0 1 8-8h104a8 8 0 0 1 8 8v44a8 8 0 0 1-8 8H918a8 8 0 0 1-8-8z" fill="none"/><use xlink:href="#y" transform="matrix(1,0,0,1,910,1040) translate(6.75146484375 36.5478515625)"/><path d="M930 1561.33a8 8 0 0 1 8-8h64a8 8 0 0 1 8 8v44a8 8 0 0 1-8 8h-64a8 8 0 0 1-8-8z" fill="none"/><g><use xlink:href="#x" transform="matrix(1,0,0,1,930,1553.3283503739672) translate(-14.95361328125 36.5478515625)"/></g><path d="M1758 1646.67h136l24 24v96h-160z" stroke="#000" stroke-width="2" fill="#fff"/><path d="M1894 1647.62v23.05h23.05" stroke="#000" stroke-width="2" fill="#fff"/><g><use xlink:href="#z" transform="matrix(1,0,0,1,1769.999982840129,1661.0716496260325) translate(18.81201171875 41.4802734375)"/><use xlink:href="#A" transform="matrix(1,0,0,1,1769.999982840129,1661.0716496260325) translate(95.67236328125 41.4802734375)"/><use xlink:href="#B" transform="matrix(1,0,0,1,1769.999982840129,1661.0716496260325) translate(15.03271484375 67.6154296875)"/><use xlink:href="#C" transform="matrix(1,0,0,1,1769.999982840129,1661.0716496260325) translate(55.44482421875 67.6154296875)"/></g><path d="M372.28 1052.85l1.78 1.96 1.88 2.26 1.85 2.43 1.82 2.62 1.82 2.85 1.8 3.12 1.8 3.4 1.8 3.78 1.76 4.18 1.75 4.67 1.73 5.27 1.68 5.98 1.63 6.88 1.53 8 1.42 9.45 1.22 11.4.9 14.04.4 18-.47 24.56-2.42 38.78-15.42 167.93-.4 20.24.32 14.3.7 10.84.92 8.58 1.04 7 1.13 5.8 1.16 4.92 1.2 4.23 1.2 3.7 1.2 3.2 1.2 2.87.94 2 1.72 3.33 1.82 3.23 1.97 3.15 2.1 3.07 2.24 3 2.4 2.94 2.57 2.9 2.77 2.85 2.97 2.82 3.2 2.8 3.46 2.78 3.75 2.77 4.1 2.75 4.47 2.76 4.93 2.75 5.45 2.75 6.06 2.75 6.8 2.74 7.7 2.74 8.8 2.72 10.16 2.67 11.92 2.62 14.23 2.5 17.43 2.3 22.22 2 30.53 1.46 54.42.2 84.63-1.4" stroke="#333" stroke-width="2" stroke-linejoin="round" fill="none"/><path d="M361.54 1043.95l14.8 2.5-9.58 11.56z" stroke="#333" stroke-width="2" fill="#333"/><path d="M719 1552v.4l.02.57-1.03.02-.04-1.96 1.07-.02z" stroke="#333" stroke-width=".05" fill="#333"/><path d="M400 1580h136l24 24v96H400z" stroke="#000" stroke-width="2" fill="#fff"/><path d="M536 1580.95V1604h23.05" stroke="#000" stroke-width="2" fill="#fff"/><g><use xlink:href="#z" transform="matrix(1,0,0,1,412,1594.4) translate(18.81201171875 41.4802734375)"/><use xlink:href="#A" transform="matrix(1,0,0,1,412,1594.4) translate(95.67236328125 41.4802734375)"/><use xlink:href="#B" transform="matrix(1,0,0,1,412,1594.4) translate(15.03271484375 67.6154296875)"/><use xlink:href="#C" transform="matrix(1,0,0,1,412,1594.4) translate(55.44482421875 67.6154296875)"/></g><path d="M360 700h136l24 24v96H360z" stroke="#000" stroke-width="2" fill="#fff"/><path d="M496 700.95V724h23.05" stroke="#000" stroke-width="2" fill="#fff"/><g><use xlink:href="#z" transform="matrix(1,0,0,1,372,714.4) translate(18.81201171875 41.4802734375)"/><use xlink:href="#A" transform="matrix(1,0,0,1,372,714.4) translate(95.67236328125 41.4802734375)"/><use xlink:href="#B" transform="matrix(1,0,0,1,372,714.4) translate(26.357421875 67.6154296875)"/><use xlink:href="#D" transform="matrix(1,0,0,1,372,714.4) translate(66.76953125 67.6154296875)"/></g><path d="M880 1380c0 33.14-35.82 60-80 60s-80-26.86-80-60 35.82-60 80-60 80 26.86 80 60z" stroke="#000" stroke-width="2" fill="#fff"/><g><use xlink:href="#E" transform="matrix(1,0,0,1,744,1344) translate(3.1275927734374918 42.089501953125)"/><use xlink:href="#F" transform="matrix(1,0,0,1,744,1344) translate(59.183706054687505 42.089501953125)"/></g><path d="M400.78 1036h27.32a12 12 0 0 1 12 12v159.4a.6.6 0 0 1-.6.6.6.6 0 0 0-.6.6V1368a12 12 0 0 0 12 12H703M400.8 1036h-1.02" stroke="#333" stroke-width="2" fill="none"/><path d="M717 1380l-13 7.5v-15z" stroke="#333" stroke-width="2" fill="#333"/><defs><path d="M657 26c-323 0-524-166-541-416h195c15 169 171 246 346 246 202 0 356-106 356-265 5-203-294-238-475-293-239-73-380-191-380-389 0-252 224-419 512-419 294 0 499 171 508 396H992c-17-145-151-228-328-228-193 0-321 102-321 242 0 156 175 211 284 241l149 41c160 44 422 134 422 412 0 244-197 432-541 432" id="G"/><path d="M158 0v-1118h180V0H158zm91-1301c-68 0-125-53-125-119s57-119 125-119c69 0 126 53 126 119s-57 119-126 119" id="H"/><path d="M538 24C308 24 148-78 108-271l171-41c32 123 123 178 257 178 156 0 256-77 256-169 0-77-54-128-164-154l-186-44c-203-48-300-148-300-305 0-192 176-326 414-326 230 0 351 112 402 269l-163 42c-31-80-94-158-238-158-133 0-233 69-233 162 0 83 57 129 188 160l169 40c203 48 298 149 298 302 0 196-179 339-441 339" id="I"/><path d="M598-1118v154H368v674c0 100 37 144 132 144 23 0 62-6 92-12L629-6c-37 13-88 20-134 20-193 0-307-107-307-290v-688H20v-154h168v-266h180v266h230" id="J"/><path d="M628 24c-324 0-524-230-524-574 0-343 198-582 503-582 237 0 487 146 487 559v75H286c9 234 145 362 343 362 132 0 231-58 273-172l174 48C1024-91 857 24 628 24zM287-650h624c-17-190-120-322-304-322-192 0-309 151-320 322" id="K"/><path d="M158 0v-1118h175l1 205c55-151 181-225 313-225 147 0 245 90 285 228 53-141 190-228 352-228 194 0 352 125 352 384V0h-181v-749c0-161-105-225-225-225-151 0-243 103-243 244V0H807v-767c0-124-93-207-219-207-131 0-250 92-250 270V0H158" id="L"/><path d="M471 26C259 26 90-98 90-318c0-256 228-303 435-329 202-27 287-16 287-108 0-139-79-219-234-219-161 0-248 86-283 164l-173-57c86-203 278-265 451-265 150 0 419 46 419 395V0H815v-152h-12C765-73 660 26 471 26zm31-159c199 0 310-134 310-271v-155c-30 35-226 55-295 64-131 17-246 59-246 186 0 116 97 176 231 176" id="M"/><g id="a"><use transform="matrix(0.0087890625,0,0,0.0087890625,0,0)" xlink:href="#G"/><use transform="matrix(0.0087890625,0,0,0.0087890625,11.548828125,0)" xlink:href="#H"/><use transform="matrix(0.0087890625,0,0,0.0087890625,15.908203125,0)" xlink:href="#I"/><use transform="matrix(0.0087890625,0,0,0.0087890625,25.4091796875,0)" xlink:href="#J"/><use transform="matrix(0.0087890625,0,0,0.0087890625,31.1220703125,0)" xlink:href="#K"/><use transform="matrix(0.0087890625,0,0,0.0087890625,41.6162109375,0)" xlink:href="#L"/><use transform="matrix(0.0087890625,0,0,0.0087890625,57.3837890625,0)" xlink:href="#M"/></g><path d="M577 24c-279 0-473-224-473-580 0-354 195-576 474-576 218 0 287 134 324 193h14v-551h180V0H922v-173h-20C865-111 790 24 577 24zm27-161c203 0 314-172 314-421 0-247-108-413-314-413-212 0-317 181-317 413 0 235 108 421 317 421" id="N"/><g id="b"><use transform="matrix(0.0087890625,0,0,0.0087890625,0,0)" xlink:href="#N"/><use transform="matrix(0.0087890625,0,0,0.0087890625,11.021484375,0)" xlink:href="#K"/></g><path d="M180 0v-1490h270l367 940c28 72 75 218 110 339 35-117 81-264 110-339l362-940h271V0h-187c2-448-5-837 7-1287-157 497-311 829-483 1287H842C666-458 514-784 354-1284c12 438 5 843 7 1284H180" id="O"/><path d="M613 24c-304 0-509-231-509-576 0-350 205-580 509-580 305 0 511 230 511 580 0 345-206 576-511 576zm0-161c226 0 329-195 329-415 0-222-103-419-329-419-223 0-326 196-326 419 0 220 103 415 326 415" id="P"/><path d="M338-670V0H158v-1118h173l1 207c72-158 192-221 342-221 226 0 378 139 378 422V0H872v-695c0-172-96-275-252-275-161 0-282 109-282 300" id="Q"/><path d="M158 0v-1118h174v172h12c41-113 157-188 290-188 26 0 70 2 91 3v181c-11-2-60-10-108-10-161 0-279 109-279 260V0H158" id="R"/><g id="c"><use transform="matrix(0.0087890625,0,0,0.0087890625,0,0)" xlink:href="#O"/><use transform="matrix(0.0087890625,0,0,0.0087890625,16.259765625,0)" xlink:href="#P"/><use transform="matrix(0.0087890625,0,0,0.0087890625,27.052734375,0)" xlink:href="#Q"/><use transform="matrix(0.0087890625,0,0,0.0087890625,37.6875,0)" xlink:href="#H"/><use transform="matrix(0.0087890625,0,0,0.0087890625,42.046875,0)" xlink:href="#J"/><use transform="matrix(0.0087890625,0,0,0.0087890625,47.759765625,0)" xlink:href="#P"/><use transform="matrix(0.0087890625,0,0,0.0087890625,58.552734375,0)" xlink:href="#R"/><use transform="matrix(0.0087890625,0,0,0.0087890625,65.3291015625,0)" xlink:href="#M"/><use transform="matrix(0.0087890625,0,0,0.0087890625,75.4365234375,0)" xlink:href="#L"/><use transform="matrix(0.0087890625,0,0,0.0087890625,91.2041015625,0)" xlink:href="#K"/><use transform="matrix(0.0087890625,0,0,0.0087890625,101.6982421875,0)" xlink:href="#Q"/><use transform="matrix(0.0087890625,0,0,0.0087890625,112.3330078125,0)" xlink:href="#J"/><use transform="matrix(0.0087890625,0,0,0.0087890625,118.0458984375,0)" xlink:href="#P"/></g><path d="M370-1490V0H180v-1490h190" id="S"/><g id="d"><use transform="matrix(0.0087890625,0,0,0.0087890625,0,0)" xlink:href="#S"/><use transform="matrix(0.0087890625,0,0,0.0087890625,4.833984375,0)" xlink:href="#N"/><use transform="matrix(0.0087890625,0,0,0.0087890625,15.85546875,0)" xlink:href="#P"/><use transform="matrix(0.0087890625,0,0,0.0087890625,26.6484375,0)" xlink:href="#I"/><use transform="matrix(0.0087890625,0,0,0.0087890625,36.1494140625,0)" xlink:href="#P"/><use transform="matrix(0.0087890625,0,0,0.0087890625,46.9423828125,0)" xlink:href="#I"/></g><path d="M783 20c-382 0-661-292-661-764 0-473 279-766 661-766 302 0 548 182 601 489h-190c-42-204-217-313-411-313-268 0-476 208-476 590 0 381 209 588 476 588 195 0 369-110 411-313h190c-52 303-296 489-601 489" id="T"/><path d="M537 14c-226 0-379-139-379-422v-710h180v695c0 172 97 275 253 275 160 0 281-109 281-300v-670h181V0H879v-209C806-46 684 14 537 14" id="U"/><g id="e"><use transform="matrix(0.0087890625,0,0,0.0087890625,0,0)" xlink:href="#T"/><use transform="matrix(0.0087890625,0,0,0.0087890625,13.1484375,0)" xlink:href="#U"/><use transform="matrix(0.0087890625,0,0,0.0087890625,23.7919921875,0)" xlink:href="#H"/><use transform="matrix(0.0087890625,0,0,0.0087890625,28.1513671875,0)" xlink:href="#N"/><use transform="matrix(0.0087890625,0,0,0.0087890625,39.1728515625,0)" xlink:href="#M"/><use transform="matrix(0.0087890625,0,0,0.0087890625,49.2802734375,0)" xlink:href="#N"/><use transform="matrix(0.0087890625,0,0,0.0087890625,60.3017578125,0)" xlink:href="#P"/><use transform="matrix(0.0087890625,0,0,0.0087890625,71.0947265625,0)" xlink:href="#R"/></g><g id="f"><use transform="matrix(0.008173828125000001,0,0,0.008173828125000001,0,0)" xlink:href="#T"/><use transform="matrix(0.008173828125000001,0,0,0.008173828125000001,12.228046875000002,0)" xlink:href="#M"/><use transform="matrix(0.008173828125000001,0,0,0.008173828125000001,21.627949218750004,0)" xlink:href="#N"/><use transform="matrix(0.008173828125000001,0,0,0.008173828125000001,31.877929687500007,0)" xlink:href="#M"/><use transform="matrix(0.008173828125000001,0,0,0.008173828125000001,41.27783203125001,0)" xlink:href="#I"/><use transform="matrix(0.008173828125000001,0,0,0.008173828125000001,50.11374023437501,0)" xlink:href="#J"/><use transform="matrix(0.008173828125000001,0,0,0.008173828125000001,55.59020507812501,0)" xlink:href="#R"/><use transform="matrix(0.008173828125000001,0,0,0.008173828125000001,61.892226562500014,0)" xlink:href="#M"/><use transform="matrix(0.008173828125000001,0,0,0.008173828125000001,71.29212890625001,0)" xlink:href="#R"/></g><g id="g"><use transform="matrix(0.008173828125000001,0,0,0.008173828125000001,0,0)" xlink:href="#T"/><use transform="matrix(0.008173828125000001,0,0,0.008173828125000001,12.228046875000002,0)" xlink:href="#U"/><use transform="matrix(0.008173828125000001,0,0,0.008173828125000001,22.126552734375004,0)" xlink:href="#H"/><use transform="matrix(0.008173828125000001,0,0,0.008173828125000001,26.180771484375004,0)" xlink:href="#N"/><use transform="matrix(0.008173828125000001,0,0,0.008173828125000001,36.430751953125004,0)" xlink:href="#M"/><use transform="matrix(0.008173828125000001,0,0,0.008173828125000001,45.830654296875004,0)" xlink:href="#N"/><use transform="matrix(0.008173828125000001,0,0,0.008173828125000001,56.08063476562501,0)" xlink:href="#P"/><use transform="matrix(0.008173828125000001,0,0,0.008173828125000001,66.11809570312501,0)" xlink:href="#R"/></g><path d="M180 0v-1490h510c348 0 508 209 508 474 0 266-160 477-507 477H370V0H180zm190-706h312c236 0 327-133 327-310 0-176-91-307-329-307H370v617" id="V"/><g id="h"><use transform="matrix(0.0087890625,0,0,0.0087890625,0,0)" xlink:href="#V"/><use transform="matrix(0.0087890625,0,0,0.0087890625,11.3994140625,0)" xlink:href="#K"/><use transform="matrix(0.0087890625,0,0,0.0087890625,21.8935546875,0)" xlink:href="#I"/><use transform="matrix(0.0087890625,0,0,0.0087890625,31.39453125,0)" xlink:href="#I"/><use transform="matrix(0.0087890625,0,0,0.0087890625,40.8955078125,0)" xlink:href="#P"/><use transform="matrix(0.0087890625,0,0,0.0087890625,51.8642578125,0)" xlink:href="#M"/></g><g id="i"><use transform="matrix(0.0087890625,0,0,0.0087890625,0,0)" xlink:href="#O"/><use transform="matrix(0.0087890625,0,0,0.0087890625,16.259765625,0)" xlink:href="#P"/><use transform="matrix(0.0087890625,0,0,0.0087890625,27.052734375,0)" xlink:href="#Q"/><use transform="matrix(0.0087890625,0,0,0.0087890625,37.6875,0)" xlink:href="#H"/><use transform="matrix(0.0087890625,0,0,0.0087890625,42.046875,0)" xlink:href="#J"/><use transform="matrix(0.0087890625,0,0,0.0087890625,47.759765625,0)" xlink:href="#P"/><use transform="matrix(0.0087890625,0,0,0.0087890625,58.552734375,0)" xlink:href="#R"/><use transform="matrix(0.0087890625,0,0,0.0087890625,65.3291015625,0)" xlink:href="#M"/><use transform="matrix(0.0087890625,0,0,0.0087890625,75.4365234375,0)" xlink:href="#N"/><use transform="matrix(0.0087890625,0,0,0.0087890625,86.4580078125,0)" xlink:href="#M"/></g><path d="M180 0v-1490h901v168H370v510h643v168H370V0H180" id="W"/><path d="M126 0v-134l627-806v-11H146v-167h839v143L376-178v11h629V0H126" id="X"/><g id="j"><use transform="matrix(0.008173828125000001,0,0,0.008173828125000001,0,0)" xlink:href="#W"/><use transform="matrix(0.008173828125000001,0,0,0.008173828125000001,9.473466796875002,0)" xlink:href="#M"/><use transform="matrix(0.008173828125000001,0,0,0.008173828125000001,18.873369140625,0)" xlink:href="#X"/><use transform="matrix(0.008173828125000001,0,0,0.008173828125000001,27.872753906250004,0)" xlink:href="#K"/><use transform="matrix(0.008173828125000001,0,0,0.008173828125000001,37.6323046875,0)" xlink:href="#R"/></g><path d="M180 0v-1490h190v1322h690V0H180" id="Y"/><path d="M611 442c-248 0-391-105-460-228l146-94c47 65 117 165 314 165 178 0 307-82 307-266v-224h-17C863-141 792-18 576-18c-268 0-472-195-472-546 0-346 197-568 476-568 216 0 288 133 326 193h17v-179h175V29c0 289-215 413-487 413zm-5-620c203 0 314-146 314-390 0-237-108-403-314-403-213 0-319 180-319 403 0 230 109 390 319 390" id="Z"/><g id="k"><use transform="matrix(0.008173828125000001,0,0,0.008173828125000001,0,0)" xlink:href="#Y"/><use transform="matrix(0.008173828125000001,0,0,0.008173828125000001,9.465292968750001,0)" xlink:href="#P"/><use transform="matrix(0.008173828125000001,0,0,0.008173828125000001,19.50275390625,0)" xlink:href="#Z"/><use transform="matrix(0.008173828125000001,0,0,0.008173828125000001,29.76908203125,0)" xlink:href="#H"/><use transform="matrix(0.008173828125000001,0,0,0.008173828125000001,33.82330078125,0)" xlink:href="#Q"/></g><path d="M52 0l541-1490h220L1361 0h-200l-149-416H398L254 0H52zm404-582h497c-103-290-145-390-251-756-108 377-145 460-246 756" id="aa"/><path d="M613 24c-304 0-509-231-509-576 0-350 205-580 509-580 216 0 392 114 453 309l-173 49c-33-115-133-197-280-197-223 0-326 196-326 419 0 220 103 415 326 415 150 0 252-85 285-206l172 49C1010-95 832 24 613 24" id="ab"/><g id="l"><use transform="matrix(0.008173828125000001,0,0,0.008173828125000001,0,0)" xlink:href="#aa"/><use transform="matrix(0.008173828125000001,0,0,0.008173828125000001,11.549619140625001,0)" xlink:href="#U"/><use transform="matrix(0.008173828125000001,0,0,0.008173828125000001,21.448125000000005,0)" xlink:href="#J"/><use transform="matrix(0.008173828125000001,0,0,0.008173828125000001,26.761113281250005,0)" xlink:href="#K"/><use transform="matrix(0.008173828125000001,0,0,0.008173828125000001,36.5206640625,0)" xlink:href="#Q"/><use transform="matrix(0.008173828125000001,0,0,0.008173828125000001,46.41099609375,0)" xlink:href="#J"/><use transform="matrix(0.008173828125000001,0,0,0.008173828125000001,51.8874609375,0)" xlink:href="#H"/><use transform="matrix(0.008173828125000001,0,0,0.008173828125000001,55.9416796875,0)" xlink:href="#ab"/><use transform="matrix(0.008173828125000001,0,0,0.008173828125000001,65.66853515625,0)" xlink:href="#M"/><use transform="matrix(0.008173828125000001,0,0,0.008173828125000001,75.06843750000002,0)" xlink:href="#R"/></g><g id="m"><use transform="matrix(0.008173828125000001,0,0,0.008173828125000001,0,0)" xlink:href="#V"/><use transform="matrix(0.008173828125000001,0,0,0.008173828125000001,10.601455078125001,0)" xlink:href="#K"/><use transform="matrix(0.008173828125000001,0,0,0.008173828125000001,20.361005859375002,0)" xlink:href="#I"/><use transform="matrix(0.008173828125000001,0,0,0.008173828125000001,29.196914062500003,0)" xlink:href="#I"/><use transform="matrix(0.008173828125000001,0,0,0.008173828125000001,38.032822265625,0)" xlink:href="#P"/><use transform="matrix(0.008173828125000001,0,0,0.008173828125000001,48.233759765625,0)" xlink:href="#M"/></g><g id="n"><use transform="matrix(0.008173828125000001,0,0,0.008173828125000001,0,0)" xlink:href="#O"/><use transform="matrix(0.008173828125000001,0,0,0.008173828125000001,15.121582031250002,0)" xlink:href="#P"/><use transform="matrix(0.008173828125000001,0,0,0.008173828125000001,25.15904296875,0)" xlink:href="#Q"/><use transform="matrix(0.008173828125000001,0,0,0.008173828125000001,35.049375,0)" xlink:href="#H"/><use transform="matrix(0.008173828125000001,0,0,0.008173828125000001,39.10359375,0)" xlink:href="#J"/><use transform="matrix(0.008173828125000001,0,0,0.008173828125000001,44.41658203125001,0)" xlink:href="#P"/><use transform="matrix(0.008173828125000001,0,0,0.008173828125000001,54.45404296875,0)" xlink:href="#R"/><use transform="matrix(0.008173828125000001,0,0,0.008173828125000001,60.756064453125006,0)" xlink:href="#M"/><use transform="matrix(0.008173828125000001,0,0,0.008173828125000001,70.155966796875,0)" xlink:href="#N"/><use transform="matrix(0.008173828125000001,0,0,0.008173828125000001,80.40594726562502,0)" xlink:href="#M"/></g><path d="M600 0L52-1490h200c166 485 304 806 458 1336 156-533 285-846 449-1336h202L819 0H600" id="ac"/><path d="M338-1490V0H158v-1490h180" id="ad"/><g id="o"><use transform="matrix(0.008173828125000001,0,0,0.008173828125000001,0,0)" xlink:href="#ac"/><use transform="matrix(0.008173828125000001,0,0,0.008173828125000001,11.549619140625001,0)" xlink:href="#H"/><use transform="matrix(0.008173828125000001,0,0,0.008173828125000001,15.603837890625002,0)" xlink:href="#I"/><use transform="matrix(0.008173828125000001,0,0,0.008173828125000001,24.439746093750003,0)" xlink:href="#U"/><use transform="matrix(0.008173828125000001,0,0,0.008173828125000001,34.338251953125,0)" xlink:href="#M"/><use transform="matrix(0.008173828125000001,0,0,0.008173828125000001,43.738154296875,0)" xlink:href="#ad"/><use transform="matrix(0.008173828125000001,0,0,0.008173828125000001,47.792373046875,0)" xlink:href="#H"/><use transform="matrix(0.008173828125000001,0,0,0.008173828125000001,51.846591796875,0)" xlink:href="#X"/><use transform="matrix(0.008173828125000001,0,0,0.008173828125000001,61.091191406250005,0)" xlink:href="#M"/><use transform="matrix(0.008173828125000001,0,0,0.008173828125000001,70.49109375,0)" xlink:href="#R"/></g><path d="M180 0v-1490h908v168H370v486h669v168H370v500h727V0H180" id="ae"/><g id="p"><use transform="matrix(0.008173828125000001,0,0,0.008173828125000001,0,0)" xlink:href="#ae"/><use transform="matrix(0.008173828125000001,0,0,0.008173828125000001,10.061982421875001,0)" xlink:href="#N"/><use transform="matrix(0.008173828125000001,0,0,0.008173828125000001,20.311962890625,0)" xlink:href="#H"/><use transform="matrix(0.008173828125000001,0,0,0.008173828125000001,24.366181640625,0)" xlink:href="#J"/><use transform="matrix(0.008173828125000001,0,0,0.008173828125000001,29.924384765625007,0)" xlink:href="#M"/><use transform="matrix(0.008173828125000001,0,0,0.008173828125000001,39.32428710937501,0)" xlink:href="#R"/></g><path d="M65 0l393-574-370-544h210c88 136 192 297 267 435 67-142 176-302 264-435h206L661-564 1053 0H844c-94-144-206-310-287-458C484-308 366-142 273 0H65" id="af"/><g id="q"><use transform="matrix(0.008173828125000001,0,0,0.008173828125000001,0,0)" xlink:href="#ae"/><use transform="matrix(0.008173828125000001,0,0,0.008173828125000001,10.061982421875001,0)" xlink:href="#af"/><use transform="matrix(0.008173828125000001,0,0,0.008173828125000001,18.824326171875,0)" xlink:href="#ab"/><use transform="matrix(0.008173828125000001,0,0,0.008173828125000001,28.387705078125002,0)" xlink:href="#ad"/><use transform="matrix(0.008173828125000001,0,0,0.008173828125000001,32.441923828125,0)" xlink:href="#U"/><use transform="matrix(0.008173828125000001,0,0,0.008173828125000001,42.3404296875,0)" xlink:href="#H"/><use transform="matrix(0.008173828125000001,0,0,0.008173828125000001,46.394648437499995,0)" xlink:href="#R"/></g><g id="r"><use transform="matrix(0.008173828125000001,0,0,0.008173828125000001,0,0)" xlink:href="#Y"/><use transform="matrix(0.008173828125000001,0,0,0.008173828125000001,9.465292968750001,0)" xlink:href="#H"/><use transform="matrix(0.008173828125000001,0,0,0.008173828125000001,13.519511718750001,0)" xlink:href="#I"/><use transform="matrix(0.008173828125000001,0,0,0.008173828125000001,22.355419921875004,0)" xlink:href="#J"/><use transform="matrix(0.008173828125000001,0,0,0.008173828125000001,27.913623046875006,0)" xlink:href="#M"/><use transform="matrix(0.008173828125000001,0,0,0.008173828125000001,37.31352539062501,0)" xlink:href="#R"/></g><g id="s"><use transform="matrix(0.008173828125000001,0,0,0.008173828125000001,0,0)" xlink:href="#O"/><use transform="matrix(0.008173828125000001,0,0,0.008173828125000001,15.121582031250002,0)" xlink:href="#P"/><use transform="matrix(0.008173828125000001,0,0,0.008173828125000001,25.15904296875,0)" xlink:href="#Q"/><use transform="matrix(0.008173828125000001,0,0,0.008173828125000001,35.049375,0)" xlink:href="#H"/><use transform="matrix(0.008173828125000001,0,0,0.008173828125000001,39.10359375,0)" xlink:href="#J"/><use transform="matrix(0.008173828125000001,0,0,0.008173828125000001,44.41658203125001,0)" xlink:href="#P"/><use transform="matrix(0.008173828125000001,0,0,0.008173828125000001,54.45404296875,0)" xlink:href="#R"/><use transform="matrix(0.008173828125000001,0,0,0.008173828125000001,60.756064453125006,0)" xlink:href="#M"/><use transform="matrix(0.008173828125000001,0,0,0.008173828125000001,70.155966796875,0)" xlink:href="#N"/><use transform="matrix(0.008173828125000001,0,0,0.008173828125000001,80.40594726562502,0)" xlink:href="#M"/><use transform="matrix(0.008173828125000001,0,0,0.008173828125000001,89.805849609375,0)" xlink:href="#I"/></g><path d="M180 0v-1490h510c348 0 508 194 508 460 0 198-88 351-276 417L1256 0h-220L726-579c-117 2-238 0-356 1V0H180zm190-747h312c235 0 327-108 327-283 0-177-92-293-329-293H370v576" id="ag"/><path d="M677 24c-213 0-288-135-325-197h-20V0H158v-1490h180v551h14c37-59 106-193 324-193 279 0 474 222 474 576 0 356-194 580-473 580zm-27-161c209 0 317-186 317-421 0-232-105-413-317-413-206 0-314 166-314 413 0 249 111 421 314 421" id="ah"/><g id="t"><use transform="matrix(0.008173828125000001,0,0,0.008173828125000001,0,0)" xlink:href="#ag"/><use transform="matrix(0.008173828125000001,0,0,0.008173828125000001,10.527890625000001,0)" xlink:href="#K"/><use transform="matrix(0.008173828125000001,0,0,0.008173828125000001,20.287441406250004,0)" xlink:href="#ab"/><use transform="matrix(0.008173828125000001,0,0,0.008173828125000001,29.850820312500005,0)" xlink:href="#K"/><use transform="matrix(0.008173828125000001,0,0,0.008173828125000001,39.610371093750004,0)" xlink:href="#ah"/><use transform="matrix(0.008173828125000001,0,0,0.008173828125000001,49.86035156250001,0)" xlink:href="#K"/><use transform="matrix(0.008173828125000001,0,0,0.008173828125000001,59.619902343750006,0)" xlink:href="#R"/></g><g id="u"><use transform="matrix(0.008173828125000001,0,0,0.008173828125000001,0,0)" xlink:href="#aa"/><use transform="matrix(0.008173828125000001,0,0,0.008173828125000001,11.549619140625001,0)" xlink:href="#ad"/><use transform="matrix(0.008173828125000001,0,0,0.008173828125000001,15.603837890625002,0)" xlink:href="#K"/><use transform="matrix(0.008173828125000001,0,0,0.008173828125000001,25.363388671875,0)" xlink:href="#R"/><use transform="matrix(0.008173828125000001,0,0,0.008173828125000001,31.92697265625,0)" xlink:href="#J"/><use transform="matrix(0.008173828125000001,0,0,0.008173828125000001,37.48517578125,0)" xlink:href="#M"/></g><path d="M481 0L54-1118h197c107 314 236 620 325 951 87-331 217-637 324-951h197L670 0H481" id="ai"/><g id="v"><use transform="matrix(0.008173828125000001,0,0,0.008173828125000001,0,0)" xlink:href="#ae"/><use transform="matrix(0.008173828125000001,0,0,0.008173828125000001,10.061982421875001,0)" xlink:href="#Q"/><use transform="matrix(0.008173828125000001,0,0,0.008173828125000001,19.707099609375,0)" xlink:href="#ai"/><use transform="matrix(0.008173828125000001,0,0,0.008173828125000001,29.115175781250002,0)" xlink:href="#H"/><use transform="matrix(0.008173828125000001,0,0,0.008173828125000001,33.169394531250006,0)" xlink:href="#M"/><use transform="matrix(0.008173828125000001,0,0,0.008173828125000001,42.569296875000006,0)" xlink:href="#R"/></g><path d="M678-1118v154H420V0H240v-964H20v-154h220v-149c0-194 155-293 318-293 85 0 141 18 168 30l-50 154c-19-6-47-17-97-17-111 0-159 58-159 166v109h258" id="aj"/><path d="M502 418V313h118c73 0 98-17 98-66s-25-65-98-65h-82l21-161C285-4 104-228 104-552c0-350 205-580 509-580 216 0 392 114 453 309l-173 49c-33-115-133-197-280-197-223 0-326 196-326 419 0 220 103 415 326 415 150 0 252-85 285-206l172 49C1015-110 859 5 663 22v64c130 5 189 54 189 162 0 118-71 170-231 170H502" id="ak"/><path d="M613 24c-304 0-509-231-509-576 0-350 205-580 509-580 305 0 511 230 511 580 0 345-206 576-511 576zm0-161c226 0 329-195 329-415 0-222-103-419-329-419-223 0-326 196-326 419 0 220 103 415 326 415zm131-1176c-99 0-192-83-243-83-35 0-51 40-53 79H322c4-120 55-208 162-208 104 0 174 85 241 85 33 0 49-23 56-81h123c-4 126-62 208-160 208" id="al"/><g id="w"><use transform="matrix(0.008173828125000001,0,0,0.008173828125000001,0,0)" xlink:href="#S"/><use transform="matrix(0.008173828125000001,0,0,0.008173828125000001,4.495605468750001,0)" xlink:href="#Q"/><use transform="matrix(0.008173828125000001,0,0,0.008173828125000001,14.3859375,0)" xlink:href="#aj"/><use transform="matrix(0.008173828125000001,0,0,0.008173828125000001,20.09126953125,0)" xlink:href="#P"/><use transform="matrix(0.008173828125000001,0,0,0.008173828125000001,30.12873046875,0)" xlink:href="#R"/><use transform="matrix(0.008173828125000001,0,0,0.008173828125000001,36.692314453125,0)" xlink:href="#L"/><use transform="matrix(0.008173828125000001,0,0,0.008173828125000001,51.356162109375006,0)" xlink:href="#M"/><use transform="matrix(0.008173828125000001,0,0,0.008173828125000001,60.756064453125006,0)" xlink:href="#ak"/><use transform="matrix(0.008173828125000001,0,0,0.008173828125000001,70.31944335937501,0)" xlink:href="#al"/><use transform="matrix(0.008173828125000001,0,0,0.008173828125000001,80.35690429687502,0)" xlink:href="#K"/><use transform="matrix(0.008173828125000001,0,0,0.008173828125000001,90.11645507812501,0)" xlink:href="#I"/></g><path d="M174-520v-126l944-476v196L406-588v12l712 338v194" id="am"/><path d="M1181-520L237-44v-194l712-338v-12L237-926v-196l944 476v126" id="an"/><g id="x"><use transform="matrix(0.0087890625,0,0,0.0087890625,0,0)" xlink:href="#am"/><use transform="matrix(0.0087890625,0,0,0.0087890625,11.9091796875,0)" xlink:href="#am"/><use transform="matrix(0.0087890625,0,0,0.0087890625,23.818359375,0)" xlink:href="#S"/><use transform="matrix(0.0087890625,0,0,0.0087890625,28.65234375,0)" xlink:href="#Q"/><use transform="matrix(0.0087890625,0,0,0.0087890625,39.287109375,0)" xlink:href="#ab"/><use transform="matrix(0.0087890625,0,0,0.0087890625,49.5703125,0)" xlink:href="#ad"/><use transform="matrix(0.0087890625,0,0,0.0087890625,53.9296875,0)" xlink:href="#U"/><use transform="matrix(0.0087890625,0,0,0.0087890625,64.5732421875,0)" xlink:href="#N"/><use transform="matrix(0.0087890625,0,0,0.0087890625,75.5947265625,0)" xlink:href="#K"/><use transform="matrix(0.0087890625,0,0,0.0087890625,86.0888671875,0)" xlink:href="#an"/><use transform="matrix(0.0087890625,0,0,0.0087890625,97.998046875,0)" xlink:href="#an"/></g><g id="y"><use transform="matrix(0.0087890625,0,0,0.0087890625,0,0)" xlink:href="#am"/><use transform="matrix(0.0087890625,0,0,0.0087890625,11.9091796875,0)" xlink:href="#am"/><use transform="matrix(0.0087890625,0,0,0.0087890625,23.818359375,0)" xlink:href="#ae"/><use transform="matrix(0.0087890625,0,0,0.0087890625,34.6376953125,0)" xlink:href="#af"/><use transform="matrix(0.0087890625,0,0,0.0087890625,44.8154296875,0)" xlink:href="#J"/><use transform="matrix(0.0087890625,0,0,0.0087890625,50.5283203125,0)" xlink:href="#K"/><use transform="matrix(0.0087890625,0,0,0.0087890625,61.0224609375,0)" xlink:href="#Q"/><use transform="matrix(0.0087890625,0,0,0.0087890625,71.6572265625,0)" xlink:href="#N"/><use transform="matrix(0.0087890625,0,0,0.0087890625,82.6787109375,0)" xlink:href="#an"/><use transform="matrix(0.0087890625,0,0,0.0087890625,94.587890625,0)" xlink:href="#an"/></g><path d="M180 0v-1490h224l606 953c40 63 108 177 176 312-27-437-7-821-13-1265h190V0h-226C860-448 622-778 356-1262c27 476 11 792 15 1262H180" id="ao"/><path d="M471 26C259 26 90-98 90-318c0-256 228-303 435-329 202-27 287-16 287-108 0-139-79-219-234-219-161 0-248 86-283 164l-173-57c86-203 278-265 451-265 150 0 419 46 419 395V0H815v-152h-12C765-73 660 26 471 26zm31-159c199 0 310-134 310-271v-155c-30 35-226 55-295 64-131 17-246 59-246 186 0 116 97 176 231 176zm187-1180c-99 0-192-83-243-83-35 0-51 40-53 79H267c4-120 55-208 162-208 104 0 174 85 241 85 33 0 49-23 56-81h123c-4 126-62 208-160 208" id="ap"/><g id="z"><use transform="matrix(0.0087890625,0,0,0.0087890625,0,0)" xlink:href="#ao"/><use transform="matrix(0.0087890625,0,0,0.0087890625,13.5615234375,0)" xlink:href="#P"/><use transform="matrix(0.0087890625,0,0,0.0087890625,24.3544921875,0)" xlink:href="#J"/><use transform="matrix(0.0087890625,0,0,0.0087890625,30.3310546875,0)" xlink:href="#M"/><use transform="matrix(0.0087890625,0,0,0.0087890625,40.4384765625,0)" xlink:href="#ak"/><use transform="matrix(0.0087890625,0,0,0.0087890625,50.8974609375,0)" xlink:href="#ap"/><use transform="matrix(0.0087890625,0,0,0.0087890625,61.0048828125,0)" xlink:href="#P"/></g><g id="A"><use transform="matrix(0.0087890625,0,0,0.0087890625,0,0)" xlink:href="#N"/><use transform="matrix(0.0087890625,0,0,0.0087890625,11.021484375,0)" xlink:href="#K"/></g><g id="B"><use transform="matrix(0.0087890625,0,0,0.0087890625,0,0)" xlink:href="#aa"/><use transform="matrix(0.0087890625,0,0,0.0087890625,12.0673828125,0)" xlink:href="#J"/><use transform="matrix(0.0087890625,0,0,0.0087890625,17.7802734375,0)" xlink:href="#P"/><use transform="matrix(0.0087890625,0,0,0.0087890625,28.5732421875,0)" xlink:href="#R"/></g><g id="C"><use transform="matrix(0.0087890625,0,0,0.0087890625,0,0)" xlink:href="#V"/><use transform="matrix(0.0087890625,0,0,0.0087890625,11.49609375,0)" xlink:href="#M"/><use transform="matrix(0.0087890625,0,0,0.0087890625,21.603515625,0)" xlink:href="#I"/><use transform="matrix(0.0087890625,0,0,0.0087890625,31.1044921875,0)" xlink:href="#I"/><use transform="matrix(0.0087890625,0,0,0.0087890625,40.60546875,0)" xlink:href="#H"/><use transform="matrix(0.0087890625,0,0,0.0087890625,44.96484375,0)" xlink:href="#ai"/><use transform="matrix(0.0087890625,0,0,0.0087890625,54.7294921875,0)" xlink:href="#P"/></g><g id="D"><use transform="matrix(0.0087890625,0,0,0.0087890625,0,0)" xlink:href="#aa"/><use transform="matrix(0.0087890625,0,0,0.0087890625,12.0673828125,0)" xlink:href="#J"/><use transform="matrix(0.0087890625,0,0,0.0087890625,17.9560546875,0)" xlink:href="#H"/><use transform="matrix(0.0087890625,0,0,0.0087890625,22.3154296875,0)" xlink:href="#ai"/><use transform="matrix(0.0087890625,0,0,0.0087890625,32.080078125,0)" xlink:href="#P"/></g><path d="M98-1322v-168h1126v168H757V0H567v-1322H98" id="aq"/><g id="E"><use transform="matrix(0.008173828125000001,0,0,0.008173828125000001,0,0)" xlink:href="#aq"/><use transform="matrix(0.008173828125000001,0,0,0.008173828125000001,9.857636718750001,0)" xlink:href="#R"/><use transform="matrix(0.008173828125000001,0,0,0.008173828125000001,15.881748046875002,0)" xlink:href="#P"/><use transform="matrix(0.008173828125000001,0,0,0.008173828125000001,25.919208984375004,0)" xlink:href="#ab"/><use transform="matrix(0.008173828125000001,0,0,0.008173828125000001,35.64606445312501,0)" xlink:href="#M"/><use transform="matrix(0.008173828125000001,0,0,0.008173828125000001,45.04596679687501,0)" xlink:href="#R"/></g><path d="M338-670V0H158v-1490h180v566c73-149 190-208 336-208 226 0 379 139 379 422V0H872v-695c0-172-96-275-252-275-161 0-282 109-282 300" id="ar"/><g id="F"><use transform="matrix(0.008173828125000001,0,0,0.008173828125000001,0,0)" xlink:href="#G"/><use transform="matrix(0.008173828125000001,0,0,0.008173828125000001,10.740410156250002,0)" xlink:href="#K"/><use transform="matrix(0.008173828125000001,0,0,0.008173828125000001,20.499960937500003,0)" xlink:href="#Q"/><use transform="matrix(0.008173828125000001,0,0,0.008173828125000001,30.390292968750003,0)" xlink:href="#ar"/><use transform="matrix(0.008173828125000001,0,0,0.008173828125000001,40.288798828125,0)" xlink:href="#M"/></g></defs></g></svg>