<svg xmlns="http://www.w3.org/2000/svg" xmlns:xlink="http://www.w3.org/1999/xlink" xmlns:lucid="lucid" width="1201" height="371.5"><g transform="translate(-99 -59)" lucid:page-tab-id=".Q4MUjXso07N"><path d="M0 0h1360v1760H0z" fill="#fff"/><path d="M159.75 159.75c0 10.9-8.84 19.75-19.75 19.75-10.9 0-19.75-8.84-19.75-19.75 0-10.9 8.84-19.75 19.75-19.75 10.9 0 19.75 8.84 19.75 19.75z" stroke="#000" stroke-width="2" fill="#fff"/><path d="M140 179.5v47.3a27.6 27.6 0 0 0 4.28 14.76L180 298m-40-63.2L100 298m0-98.75h80" stroke="#000" stroke-width="2" fill="none"/><path d="M100 148a8 8 0 0 1 8-8h64a8 8 0 0 1 8 8v164a8 8 0 0 1-8 8h-64a8 8 0 0 1-8-8z" fill="none"/><use xlink:href="#a" transform="matrix(1,0,0,1,20,298) translate(81.064453125 17.5478515625)"/><path d="M840 328a8 8 0 0 1 8-8h164a8 8 0 0 1 8 8v64a8 8 0 0 1-8 8H848a8 8 0 0 1-8-8z" stroke="#000" stroke-width="2" fill="#fff"/><use xlink:href="#b" transform="matrix(1,0,0,1,848,328) translate(44.8310546875 25.480273437500003)"/><use xlink:href="#c" transform="matrix(1,0,0,1,848,328) translate(55.10546875 25.480273437500003)"/><use xlink:href="#d" transform="matrix(1,0,0,1,848,328) translate(31.66064453125 51.6154296875)"/><path d="M840 68a8 8 0 0 1 8-8h164a8 8 0 0 1 8 8v64a8 8 0 0 1-8 8H848a8 8 0 0 1-8-8z" stroke="#000" stroke-width="2" fill="#fff"/><use xlink:href="#b" transform="matrix(1,0,0,1,848,68) translate(9.5166015625 38.5478515625)"/><use xlink:href="#e" transform="matrix(1,0,0,1,848,68) translate(19.791015625 38.5478515625)"/><path d="M320 198a8 8 0 0 1 8-8h164a8 8 0 0 1 8 8v64a8 8 0 0 1-8 8H328a8 8 0 0 1-8-8z" stroke="#000" stroke-width="2" fill="#fff"/><use xlink:href="#b" transform="matrix(1,0,0,1,328.00000000000006,198) translate(36.40673828125 38.5478515625)"/><use xlink:href="#f" transform="matrix(1,0,0,1,328.00000000000006,198) translate(46.68115234375 38.5478515625)"/><path d="M141.7 230h176.8M141.7 230h-3.5" stroke="#333" fill="none"/><path d="M319 230.47h-.5v-.94h.5z" stroke="#333" stroke-width=".05" fill="#333"/><path d="M410 271.5V348a12 12 0 0 0 12 12h416.5" stroke="#333" fill="none"/><path d="M410.48 271.5h-.96v-.5h.96zM839 360.48h-.5v-.96h.5z" stroke="#333" stroke-width=".05" fill="#333"/><path d="M200 168a8 8 0 0 1 8-8h84a8 8 0 0 1 8 8v4a8 8 0 0 1-8 8h-84a8 8 0 0 1-8-8z" fill="none"/><use xlink:href="#g" transform="matrix(1,0,0,1,200,160) translate(11.14794921875 17.4375)"/><use xlink:href="#h" transform="matrix(1,0,0,1,200,160) translate(28.71728515625 17.4375)"/><path d="M220.5 200h58.6M220.5 200h-.5M261.68 190L279 200l-17.32 10M930 141.5v177" stroke="#333" fill="none"/><path d="M930.48 141.5h-.96v-.5h.96zM930.48 319h-.96v-.5h.96z" stroke="#333" stroke-width=".05" fill="#333"/><path d="M480 388a8 8 0 0 1 8-8h284a8 8 0 0 1 8 8v4a8 8 0 0 1-8 8H488a8 8 0 0 1-8-8z" fill="none"/><use xlink:href="#i" transform="matrix(1,0,0,1,480,380) translate(3.0556640625 17.4375)"/><use xlink:href="#j" transform="matrix(1,0,0,1,480,380) translate(26.390625 17.4375)"/><use xlink:href="#k" transform="matrix(1,0,0,1,480,380) translate(45.65625 17.4375)"/><path d="M960 168a8 8 0 0 1 8-8h324a8 8 0 0 1 8 8v4a8 8 0 0 1-8 8H968a8 8 0 0 1-8-8z" fill="none"/><use xlink:href="#l" transform="matrix(1,0,0,1,960,160) translate(8.96240234375 17.4375)"/><use xlink:href="#j" transform="matrix(1,0,0,1,960,160) translate(37.50927734375 17.4375)"/><use xlink:href="#m" transform="matrix(1,0,0,1,960,160) translate(56.77490234375 17.4375)"/><path d="M620.5 420h58.6M620.5 420h-.5M661.68 410L679 420l-17.32 10M960 259.5v-58.6M960 259.5v.5M950 218.32L960 201l10 17.32" stroke="#333" fill="none"/><path d="M740 168a8 8 0 0 1 8-8h164a8 8 0 0 1 8 8v4a8 8 0 0 1-8 8H748a8 8 0 0 1-8-8z" fill="none"/><use xlink:href="#n" transform="matrix(1,0,0,1,739.9999999999999,160) translate(11.3203125 17.4375)"/><use xlink:href="#o" transform="matrix(1,0,0,1,739.9999999999999,160) translate(48.6298828125 17.4375)"/><path d="M900 200.5v58.6M900 200.5v-.5M910 241.68L900 259l-10-17.32" stroke="#333" fill="none"/><path d="M440 328a8 8 0 0 1 8-8h344a8 8 0 0 1 8 8v4a8 8 0 0 1-8 8H448a8 8 0 0 1-8-8z" fill="none"/><g><use xlink:href="#p" transform="matrix(1,0,0,1,440,320) translate(3.62109375 17.4375)"/><use xlink:href="#q" transform="matrix(1,0,0,1,440,320) translate(39.6298828125 17.4375)"/><use xlink:href="#r" transform="matrix(1,0,0,1,440,320) translate(49.8779296875 17.4375)"/><use xlink:href="#s" transform="matrix(1,0,0,1,440,320) translate(142.0224609375 17.4375)"/><use xlink:href="#t" transform="matrix(1,0,0,1,440,320) translate(241.3212890625 17.4375)"/></g><path d="M679.5 300h-58.6M679.5 300h.5M638.32 310L621 300l17.32-10" stroke="#333" fill="none"/><defs><path d="M783 20c-382 0-661-292-661-764 0-473 279-766 661-766 302 0 548 182 601 489h-190c-42-204-217-313-411-313-268 0-476 208-476 590 0 381 209 588 476 588 195 0 369-110 411-313h190c-52 303-296 489-601 489" id="u"/><path d="M537 14c-226 0-379-139-379-422v-710h180v695c0 172 97 275 253 275 160 0 281-109 281-300v-670h181V0H879v-209C806-46 684 14 537 14" id="v"/><path d="M158 0v-1118h180V0H158zm91-1301c-68 0-125-53-125-119s57-119 125-119c69 0 126 53 126 119s-57 119-126 119" id="w"/><path d="M577 24c-279 0-473-224-473-580 0-354 195-576 474-576 218 0 287 134 324 193h14v-551h180V0H922v-173h-20C865-111 790 24 577 24zm27-161c203 0 314-172 314-421 0-247-108-413-314-413-212 0-317 181-317 413 0 235 108 421 317 421" id="x"/><path d="M471 26C259 26 90-98 90-318c0-256 228-303 435-329 202-27 287-16 287-108 0-139-79-219-234-219-161 0-248 86-283 164l-173-57c86-203 278-265 451-265 150 0 419 46 419 395V0H815v-152h-12C765-73 660 26 471 26zm31-159c199 0 310-134 310-271v-155c-30 35-226 55-295 64-131 17-246 59-246 186 0 116 97 176 231 176" id="y"/><path d="M613 24c-304 0-509-231-509-576 0-350 205-580 509-580 305 0 511 230 511 580 0 345-206 576-511 576zm0-161c226 0 329-195 329-415 0-222-103-419-329-419-223 0-326 196-326 419 0 220 103 415 326 415" id="z"/><path d="M158 0v-1118h174v172h12c41-113 157-188 290-188 26 0 70 2 91 3v181c-11-2-60-10-108-10-161 0-279 109-279 260V0H158" id="A"/><g id="a"><use transform="matrix(0.0087890625,0,0,0.0087890625,0,0)" xlink:href="#u"/><use transform="matrix(0.0087890625,0,0,0.0087890625,13.1484375,0)" xlink:href="#v"/><use transform="matrix(0.0087890625,0,0,0.0087890625,23.7919921875,0)" xlink:href="#w"/><use transform="matrix(0.0087890625,0,0,0.0087890625,28.1513671875,0)" xlink:href="#x"/><use transform="matrix(0.0087890625,0,0,0.0087890625,39.1728515625,0)" xlink:href="#y"/><use transform="matrix(0.0087890625,0,0,0.0087890625,49.2802734375,0)" xlink:href="#x"/><use transform="matrix(0.0087890625,0,0,0.0087890625,60.3017578125,0)" xlink:href="#z"/><use transform="matrix(0.0087890625,0,0,0.0087890625,71.0947265625,0)" xlink:href="#A"/></g><path d="M342-723c-98 0-173-75-173-172s75-172 173-172 173 75 173 172-75 172-173 172zm0 742c-98 0-173-75-173-172s75-172 173-172 173 75 173 172S440 19 342 19" id="B"/><use transform="matrix(0.0087890625,0,0,0.0087890625,0,0)" xlink:href="#B" id="b"/><path d="M135 0v-1490h581c339 0 533 210 533 503 0 295-197 500-540 500H440V0H135zm305-733h220c186 0 274-104 274-254s-88-251-275-251H440v505" id="C"/><path d="M633 22C291 22 81-200 81-553c0-345 210-579 537-579 292 0 525 185 525 567v84H378c7 183 109 277 260 277 105 0 184-46 216-132l272 51C1071-99 893 22 633 22zM380-669h474c-15-146-94-237-233-237-143 0-229 99-241 237" id="D"/><path d="M572 22C302 22 117-98 78-306l279-48c29 105 101 156 224 156 114 0 185-48 185-115 0-118-228-130-337-155-215-49-322-150-322-317 0-215 187-347 470-347 265 0 424 116 466 298l-266 47c-24-76-87-130-196-130-98 0-174 46-174 113 0 56 38 95 144 117l201 40c216 44 320 143 320 302 0 220-207 367-500 367" id="E"/><path d="M628 22C291 22 81-210 81-554c0-346 210-578 547-578 336 0 547 232 547 578 0 344-211 576-547 576zm0-236c160 0 242-146 242-341 0-197-82-341-242-341S387-753 387-555c0 195 81 341 241 341" id="F"/><path d="M440 22C227 22 68-92 68-313c0-250 202-322 422-343 195-21 271-24 271-105 0-95-63-149-175-149-116 0-187 57-211 129l-275-46c57-194 237-305 487-305 240 0 474 108 474 379V0H777v-155h-10C713-51 605 22 440 22zm85-211c140 0 238-93 238-211v-121c-37 26-156 42-222 51-111 16-185 59-185 149 0 87 70 132 169 132" id="G"/><g id="c"><use transform="matrix(0.0087890625,0,0,0.0087890625,0,0)" xlink:href="#C"/><use transform="matrix(0.0087890625,0,0,0.0087890625,11.513671875,0)" xlink:href="#D"/><use transform="matrix(0.0087890625,0,0,0.0087890625,22.236328125,0)" xlink:href="#E"/><use transform="matrix(0.0087890625,0,0,0.0087890625,32.3173828125,0)" xlink:href="#E"/><use transform="matrix(0.0087890625,0,0,0.0087890625,42.3984375,0)" xlink:href="#F"/><use transform="matrix(0.0087890625,0,0,0.0087890625,53.61328125,0)" xlink:href="#G"/></g><path d="M135 0v-1490h468l242 684c30 94 76 293 111 455 34-161 80-360 110-455l238-684h470V0h-307c0-447-3-765 11-1227-122 503-246 788-395 1227H826C676-435 552-717 427-1215c15 453 11 775 11 1215H135" id="H"/><path d="M428-647V0H128v-1118h283l4 231c63-156 176-245 348-245 232 0 384 159 384 421V0H847v-659c0-139-76-222-202-222-128 0-217 86-217 234" id="I"/><path d="M128 0v-1118h300V0H128zm150-1264c-91 0-165-68-165-154 0-85 74-154 165-154 90 0 165 69 165 154 0 86-75 154-165 154" id="J"/><path d="M683-1118v229H474v562c0 71 29 104 102 104 23 0 73-7 95-13l43 225C647 9 580 16 520 16 296 16 174-96 174-301v-588H20v-229h154v-266h300v266h209" id="K"/><path d="M128 0v-1118h290v195h12c54-169 184-238 367-200v268c-27-8-86-15-130-15-138 0-239 95-239 234V0H128" id="L"/><path d="M537 19C279 19 81-185 81-557c0-382 206-575 454-575 190 0 278 113 318 202h10v-560h300V0H868v-179h-15C812-89 719 19 537 19zm92-241c153 0 240-134 240-336 0-203-86-334-240-334-158 0-240 138-240 334 0 197 84 336 240 336" id="M"/><g id="d"><use transform="matrix(0.0087890625,0,0,0.0087890625,0,0)" xlink:href="#H"/><use transform="matrix(0.0087890625,0,0,0.0087890625,16.76953125,0)" xlink:href="#F"/><use transform="matrix(0.0087890625,0,0,0.0087890625,27.80859375,0)" xlink:href="#I"/><use transform="matrix(0.0087890625,0,0,0.0087890625,39.0146484375,0)" xlink:href="#J"/><use transform="matrix(0.0087890625,0,0,0.0087890625,43.892578125,0)" xlink:href="#K"/><use transform="matrix(0.0087890625,0,0,0.0087890625,50.30859375,0)" xlink:href="#F"/><use transform="matrix(0.0087890625,0,0,0.0087890625,61.34765625,0)" xlink:href="#L"/><use transform="matrix(0.0087890625,0,0,0.0087890625,68.431640625,0)" xlink:href="#G"/><use transform="matrix(0.0087890625,0,0,0.0087890625,78.8818359375,0)" xlink:href="#M"/><use transform="matrix(0.0087890625,0,0,0.0087890625,90.228515625,0)" xlink:href="#G"/></g><path d="M128 0v-1118h278l12 217c60-163 185-234 319-234 143 0 236 81 288 251 63-172 205-251 359-251 205 0 357 138 357 381V0h-301v-697c0-126-76-187-177-187-114 0-184 79-184 196V0H789v-705c0-109-72-179-174-179-106 0-187 74-187 208V0H128" id="N"/><g id="e"><use transform="matrix(0.0087890625,0,0,0.0087890625,0,0)" xlink:href="#H"/><use transform="matrix(0.0087890625,0,0,0.0087890625,16.76953125,0)" xlink:href="#F"/><use transform="matrix(0.0087890625,0,0,0.0087890625,27.80859375,0)" xlink:href="#I"/><use transform="matrix(0.0087890625,0,0,0.0087890625,39.0146484375,0)" xlink:href="#J"/><use transform="matrix(0.0087890625,0,0,0.0087890625,43.892578125,0)" xlink:href="#K"/><use transform="matrix(0.0087890625,0,0,0.0087890625,50.30859375,0)" xlink:href="#F"/><use transform="matrix(0.0087890625,0,0,0.0087890625,61.34765625,0)" xlink:href="#L"/><use transform="matrix(0.0087890625,0,0,0.0087890625,68.431640625,0)" xlink:href="#G"/><use transform="matrix(0.0087890625,0,0,0.0087890625,78.8818359375,0)" xlink:href="#N"/><use transform="matrix(0.0087890625,0,0,0.0087890625,95.30859375,0)" xlink:href="#D"/><use transform="matrix(0.0087890625,0,0,0.0087890625,106.03125,0)" xlink:href="#I"/><use transform="matrix(0.0087890625,0,0,0.0087890625,117.2373046875,0)" xlink:href="#K"/><use transform="matrix(0.0087890625,0,0,0.0087890625,123.6533203125,0)" xlink:href="#F"/></g><path d="M786 20C389 20 94-260 94-744c0-487 299-766 692-766 339 0 597 194 641 529h-309c-28-162-156-258-326-258-233 0-388 179-388 495 0 323 157 493 387 493 170 0 298-97 328-259h309c-34 277-266 530-642 530" id="O"/><path d="M513 14c-232 0-385-159-385-421v-711h300v659c0 139 76 222 202 222 127 0 217-86 217-234v-647h301V0H864l-4-232C797-74 683 14 513 14" id="P"/><g id="f"><use transform="matrix(0.0087890625,0,0,0.0087890625,0,0)" xlink:href="#O"/><use transform="matrix(0.0087890625,0,0,0.0087890625,13.3154296875,0)" xlink:href="#P"/><use transform="matrix(0.0087890625,0,0,0.0087890625,24.521484375,0)" xlink:href="#J"/><use transform="matrix(0.0087890625,0,0,0.0087890625,29.3994140625,0)" xlink:href="#M"/><use transform="matrix(0.0087890625,0,0,0.0087890625,40.74609375,0)" xlink:href="#G"/><use transform="matrix(0.0087890625,0,0,0.0087890625,51.1962890625,0)" xlink:href="#M"/><use transform="matrix(0.0087890625,0,0,0.0087890625,62.54296875,0)" xlink:href="#F"/><use transform="matrix(0.0087890625,0,0,0.0087890625,73.58203125,0)" xlink:href="#L"/></g><path d="M653-1490V0H466v-1314h-10L96-1047v-204l324-239h233" id="Q"/><path d="M295 13c-75 0-135-60-135-135s60-135 135-135 135 60 135 135S370 13 295 13zm0-809c-75 0-135-60-135-135s60-135 135-135 135 60 135 135-60 135-135 135" id="R"/><g id="g"><use transform="matrix(0.0087890625,0,0,0.0087890625,0,0)" xlink:href="#Q"/><use transform="matrix(0.0087890625,0,0,0.0087890625,7.3212890625,0)" xlink:href="#R"/></g><path d="M180 0v-1490h190v1322h690V0H180" id="S"/><path d="M611 442c-248 0-391-105-460-228l146-94c47 65 117 165 314 165 178 0 307-82 307-266v-224h-17C863-141 792-18 576-18c-268 0-472-195-472-546 0-346 197-568 476-568 216 0 288 133 326 193h17v-179h175V29c0 289-215 413-487 413zm-5-620c203 0 314-146 314-390 0-237-108-403-314-403-213 0-319 180-319 403 0 230 109 390 319 390" id="T"/><path d="M338-670V0H158v-1118h173l1 207c72-158 192-221 342-221 226 0 378 139 378 422V0H872v-695c0-172-96-275-252-275-161 0-282 109-282 300" id="U"/><path d="M218-607c0-325 108-727 258-974h175c-155 315-250 682-250 974 0 265 78 531 250 886H476C306-10 218-315 218-607" id="V"/><path d="M96 279C273-86 346-350 346-607c0-292-95-659-250-974h175c150 246 258 650 258 974 0 297-91 602-258 886H96" id="W"/><g id="h"><use transform="matrix(0.0087890625,0,0,0.0087890625,0,0)" xlink:href="#S"/><use transform="matrix(0.0087890625,0,0,0.0087890625,10.177734375,0)" xlink:href="#z"/><use transform="matrix(0.0087890625,0,0,0.0087890625,20.970703125,0)" xlink:href="#T"/><use transform="matrix(0.0087890625,0,0,0.0087890625,32.009765625,0)" xlink:href="#w"/><use transform="matrix(0.0087890625,0,0,0.0087890625,36.369140625,0)" xlink:href="#U"/><use transform="matrix(0.0087890625,0,0,0.0087890625,47.00390625,0)" xlink:href="#V"/><use transform="matrix(0.0087890625,0,0,0.0087890625,53.5693359375,0)" xlink:href="#W"/></g><path d="M295 13c-75 0-135-60-135-135s60-135 135-135 135 60 135 135S370 13 295 13" id="X"/><g id="i"><use transform="matrix(0.0087890625,0,0,0.0087890625,0,0)" xlink:href="#Q"/><use transform="matrix(0.0087890625,0,0,0.0087890625,7.3212890625,0)" xlink:href="#X"/><use transform="matrix(0.0087890625,0,0,0.0087890625,10.951171875,0)" xlink:href="#Q"/></g><path d="M441-652l13-317-268 171-72-126 282-146-282-146 72-128 268 171-13-317h144l-12 317 267-171 72 128-282 146 282 146-72 126-267-171 12 317H441" id="Y"/><g id="j"><use transform="matrix(0.0087890625,0,0,0.0087890625,0,0)" xlink:href="#Y"/><use transform="matrix(0.0087890625,0,0,0.0087890625,9.017578125,0)" xlink:href="#R"/></g><path d="M613 24c-304 0-509-231-509-576 0-350 205-580 509-580 216 0 392 114 453 309l-173 49c-33-115-133-197-280-197-223 0-326 196-326 419 0 220 103 415 326 415 150 0 252-85 285-206l172 49C1010-95 832 24 613 24" id="Z"/><path d="M538 24C308 24 148-78 108-271l171-41c32 123 123 178 257 178 156 0 256-77 256-169 0-77-54-128-164-154l-186-44c-203-48-300-148-300-305 0-192 176-326 414-326 230 0 351 112 402 269l-163 42c-31-80-94-158-238-158-133 0-233 69-233 162 0 83 57 129 188 160l169 40c203 48 298 149 298 302 0 196-179 339-441 339" id="aa"/><path d="M338-1490V0H158v-1490h180" id="ab"/><path d="M598-1118v154H368v674c0 100 37 144 132 144 23 0 62-6 92-12L629-6c-37 13-88 20-134 20-193 0-307-107-307-290v-688H20v-154h168v-266h180v266h230" id="ac"/><path d="M180 0v-1490h510c348 0 508 209 508 474 0 266-160 477-507 477H370V0H180zm190-706h312c236 0 327-133 327-310 0-176-91-307-329-307H370v617" id="ad"/><path d="M628 24c-324 0-524-230-524-574 0-343 198-582 503-582 237 0 487 146 487 559v75H286c9 234 145 362 343 362 132 0 231-58 273-172l174 48C1024-91 857 24 628 24zM287-650h624c-17-190-120-322-304-322-192 0-309 151-320 322" id="ae"/><path d="M180 0v-1490h270l367 940c28 72 75 218 110 339 35-117 81-264 110-339l362-940h271V0h-187c2-448-5-837 7-1287-157 497-311 829-483 1287H842C666-458 514-784 354-1284c12 438 5 843 7 1284H180" id="af"/><g id="k"><use transform="matrix(0.0087890625,0,0,0.0087890625,0,0)" xlink:href="#Z"/><use transform="matrix(0.0087890625,0,0,0.0087890625,10.283203125,0)" xlink:href="#z"/><use transform="matrix(0.0087890625,0,0,0.0087890625,21.076171875,0)" xlink:href="#U"/><use transform="matrix(0.0087890625,0,0,0.0087890625,31.7109375,0)" xlink:href="#aa"/><use transform="matrix(0.0087890625,0,0,0.0087890625,41.2119140625,0)" xlink:href="#v"/><use transform="matrix(0.0087890625,0,0,0.0087890625,51.85546875,0)" xlink:href="#ab"/><use transform="matrix(0.0087890625,0,0,0.0087890625,56.478515625,0)" xlink:href="#ac"/><use transform="matrix(0.0087890625,0,0,0.0087890625,62.455078125,0)" xlink:href="#y"/><use transform="matrix(0.0087890625,0,0,0.0087890625,72.5625,0)" xlink:href="#A"/><use transform="matrix(0.0087890625,0,0,0.0087890625,79.6201171875,0)" xlink:href="#ad"/><use transform="matrix(0.0087890625,0,0,0.0087890625,91.01953125,0)" xlink:href="#ae"/><use transform="matrix(0.0087890625,0,0,0.0087890625,101.513671875,0)" xlink:href="#aa"/><use transform="matrix(0.0087890625,0,0,0.0087890625,111.0146484375,0)" xlink:href="#aa"/><use transform="matrix(0.0087890625,0,0,0.0087890625,120.515625,0)" xlink:href="#z"/><use transform="matrix(0.0087890625,0,0,0.0087890625,131.484375,0)" xlink:href="#y"/><use transform="matrix(0.0087890625,0,0,0.0087890625,141.591796875,0)" xlink:href="#af"/><use transform="matrix(0.0087890625,0,0,0.0087890625,157.8515625,0)" xlink:href="#z"/><use transform="matrix(0.0087890625,0,0,0.0087890625,168.64453125,0)" xlink:href="#U"/><use transform="matrix(0.0087890625,0,0,0.0087890625,179.279296875,0)" xlink:href="#w"/><use transform="matrix(0.0087890625,0,0,0.0087890625,183.638671875,0)" xlink:href="#ac"/><use transform="matrix(0.0087890625,0,0,0.0087890625,189.3515625,0)" xlink:href="#z"/><use transform="matrix(0.0087890625,0,0,0.0087890625,200.14453125,0)" xlink:href="#A"/><use transform="matrix(0.0087890625,0,0,0.0087890625,206.9208984375,0)" xlink:href="#y"/><use transform="matrix(0.0087890625,0,0,0.0087890625,217.0283203125,0)" xlink:href="#x"/><use transform="matrix(0.0087890625,0,0,0.0087890625,228.0498046875,0)" xlink:href="#y"/><use transform="matrix(0.0087890625,0,0,0.0087890625,238.1572265625,0)" xlink:href="#V"/><use transform="matrix(0.0087890625,0,0,0.0087890625,244.72265625,0)" xlink:href="#W"/></g><path d="M154 0v-137l495-537c165-179 249-281 249-418 0-156-121-253-280-253-170 0-278 110-278 278H158c0-264 200-443 465-443 266 0 455 183 455 416 0 161-73 288-336 568L416-179v12h687V0H154" id="ag"/><g id="l"><use transform="matrix(0.0087890625,0,0,0.0087890625,0,0)" xlink:href="#Q"/><use transform="matrix(0.0087890625,0,0,0.0087890625,7.3212890625,0)" xlink:href="#X"/><use transform="matrix(0.0087890625,0,0,0.0087890625,12.5068359375,0)" xlink:href="#ag"/></g><path d="M481 0L54-1118h197c107 314 236 620 325 951 87-331 217-637 324-951h197L670 0H481" id="ah"/><path d="M678-1118v154H420V0H240v-964H20v-154h220v-149c0-194 155-293 318-293 85 0 141 18 168 30l-50 154c-19-6-47-17-97-17-111 0-159 58-159 166v109h258" id="ai"/><path d="M158 0v-1118h175l1 205c55-151 181-225 313-225 147 0 245 90 285 228 53-141 190-228 352-228 194 0 352 125 352 384V0h-181v-749c0-161-105-225-225-225-151 0-243 103-243 244V0H807v-767c0-124-93-207-219-207-131 0-250 92-250 270V0H158" id="aj"/><g id="m"><use transform="matrix(0.0087890625,0,0,0.0087890625,0,0)" xlink:href="#ah"/><use transform="matrix(0.0087890625,0,0,0.0087890625,9.7646484375,0)" xlink:href="#ae"/><use transform="matrix(0.0087890625,0,0,0.0087890625,20.2587890625,0)" xlink:href="#A"/><use transform="matrix(0.0087890625,0,0,0.0087890625,27.31640625,0)" xlink:href="#w"/><use transform="matrix(0.0087890625,0,0,0.0087890625,31.67578125,0)" xlink:href="#ai"/><use transform="matrix(0.0087890625,0,0,0.0087890625,38.337890625,0)" xlink:href="#w"/><use transform="matrix(0.0087890625,0,0,0.0087890625,42.697265625,0)" xlink:href="#Z"/><use transform="matrix(0.0087890625,0,0,0.0087890625,53.15625,0)" xlink:href="#y"/><use transform="matrix(0.0087890625,0,0,0.0087890625,63.263671875,0)" xlink:href="#A"/><use transform="matrix(0.0087890625,0,0,0.0087890625,70.3212890625,0)" xlink:href="#af"/><use transform="matrix(0.0087890625,0,0,0.0087890625,86.5810546875,0)" xlink:href="#z"/><use transform="matrix(0.0087890625,0,0,0.0087890625,97.3740234375,0)" xlink:href="#U"/><use transform="matrix(0.0087890625,0,0,0.0087890625,108.0087890625,0)" xlink:href="#w"/><use transform="matrix(0.0087890625,0,0,0.0087890625,112.3681640625,0)" xlink:href="#ac"/><use transform="matrix(0.0087890625,0,0,0.0087890625,118.0810546875,0)" xlink:href="#z"/><use transform="matrix(0.0087890625,0,0,0.0087890625,128.8740234375,0)" xlink:href="#A"/><use transform="matrix(0.0087890625,0,0,0.0087890625,135.650390625,0)" xlink:href="#y"/><use transform="matrix(0.0087890625,0,0,0.0087890625,145.7578125,0)" xlink:href="#aj"/><use transform="matrix(0.0087890625,0,0,0.0087890625,161.525390625,0)" xlink:href="#ae"/><use transform="matrix(0.0087890625,0,0,0.0087890625,172.01953125,0)" xlink:href="#U"/><use transform="matrix(0.0087890625,0,0,0.0087890625,182.654296875,0)" xlink:href="#ac"/><use transform="matrix(0.0087890625,0,0,0.0087890625,188.3671875,0)" xlink:href="#z"/><use transform="matrix(0.0087890625,0,0,0.0087890625,199.16015625,0)" xlink:href="#ad"/><use transform="matrix(0.0087890625,0,0,0.0087890625,210.5595703125,0)" xlink:href="#ae"/><use transform="matrix(0.0087890625,0,0,0.0087890625,221.0537109375,0)" xlink:href="#aa"/><use transform="matrix(0.0087890625,0,0,0.0087890625,230.5546875,0)" xlink:href="#aa"/><use transform="matrix(0.0087890625,0,0,0.0087890625,240.0556640625,0)" xlink:href="#z"/><use transform="matrix(0.0087890625,0,0,0.0087890625,251.0244140625,0)" xlink:href="#y"/><use transform="matrix(0.0087890625,0,0,0.0087890625,261.1318359375,0)" xlink:href="#V"/><use transform="matrix(0.0087890625,0,0,0.0087890625,267.697265625,0)" xlink:href="#W"/></g><path d="M646 20c-332 0-524-278-524-764 0-483 194-766 524-766s524 283 524 766c0 485-191 764-524 764zm0-166c218 0 341-220 341-598 0-380-123-601-341-601s-341 222-341 601c0 378 123 598 341 598" id="ak"/><g id="n"><use transform="matrix(0.0087890625,0,0,0.0087890625,0,0)" xlink:href="#ag"/><use transform="matrix(0.0087890625,0,0,0.0087890625,10.9775390625,0)" xlink:href="#X"/><use transform="matrix(0.0087890625,0,0,0.0087890625,15.7060546875,0)" xlink:href="#ak"/><use transform="matrix(0.0087890625,0,0,0.0087890625,27.0615234375,0)" xlink:href="#R"/></g><path d="M645 0H180v-1490h484c435 0 692 280 692 742 0 466-257 748-711 748zM370-168h263c363 0 539-218 539-580 0-358-176-574-521-574H370v1154" id="al"/><g id="o"><use transform="matrix(0.0087890625,0,0,0.0087890625,0,0)" xlink:href="#ae"/><use transform="matrix(0.0087890625,0,0,0.0087890625,10.494140625,0)" xlink:href="#U"/><use transform="matrix(0.0087890625,0,0,0.0087890625,20.865234375,0)" xlink:href="#ah"/><use transform="matrix(0.0087890625,0,0,0.0087890625,30.9814453125,0)" xlink:href="#w"/><use transform="matrix(0.0087890625,0,0,0.0087890625,35.3408203125,0)" xlink:href="#y"/><use transform="matrix(0.0087890625,0,0,0.0087890625,45.4482421875,0)" xlink:href="#A"/><use transform="matrix(0.0087890625,0,0,0.0087890625,52.505859375,0)" xlink:href="#al"/><use transform="matrix(0.0087890625,0,0,0.0087890625,65.49609375,0)" xlink:href="#y"/><use transform="matrix(0.0087890625,0,0,0.0087890625,75.603515625,0)" xlink:href="#x"/><use transform="matrix(0.0087890625,0,0,0.0087890625,86.625,0)" xlink:href="#z"/><use transform="matrix(0.0087890625,0,0,0.0087890625,97.41796875,0)" xlink:href="#aa"/><use transform="matrix(0.0087890625,0,0,0.0087890625,106.9189453125,0)" xlink:href="#V"/><use transform="matrix(0.0087890625,0,0,0.0087890625,113.484375,0)" xlink:href="#W"/></g><g id="p"><use transform="matrix(0.0087890625,0,0,0.0087890625,0,0)" xlink:href="#ag"/><use transform="matrix(0.0087890625,0,0,0.0087890625,10.9775390625,0)" xlink:href="#X"/><use transform="matrix(0.0087890625,0,0,0.0087890625,14.607421875,0)" xlink:href="#Q"/><use transform="matrix(0.0087890625,0,0,0.0087890625,21.9287109375,0)" xlink:href="#Y"/></g><use transform="matrix(0.0087890625,0,0,0.0087890625,0,0)" xlink:href="#R" id="q"/><path d="M226 279v-1860h398v153H398V126h226v153H226" id="am"/><path d="M677 24c-213 0-288-135-325-197h-20V0H158v-1490h180v551h14c37-59 106-193 324-193 279 0 474 222 474 576 0 356-194 580-473 580zm-27-161c209 0 317-186 317-421 0-232-105-413-317-413-206 0-314 166-314 413 0 249 111 421 314 421" id="an"/><g id="r"><use transform="matrix(0.0087890625,0,0,0.0087890625,0,0)" xlink:href="#am"/><use transform="matrix(0.0087890625,0,0,0.0087890625,6.5654296875,0)" xlink:href="#ad"/><use transform="matrix(0.0087890625,0,0,0.0087890625,18.0615234375,0)" xlink:href="#A"/><use transform="matrix(0.0087890625,0,0,0.0087890625,24.5390625,0)" xlink:href="#z"/><use transform="matrix(0.0087890625,0,0,0.0087890625,35.33203125,0)" xlink:href="#an"/><use transform="matrix(0.0087890625,0,0,0.0087890625,46.353515625,0)" xlink:href="#ab"/><use transform="matrix(0.0087890625,0,0,0.0087890625,50.712890625,0)" xlink:href="#ae"/><use transform="matrix(0.0087890625,0,0,0.0087890625,61.20703125,0)" xlink:href="#aj"/><use transform="matrix(0.0087890625,0,0,0.0087890625,76.974609375,0)" xlink:href="#y"/></g><path d="M123 279V126h226v-1554H123v-153h398V279H123" id="ao"/><g id="s"><use transform="matrix(0.0087890625,0,0,0.0087890625,0,0)" xlink:href="#al"/><use transform="matrix(0.0087890625,0,0,0.0087890625,12.990234375,0)" xlink:href="#ae"/><use transform="matrix(0.0087890625,0,0,0.0087890625,23.484375,0)" xlink:href="#ac"/><use transform="matrix(0.0087890625,0,0,0.0087890625,29.197265625,0)" xlink:href="#ae"/><use transform="matrix(0.0087890625,0,0,0.0087890625,39.69140625,0)" xlink:href="#Z"/><use transform="matrix(0.0087890625,0,0,0.0087890625,49.974609375,0)" xlink:href="#ac"/><use transform="matrix(0.0087890625,0,0,0.0087890625,55.951171875,0)" xlink:href="#y"/><use transform="matrix(0.0087890625,0,0,0.0087890625,66.05859375,0)" xlink:href="#x"/><use transform="matrix(0.0087890625,0,0,0.0087890625,77.080078125,0)" xlink:href="#z"/><use transform="matrix(0.0087890625,0,0,0.0087890625,87.6708984375,0)" xlink:href="#ao"/></g><path d="M52 0l541-1490h220L1361 0h-200l-149-416H398L254 0H52zm404-582h497c-103-290-145-390-251-756-108 377-145 460-246 756" id="ap"/><g id="t"><use transform="matrix(0.0087890625,0,0,0.0087890625,0,0)" xlink:href="#ae"/><use transform="matrix(0.0087890625,0,0,0.0087890625,10.494140625,0)" xlink:href="#U"/><use transform="matrix(0.0087890625,0,0,0.0087890625,20.865234375,0)" xlink:href="#ah"/><use transform="matrix(0.0087890625,0,0,0.0087890625,30.9814453125,0)" xlink:href="#w"/><use transform="matrix(0.0087890625,0,0,0.0087890625,35.3408203125,0)" xlink:href="#y"/><use transform="matrix(0.0087890625,0,0,0.0087890625,45.4482421875,0)" xlink:href="#A"/><use transform="matrix(0.0087890625,0,0,0.0087890625,51.5126953125,0)" xlink:href="#ap"/><use transform="matrix(0.0087890625,0,0,0.0087890625,63.931640625,0)" xlink:href="#ab"/><use transform="matrix(0.0087890625,0,0,0.0087890625,68.291015625,0)" xlink:href="#ae"/><use transform="matrix(0.0087890625,0,0,0.0087890625,78.78515625,0)" xlink:href="#A"/><use transform="matrix(0.0087890625,0,0,0.0087890625,85.8427734375,0)" xlink:href="#ac"/><use transform="matrix(0.0087890625,0,0,0.0087890625,91.8193359375,0)" xlink:href="#y"/><use transform="matrix(0.0087890625,0,0,0.0087890625,101.9267578125,0)" xlink:href="#V"/><use transform="matrix(0.0087890625,0,0,0.0087890625,108.4921875,0)" xlink:href="#W"/></g></defs></g></svg>